<?xml version="1.0" encoding="UTF-8"?>
<svg id="Layer_2" xmlns="http://www.w3.org/2000/svg" viewBox="0 0 38.68 30.13">
  <defs>
    <style>
      .cls-1 {
        fill: #fff;
      }
    </style>
  </defs>
  <g id="Layer_1-2" data-name="Layer_1">
    <g>
      <path class="cls-1" d="M36.93,3.5H11.89c-.97,0-1.75-.78-1.75-1.75s.78-1.75,1.75-1.75h25.04c.97,0,1.75.78,1.75,1.75s-.78,1.75-1.75,1.75Z"/>
      <path class="cls-1" d="M32.19,12.38H11.89c-.97,0-1.75-.78-1.75-1.75s.78-1.75,1.75-1.75h20.3c.97,0,1.75.78,1.75,1.75s-.78,1.75-1.75,1.75Z"/>
      <path class="cls-1" d="M27.52,21.25h-15.63c-.97,0-1.75-.78-1.75-1.75s.78-1.75,1.75-1.75h15.63c.97,0,1.75.78,1.75,1.75s-.78,1.75-1.75,1.75Z"/>
      <path class="cls-1" d="M23.63,30.13h-11.74c-.97,0-1.75-.78-1.75-1.75s.78-1.75,1.75-1.75h11.74c.97,0,1.75.78,1.75,1.75s-.78,1.75-1.75,1.75Z"/>
      <path class="cls-1" d="M8.25,24.01l-3.27,5.66h0s-.02.04-.02.04c0,.01-.02.02-.03.03-.06.09-.14.16-.22.22-.08.06-.17.1-.27.13-.02,0-.03,0-.05.01-.14.03-.27.03-.41,0-.02,0-.03,0-.05-.01-.1-.03-.18-.07-.27-.13-.08-.06-.16-.13-.22-.22,0-.01-.02-.02-.03-.03l-.02-.04h0S.12,24.01.12,24.01c-.34-.6.09-1.34.78-1.34h1.54V1.75c0-.97.78-1.75,1.75-1.75s1.75.78,1.75,1.75v20.92h1.54c.69,0,1.12.75.78,1.34Z"/>
    </g>
  </g>
</svg>