<svg xmlns="http://www.w3.org/2000/svg" width="15.008" height="13.5" viewBox="0 0 15.008 13.5">
  <g id="Group_2653" data-name="Group 2653" transform="translate(-302.5 -95.5)">
    <path id="Icon_ion-arrow-right-b" data-name="Icon ion-arrow-right-b" d="M12.37,21.127l.1-.082,7.1-6.166a1.147,1.147,0,0,0,.39-.871,1.163,1.163,0,0,0-.39-.871L12.479,6.977l-.118-.1a.7.7,0,0,0-.394-.122.735.735,0,0,0-.716.753v13a.735.735,0,0,0,.716.753.692.692,0,0,0,.4-.131Z" transform="translate(324.259 89.049) rotate(90)" fill="#707070"/>
    <line id="Line_39" data-name="Line 39" x2="13" transform="translate(303.5 96.5)" fill="none" stroke="#707070" stroke-linecap="round" stroke-width="2"/>
  </g>
</svg>
