<?xml version="1.0" encoding="UTF-8"?>
<svg id="Layer_2" xmlns="http://www.w3.org/2000/svg" viewBox="0 0 33 33">
  <defs>
    <style>
      .cls-1 {
        fill: #303c50;
      }
    </style>
  </defs>
  <g id="Layer_1-2" data-name="Layer_1">
    <g>
      <path class="cls-1" d="M16.5,10.76c-3.17,0-5.74,2.57-5.74,5.74s2.57,5.74,5.74,5.74,5.74-2.57,5.74-5.74-2.57-5.74-5.74-5.74Z"/>
      <path class="cls-1" d="M31.35,14.85h-1.76c-.76-5.97-5.46-10.68-11.44-11.44v-1.76c0-.91-.74-1.65-1.65-1.65s-1.65.74-1.65,1.65v1.76c-5.97.76-10.67,5.46-11.44,11.44h-1.76c-.91,0-1.65.74-1.65,1.65s.74,1.65,1.65,1.65h1.76c.76,5.97,5.46,10.68,11.44,11.44v1.76c0,.91.74,1.65,1.65,1.65s1.65-.74,1.65-1.65v-1.76c5.97-.76,10.68-5.46,11.44-11.44h1.76c.91,0,1.65-.74,1.65-1.65s-.74-1.65-1.65-1.65ZM26.26,18.18c-.68,4.1-3.98,7.41-8.08,8.08-6.77,1.12-12.56-4.67-11.44-11.44.68-4.1,3.98-7.41,8.08-8.08,6.77-1.12,12.56,4.67,11.44,11.44Z"/>
    </g>
  </g>
</svg>