<?xml version="1.0" encoding="UTF-8"?>
<svg id="Layer_2" xmlns="http://www.w3.org/2000/svg" viewBox="0 0 20.76 15.98">
  <g id="Layer_1-2" data-name="Layer_1">
    <g>
      <path d="M20.01,8.79c-6.42,0-12.84,0-19.26,0-.07,0-.14,0-.2,0-.34.02-.55.23-.55.57,0,.34,0,.69,0,1.03,0,.63.12.76.74.8.01,0,.02.01.06.03v.23c0,1.26,0,2.53,0,3.79,0,.32.06.57.35.74h.93c.28-.18.34-.44.33-.76-.02-1.26,0-2.51,0-3.77v-.24h.8v.21c0,.79,0,1.58,0,2.37,0,.4.21.6.61.6.14,0,.28,0,.43,0,.34,0,.56-.22.56-.56,0-.8,0-1.59,0-2.39v-.23h11.18v.21c0,.79,0,1.58,0,2.37,0,.39.21.6.6.6.14,0,.27,0,.41,0,.38,0,.59-.21.59-.58,0-.79,0-1.58,0-2.37v-.23h.8v.22c0,1.26,0,2.53,0,3.79,0,.32.05.58.33.76h.93c.28-.17.35-.42.35-.73-.01-1.27,0-2.53,0-3.8v-.26c.37.04.65-.06.8-.4v-1.62c-.16-.31-.42-.38-.75-.38Z"/>
      <path d="M1.38,5.6c-.13,0-.29.05-.39.13-.3.23-.3,1.11,0,1.33.12.09.3.12.45.13.31.02.62,0,.95,0v.78h1.61v-.77h12.76v.77h1.61v-.78h.69c.79,0,.91-.12.9-.9,0-.52-.18-.7-.71-.7-.29,0-.59,0-.88,0v-.8c.09,0,.17,0,.25,0,.28,0,.55,0,.83-.01.29-.02.47-.21.5-.49.01-.15.01-.3,0-.45,0-.46-.2-.65-.66-.65-.31,0-.62,0-.92,0v-.81c.37,0,.72,0,1.07,0,.29,0,.48-.2.51-.48.01-.15.01-.31.01-.47,0-.45-.2-.64-.65-.64-.31,0-.62,0-.94,0,0-.08,0-.14-.01-.2,0-.38-.22-.6-.61-.6-.15,0-.3,0-.45,0-.29.01-.49.19-.54.48-.02.1-.02.2-.03.31H4.01c0-.07,0-.13,0-.19C3.98.2,3.77,0,3.37,0c-.13,0-.27,0-.41,0-.33.01-.55.23-.57.56,0,.07,0,.15,0,.23-.09,0-.15,0-.22,0-.28,0-.57,0-.85,0-.29.01-.49.2-.52.49-.01.13-.01.27-.01.4,0,.51.18.69.7.69.29,0,.59,0,.89,0v.8c-.36,0-.7,0-1.04,0-.29,0-.5.19-.53.48-.02.21-.02.42,0,.63.02.27.21.45.47.47.24.02.49.01.73.01.12,0,.25,0,.37,0v.8c-.34,0-.67-.01-1,0ZM4.01,2.42h12.73v.77H4.01v-.77ZM4.01,4.82h12.74v.76H4.01v-.76Z"/>
    </g>
  </g>
</svg>