<?xml version="1.0" encoding="UTF-8"?>
<svg id="Layer_2" xmlns="http://www.w3.org/2000/svg" viewBox="0 0 26.67 25.68">
  <g id="Layer_1-2" data-name="Layer_1">
    <path d="M24.9,18.96c-.14-.01-.29-.01-.44-.01h-.11s-8.15,0-8.15,0v-1.32c2.29-.64,3.96-1.76,5.09-3.42.99-.21,1.59-.94,1.57-1.92-.02-1.01-.73-1.76-1.77-1.86-.2-.02-.4-.03-.64-.02h-6.57c.29-.02.38-.13.38-.43,0-.61-.02-1.22.05-1.82.1-.79.58-1.3,1.37-1.49.9-.22,1.56.14,2.13.8.41.48.93.53,1.35.18.41-.34.45-.96.06-1.41-.96-1.11-2.15-1.65-3.64-1.4-.41.07-.81.21-1.21.32.14-1.8,1.69-3.24,3.53-3.3,2.24-.08,3.85,1.42,4.03,3.77.05.67.39,1.01.98.98.54-.03.87-.44.86-1.06-.1-3.73-3.7-6.36-7.29-5.3-1.29.38-2.31,1.16-3.13,2.29-.1-.11-.16-.17-.21-.23C11.72.51,9.88-.26,7.62.09c-2.59.41-4.69,2.66-4.7,5.58,0,.67.62,1.1,1.23.87.44-.17.57-.52.6-.98.19-2.58,2.22-4.14,4.69-3.63,1.56.32,2.8,1.72,2.85,3.27-.22-.08-.43-.17-.64-.24-1.5-.53-3.33.04-4.27,1.34-.32.45-.27,1.01.12,1.33.4.33.88.29,1.28-.11.11-.1.2-.22.3-.32.6-.56,1.29-.78,2.09-.5.76.27,1.15.84,1.21,1.64.02.23.03.46.03.69,0,1.04,0,1.31.56,1.37h-1.88c-1.81,0-3.62,0-5.43,0-1.14,0-2.01.82-2.02,1.9,0,1,.72,1.78,1.77,1.95.14.15.27.31.4.47.26.31.54.67.92.97,1.18.94,2.42,1.59,3.72,1.97v1.29H2.77c-.35,0-.69,0-1.04.01C.68,19.02,0,19.78,0,20.88c0,1.06.61,1.79,1.57,1.9,1.1,1.86,2.81,2.85,4.97,2.88,2.2.02,4.45.03,6.74.03s4.51-.01,6.81-.03c2.18-.02,3.92-1.02,5.04-2.88.95-.24,1.57-1.01,1.55-1.93-.02-.99-.77-1.78-1.78-1.88ZM13.24,10.42v.99-.99h0ZM7.38,13.47c-.17-.2-.33-.4-.51-.59-.1-.11-.33-.32-.65-.47,1.63,0,3.26,0,4.88,0h9.25c-.23.11-.46.27-.62.52-.88,1.39-2.22,2.29-4.19,2.81-2.74.73-5.28.19-7.55-1.61-.2-.16-.4-.4-.61-.66ZM23.46,21.65c-.76,1.33-1.87,1.99-3.39,2-4.64.04-9.18.04-13.51,0-1.46-.01-2.57-.67-3.31-1.96-.09-.15-.3-.53-.76-.74.08,0,.17,0,.25,0h9.72s0-1.93,0-1.93c.29.02.58.04.87.04.27-.05.57-.02.86-.04v1.94h10.07c-.3.13-.62.36-.81.7Z"/>
  </g>
</svg>