<?xml version="1.0" encoding="UTF-8"?>
<svg id="Layer_2" xmlns="http://www.w3.org/2000/svg" viewBox="0 0 27.78 37.83">
  <g id="Layer_1-2" data-name="Layer_1">
    <path d="M27.33,11.57c-.19-.25-.25-.48-.25-.78,0-.58-.2-1.02-.53-1.39-.45-.8-1.52-.94-1.52-.94-.2-.01-.48-.03-.75-.04-.11,0-.18-.01-.21-.15-.13-.77-.59-1.29-1.28-1.61-.65-.31-1.33-.34-2.02-.13-.73.22-1.28.67-1.59,1.37-.08.19-.18.22-.35.23-1.31.07-2.35.61-3.02,1.78-.5.89-.41,2.15.25,2.93.24.28.53.53.8.8-.14.26-.29.54-.45.81-.06.1-.12.21-.21.27-.99.71-1.99,1.42-2.99,2.12-.14.1-.29.19-.45.3-.01-.05-.02-.07-.02-.09-.03-1.17-.06-2.34-.09-3.51,0-.07.02-.15.06-.22.49-.96.99-1.92,1.48-2.87.13-.25.26-.49.4-.76.18.21.35.39.5.56.23-.38.39-.73.62-1.03.73-.94,1.72-1.4,2.88-1.53.11-.01.18-.04.24-.15.36-.66.92-1.11,1.62-1.37.66-.25,1.35-.27,2.04-.11.05.01.16-.04.17-.07.16-.64.14-1.27-.16-1.88-.4-.82-1.07-1.3-1.91-1.6-.07-.02-.15-.08-.18-.15-.45-.9-1.21-1.41-2.16-1.61-.87-.19-1.71-.06-2.5.37-.11.06-.18.04-.26-.05-.55-.6-1.26-.88-2.05-.95-.69-.05-1.34.12-1.94.49-.59.36-1,.86-1.21,1.54-.13.44-.13.88-.01,1.33-.22.14-.45.25-.66.4-1.11.82-1.72,1.89-1.5,3.31.19,1.18.9,1.99,1.96,2.5.49.24,1,.37,1.55.39.11,0,.2.02.19.18-.07.76-.14,1.52-.2,2.28-.02.19-.04.38-.06.64-.52-.62-1-1.18-1.48-1.76.36-.28.67-.56.9-.96-.98-.23-1.83-.64-2.47-1.4-.93-1.09-1.16-2.33-.66-3.67.33-.88.95-1.54,1.75-2.03.06-.04.13-.14.12-.21-.08-.76.12-1.44.59-2.04.22-.29.49-.53.74-.8-1.56-.82-3.82-.12-4.4,1.81-.4.03-.82-.09-1.2.14-.33-.08-.6.08-.87.22-1.03.5-1.67,1.3-1.75,2.47-.01.2-.08.33-.22.46-1.13,1.05-1.22,2.73-.2,3.85.56.62,1.28.97,2.12,1.04.4.03.79.03.95.5,0,.02.03.03.04.04.93,1.17,2.65,1.43,3.94.88.16-.07.26-.06.38.08.53.64,1.07,1.27,1.6,1.91.06.08.09.2.09.3-.04.63-.11,1.25-.16,1.88-.1,1.22-.18,2.44-.28,3.66,0,.09-.03.19-.04.28-.02,0-.04,0-.05.01-.38-.53-.76-1.07-1.16-1.6-.17-.23-.31-.46-.34-.77-.06-.66-.14-1.32-.24-1.98-.03-.23.01-.37.18-.54.7-.7.79-1.67.28-2.49-.19-.29-.19-.3-.52-.2-.07.02-.15.02-.23.04-1.42.37-3.16-.18-4-1.41-.08-.11-.16-.15-.29-.16-.53-.03-1.03-.16-1.51-.38-.35-.16-.35-.17-.49.18-.02.04-.03.09-.04.14-.03.14-.1.19-.25.18-.47-.03-.92.06-1.33.29-.57.32-.96.79-1.05,1.45-.1.81.24,1.43.94,1.85.1.06.13.11.09.24-.14.44-.15.89-.01,1.32.31.99,1.03,1.58,2.01,1.81.97.23,1.88.05,2.7-.55.05-.04.14-.05.2-.03.13.03.26.1.39.15.74.28,1.49.55,2.22.84.26.1.56.15.73.43.29.48.62.94.93,1.4.18.26.36.53.55.8h-1.55c-1.91,0-3.83,0-5.76,0-.49.02-.9.19-1.19.49-.3.31-.46.74-.45,1.18,0,.22,0,.44,0,.67v.33c0,1.03.64,1.68,1.67,1.68h.32s.26,1.8.26,1.8c.07.5.14,1,.21,1.5.07.5.15,1.01.23,1.53.07.47.14.94.21,1.41.06.41.11.81.17,1.22l.28-.04h0s-.27.13-.27.13l.14,1c.12.84.24,1.69.37,2.53.14.92.73,1.47,1.56,1.47.03,0,.06,0,.09,0,.35-.01.7-.02,1.05-.02,2.47,0,4.94,0,7.39,0,.35,0,.7,0,1.05.02h.07c.85,0,1.45-.55,1.58-1.47.13-.84.25-1.69.37-2.53.05-.35.1-.7.15-1.05.06-.42.11-.83.18-1.25.07-.47.14-.94.21-1.42.08-.51.15-1.01.23-1.52.07-.51.14-1.01.21-1.52l.26-1.78h.13c.44,0,.96-.04,1.4-.52.29-.31.44-.64.45-1.04,0-.17,0-.34,0-.52,0-.19,0-.37,0-.56.03-.47-.12-.9-.43-1.23-.31-.33-.76-.49-1.26-.5-1.98.02-3.96.01-5.94.01h-1.34c-.02-.85-.04-1.71-.07-2.56,0-.21.06-.34.22-.45,1.01-.75,2.02-1.5,3.03-2.25.17-.13.35-.3.54-.32.9-.1,1.81-.16,2.72-.23.05,0,.12.05.15.1.1.15.17.32.28.47.65.89,1.89,1.29,3.01,1,.67-.17,1.22-.51,1.65-1.06.05-.07.17-.11.26-.11.92.03,1.73-.24,2.4-.88.84-.81.98-2.1.29-3.04ZM6.21,16.95c.14-.25.28-.48.4-.72.07-.14.09-.29.15-.43.02-.05.11-.11.15-.1.64.14,1.26.1,1.9-.2.08.8.15,1.56.24,2.39-.97-.32-1.9-.62-2.83-.93ZM12.68,10.07c.49-.11.97-.26,1.41-.5,0,0,.03,0,.08.01-.49.95-.98,1.9-1.47,2.84-.02,0-.04-.01-.06-.02,0-.04-.02-.09-.02-.13-.01-.68-.03-1.36-.04-2.03,0-.06.05-.16.09-.17ZM2.97,23.59v-.32c0-.24,0-.49,0-.73,0-.13.04-.26.13-.35.1-.1.21-.15.35-.15.01,0,.02,0,.04,0,2.04.01,4.08.01,6.12,0h2.24s2.27,0,2.27,0c2.01,0,4.02,0,6.03-.01.19,0,.35.05.44.15.09.09.13.23.12.38-.01.22-.01.43,0,.65,0,.15,0,.3,0,.45,0,.1-.03.18-.15.31-.11.12-.22.17-.59.16H3.52c-.41,0-.55-.15-.55-.56ZM18.02,29.96c-.07.46-.14.93-.21,1.39-.06.42-.12.84-.18,1.26-.05.35-.1.7-.15,1.05-.12.84-.24,1.68-.37,2.53-.07.49-.28.52-.5.51-.36-.01-.72-.02-1.09-.02h0c-1.23,0-2.46,0-3.7,0-1.23,0-2.46,0-3.7,0-.36,0-.72,0-1.09.02-.21.01-.43-.02-.5-.51-.13-.84-.25-1.68-.37-2.53-.05-.35-.1-.69-.14-1.04-.06-.42-.12-.84-.18-1.26-.07-.47-.14-.95-.22-1.45-.07-.5-.15-.99-.22-1.49-.07-.5-.14-1-.21-1.51l-.11-.81h13.47l-.11.81c-.07.5-.14,1.01-.21,1.51-.07.5-.15,1-.23,1.55ZM19.28,14.67c-.81.03-1.61.06-2.45.09.16-.32.3-.6.45-.87.02-.03.1-.05.14-.03.59.25,1.21.28,1.86.24v.57Z"/>
  </g>
</svg>