<?xml version="1.0" encoding="UTF-8"?>
<svg id="Layer_2" data-name="Layer 2" xmlns="http://www.w3.org/2000/svg" viewBox="0 0 868.37 445.87">
  <defs>
    <style>
      .cls-1 {
        fill: #050606;
        stroke-width: 0px;
      }
    </style>
  </defs>
  <g id="Layer_1-2" data-name="Layer 1">
    <g>
      <path class="cls-1" d="M360.34,126.61c15.99-.05,31.98-.13,47.97.04,2.92.03,3.54-1.32,4.16-3.62,2.66-9.93,5.73-19.75,9.55-29.3,5.13-12.82,10.77-25.38,20.12-35.84,2.39-2.67,4.95-4.45,8.95-4.44,73.62.18,147.24.24,220.86.25,2.51,0,4.44.71,6.26,2.4,4.95,4.59,8.55,10.17,11.83,15.96,8.97,15.84,14.83,32.92,19.46,50.44.85,3.2,2.21,4.25,5.42,4.17,7.66-.19,15.32-.06,22.98-.07,8,0,15.99-.15,23.98.07,3.17.09,3.67-1.1,2.97-3.75-1.71-6.41-3.19-12.88-5.07-19.24-7.58-25.71-16.68-50.8-32.8-72.62-13.54-18.33-30.44-30.87-54.56-30.86C597.63.22,522.84.07,448.06,0c-8.27,0-16.13,1.83-23.56,5.47-15.84,7.74-26.8,20.47-35.78,35.16-15.68,25.65-24.29,54.01-31.57,82.88-.8,3.18.96,3.11,3.19,3.1Z"/>
      <path class="cls-1" d="M538.61,208.26c27.82,0,55.65-.02,83.47.09,2.33,0,3.66-.99,5.07-2.5,7.93-8.55,15.91-17.05,23.86-25.57,8.34-8.95,16.67-17.91,25.33-27.21-1.1-.23-1.54-.39-1.97-.39-28.99,0-57.98.05-86.97-.05-2.52,0-3.94,1.07-5.46,2.71-10.88,11.71-21.81,23.38-32.72,35.06-5.36,5.74-10.69,11.5-16.63,17.88h6.02Z"/>
      <path class="cls-1" d="M548.75,152.67c-28.99,0-57.98.05-86.97-.05-2.52,0-3.94,1.07-5.46,2.71-10.88,11.71-21.81,23.38-32.72,35.06-5.36,5.74-10.69,11.5-16.63,17.88h6.02c27.82,0,55.65-.02,83.47.09,2.33,0,3.66-.99,5.07-2.5,7.93-8.55,15.91-17.05,23.86-25.57,8.34-8.95,16.67-17.91,25.33-27.21-1.1-.23-1.54-.39-1.97-.39Z"/>
      <path class="cls-1" d="M369.94,208.35c2.57,0,3.92-1.34,5.4-2.92,16-17.15,32-34.29,48.02-51.41.45-.49.27-.81,0-1.36-23.39,0-46.85,0-70.31,0-6.82,0-14.5-1.86-20.22.67-5.89,2.6-9.88,9.51-14.71,14.54-.58.6-1.15,1.2-1.72,1.81-11.75,12.61-23.51,25.21-36,38.62,3.05,0,4.86,0,6.68,0,27.62,0,55.25-.05,82.87.05Z"/>
      <path class="cls-1" d="M708.07,155.22c-10.91,11.67-21.83,23.32-32.72,35.01-5.36,5.76-10.66,11.58-16.21,17.61,1.01.29,1.32.46,1.63.46,29.29-.01,58.57-.07,87.86,0,2.19,0,3.32-1.1,4.57-2.44,8.86-9.49,17.73-18.96,26.58-28.45,7.43-7.96,14.83-15.95,22.54-24.25-1.01-.27-1.44-.49-1.87-.49-29.13-.02-58.26.02-87.39-.09-2.39,0-3.64,1.19-5,2.64Z"/>
      <path class="cls-1" d="M214.12,152.59c-2.83-.01-3.67.77-3.65,3.59.11,16.14.08,32.28,0,48.43-.01,2.61.55,3.8,3.56,3.74,9.98-.2,19.97-.14,29.95-.03,1.85.02,3.06-.53,4.29-1.85,16.52-17.74,33.08-35.43,50.27-53.82-28.85,0-56.64.04-84.42-.06Z"/>
      <path class="cls-1" d="M868.28,167.92c-.14-8.6-5.98-14.66-14.62-15.15-4.64-.27-9.32.03-13.97-.16-2.41-.1-3.91.86-5.5,2.57-14.69,15.85-29.49,31.61-44.24,47.4-1.52,1.63-2.97,3.33-5.06,5.7,16.99,0,32.9.02,48.82-.01,6.82-.02,13.66.17,20.44-.32,8.45-.61,13.98-6.72,14.11-15.08.13-8.32.15-16.64.02-24.95Z"/>
      <path class="cls-1" d="M800.23,234.2c-98.48.14-196.96.1-295.44.13-1.63,0-3.33-.46-4.89.44-2.63,0-5.26.02-7.89.03-4.59,1.06-9.25-.69-13.68-.04-6.39.93-12.72.09-19.03.15-4.74.05-9.88-.36-14.45-.08-9,.55-17.97.06-26.92.17-9.58.12-19.23-.1-28.85-.41-22.97-.75-45.98-.22-68.98-.34-3.07-.02-4.29.52-4.28,4.03.11,38.99-.05,77.98.07,116.98.03,9.87,4.49,17.69,13.21,22.5,2.98,1.64,3.71,3.47,3.67,6.61-.18,15.66-.26,31.33-.11,46.99.09,9.96,4.25,13.89,13.88,13.89,12.16,0,24.33,0,36.49-.01,11,0,14.89-3.89,14.91-14.98.03-14.83.12-29.66-.08-44.49-.05-3.72.72-4.98,4.8-4.97,105.48.23,210.96.32,316.44.31,3.79,0,5.09.76,5.01,4.84-.27,15.33-.16,30.66-.12,45.99.02,9.51,4.26,13.76,13.56,13.77,12.33.01,24.68-.43,36.99.14,11.74.54,14.94-5.72,14.86-15.05-.14-15.66-.02-31.33-.04-46.99,0-2.03-.05-3.74,2.25-4.94,10.35-5.43,14.52-14.33,14.5-25.8-.08-37.66-.08-75.32.21-112.98.04-5.03-1.47-5.88-6.1-5.87ZM438.97,292.59c-.11,8.44-5.64,14.18-13.96,14.23-17.47.1-34.94.11-52.4,0-8.27-.05-13.67-5.56-13.81-13.78-.1-5.49-.1-10.98,0-16.47.16-8.23,5.57-13.62,13.86-13.72,8.82-.11,17.63-.03,26.45-.03,8.48,0,16.97-.04,25.45.02,8.69.07,14.32,5.67,14.41,14.28.05,5.16.06,10.31,0,15.47ZM752.21,293.81c-.4,7.75-5.86,12.96-13.57,13.01-17.63.09-35.27.1-52.9,0-7.72-.05-13.49-5.8-13.7-13.51-.16-5.65-.16-11.31,0-16.97.21-7.74,5.95-13.39,13.73-13.48,8.82-.11,17.63-.03,26.45-.03,8.48,0,16.97-.04,25.45,0,8.96.05,14.23,5.02,14.59,14.03.22,5.64.25,11.31-.04,16.95Z"/>
      <path class="cls-1" d="M117.63,160.7c-8.48-.06-15.22,6.56-15.31,15.04-.08,7.79,7.07,14.97,14.98,15.05,8.3.08,15.28-6.91,15.21-15.21-.07-8.31-6.58-14.82-14.88-14.88Z"/>
      <path class="cls-1" d="M235,395.66c.04-3.33-.91-4.2-4.15-4.15-12.32.18-24.66-.1-36.98.19-3.99.09-4.94-1.04-4.93-4.93.15-37.98.09-75.96.09-113.94,0-36.15,0-72.3,0-108.45,0-3.83-.24-7.62-.81-11.43-6.81-46.03-55.46-73.56-98.22-55.5-26.96,11.38-43.99,36.86-44,66.1-.04,74.3-.05,148.59.07,222.89,0,4.09-1.02,5.38-5.21,5.28-12.32-.28-24.65,0-36.98-.17-3.02-.04-3.92.66-3.88,3.82.19,15.32.19,30.65,0,45.98-.04,3.43.78,4.46,4.36,4.45,75.46-.11,150.92-.12,226.39-.02,3.29,0,4.3-.8,4.26-4.13-.17-15.32-.19-30.65,0-45.98ZM117.02,206.49c-16.56-.12-30.01-13.88-30.13-30.83-.12-16.88,13.24-30.57,30.03-30.78,17.15-.21,31.05,13.25,31.18,30.2.14,17.62-13.63,31.54-31.08,31.42Z"/>
    </g>
  </g>
</svg>