<?xml version="1.0" encoding="UTF-8"?>
<svg id="Layer_2" xmlns="http://www.w3.org/2000/svg" viewBox="0 0 45.56 34.65">
  <g id="Layer_1-2" data-name="Layer_1">
    <path d="M.83,8.41c1.66.44,3.27.86,5.04,1.33.77-2.1,1.52-4.15,2.27-6.21C9.19.66,10.12,0,13.13,0c6.48,0,12.96,0,19.44,0,2.73,0,3.76.73,4.72,3.31.78,2.1,1.55,4.21,2.36,6.41,1.74-.45,3.38-.88,5-1.3,1.46,3.38,1.43,3.44-2.04,4.77,1.82,1.69,1.81,3.86,1.78,6.07-.06,4.32-.07,8.64-.11,12.95-.02,2.02-.41,2.4-2.48,2.41-1.15,0-2.29,0-3.63,0v-4.46c-.7,0-1.22,0-1.73,0-9.17,0-18.33.03-27.5-.03-1.27,0-1.74.33-1.6,1.61.1.89.02,1.8.02,2.87-1.61,0-3.08.05-4.55-.02-1-.05-1.58-.66-1.58-1.7,0-5.52-.05-11.04.11-16.55.03-1.08.87-2.15,1.33-3.23q-3.14-1.39-1.83-4.72ZM7.91,11.19c10.01-1.57,19.73-1.56,29.71,0-1.05-2.82-1.95-5.39-2.99-7.89-.18-.42-.97-.84-1.47-.84-6.95-.05-13.9-.06-20.85,0-.53,0-1.33.51-1.53.99-1,2.42-1.84,4.91-2.87,7.74ZM13.84,20.06c-2.4-.96-4.64-1.87-6.9-2.76-1.28-.5-2.07.38-2.83,1.14-.68.69-.71,1.53-.14,2.35,1.81,2.6,7.98,2.47,9.69-.21.1-.15.12-.34.18-.52ZM31.68,20.08c.12.26.18.49.32.67,1.82,2.47,7.62,2.62,9.39.14.39-.54.44-1.88.06-2.28-.67-.69-1.95-1.49-2.72-1.28-2.37.65-4.61,1.75-7.05,2.74ZM22.75,27.19h0c1.97,0,3.94-.02,5.9,0,.98,0,1.37-.46,1.36-1.42-.01-.97-.55-1.21-1.39-1.2-3.89.02-7.77.02-11.66,0-.96,0-1.39.3-1.39,1.32,0,1.05.5,1.32,1.43,1.31,1.92-.03,3.84,0,5.76,0Z"/>
  </g>
</svg>