<svg id="Component_13_2" data-name="Component 13 – 2" xmlns="http://www.w3.org/2000/svg" width="31.176" height="34.625" viewBox="0 0 31.176 34.625">
  <path id="Icon_simple-googleforms" data-name="Icon simple-googleforms" d="M20.891,8.372h8.372L20.891,0Zm0,1.014H19.876V0H7.194A2.282,2.282,0,0,0,4.91,2.283V31.2a2.282,2.282,0,0,0,2.283,2.283H26.98A2.282,2.282,0,0,0,29.262,31.2V9.386H20.891ZM11.379,24.163a1.143,1.143,0,1,1,1.144-1.143,1.143,1.143,0,0,1-1.144,1.143Zm0-4.567a1.143,1.143,0,1,1,1.1-1.142,1.143,1.143,0,0,1-1.1,1.142Zm0-4.565a1.143,1.143,0,1,1,1.144-1.143,1.143,1.143,0,0,1-1.144,1.143Zm12.557,8.942H14.424v-1.9h9.513Zm0-4.567H14.424V17.5h9.513Zm0-4.567H14.424v-1.9h9.513v1.9Z" transform="translate(-4.91)" fill="#46546b"/>
  <circle id="Ellipse_20" data-name="Ellipse 20" cx="6.5" cy="6.5" r="6.5" transform="translate(18.176 21.625)" fill="#fff"/>
  <path id="Icon_ion-plus-round" data-name="Icon ion-plus-round" d="M12.961,8.331h-3.1v-3.1a.767.767,0,0,0-1.532,0v3.1h-3.1a.767.767,0,0,0,0,1.532h3.1v3.1a.767.767,0,0,0,1.532,0v-3.1h3.1a.767.767,0,0,0,0-1.532Z" transform="translate(15.256 19.029)" fill="#428d00"/>
</svg>
