<?xml version="1.0" encoding="UTF-8"?>
<svg id="Layer_2" data-name="Layer 2" xmlns="http://www.w3.org/2000/svg" viewBox="0 0 33.37 35.23">
  <defs>
    <style>
      .cls-1 {
        fill: #303c50;
      }
    </style>
  </defs>
  <g id="Layer_1-2" data-name="Layer 1">
    <g>
      <path class="cls-1" d="M13.21,5.26h10.3c.28,0,.5-.22.5-.5s-.22-.5-.5-.5h-10.3c-.28,0-.5.22-.5.5s.22.5.5.5Z"/>
      <path class="cls-1" d="M28.1,8.85h-14.89c-.28,0-.5.22-.5.5s.22.5.5.5h14.89c.28,0,.5-.22.5-.5s-.22-.5-.5-.5Z"/>
      <path class="cls-1" d="M28.1,13.43h-9.74c-.28,0-.5.22-.5.5s.22.5.5.5h9.74c.28,0,.5-.22.5-.5s-.22-.5-.5-.5Z"/>
      <path class="cls-1" d="M28.1,18.02h-5.93c-.28,0-.5.22-.5.5s.22.5.5.5h5.93c.28,0,.5-.22.5-.5s-.22-.5-.5-.5Z"/>
      <path class="cls-1" d="M28.1,22.6h-5.93c-.28,0-.5.22-.5.5s.22.5.5.5h5.93c.28,0,.5-.22.5-.5s-.22-.5-.5-.5Z"/>
      <path class="cls-1" d="M28.1,27.18h-7.44c-.28,0-.5.22-.5.5s.22.5.5.5h7.44c.28,0,.5-.22.5-.5s-.22-.5-.5-.5Z"/>
      <path class="cls-1" d="M17.36,18.92c-.2-.2-.51-.2-.71,0l-4.71,4.71-2.18-2.18c-.2-.2-.51-.2-.71,0s-.2.51,0,.71l2.53,2.53c.1.1.23.15.35.15s.26-.05.35-.15l5.06-5.06c.2-.2.2-.51,0-.71Z"/>
      <path class="cls-1" d="M32.89,7.56L26.33.57c-.34-.36-.81-.57-1.31-.57h-14.45c-.85,0-1.54.69-1.54,1.54v13.56c-2.24,1.4-3.73,3.88-3.73,6.7,0,2.06.8,3.92,2.09,5.33l-1.07,1.07c-.52-.23-1.15-.14-1.57.28L.41,32.82c-.55.55-.55,1.44,0,2s1.44.55,2,0l4.34-4.34c.43-.43.51-1.05.28-1.57l1.08-1.08c.29.25.6.48.92.69v1.83c0,.85.69,1.54,1.54,1.54h21.26c.85,0,1.54-.69,1.54-1.54V8.78c0-.46-.17-.89-.49-1.23ZM6.3,21.8c0-3.81,3.1-6.91,6.91-6.91s6.91,3.1,6.91,6.91-3.1,6.91-6.91,6.91-6.91-3.1-6.91-6.91ZM32.37,30.34c0,.3-.24.54-.54.54H10.58c-.3,0-.54-.24-.54-.54v-1.3c.97.43,2.04.67,3.17.67,4.36,0,7.91-3.55,7.91-7.91s-3.55-7.91-7.91-7.91c-1.13,0-2.2.24-3.17.67V1.54c0-.3.24-.54.54-.54h14.45c.22,0,.43.09.58.25l6.56,6.99c.14.15.21.34.21.54v21.56Z"/>
    </g>
  </g>
</svg>