<?xml version="1.0" encoding="UTF-8"?>
<svg id="Layer_2" data-name="Layer 2" xmlns="http://www.w3.org/2000/svg" viewBox="0 0 20.25 20.29">
  <defs>
    <style>
      .cls-1 {
        fill: #000;
        stroke-width: 0px;
      }
    </style>
  </defs>
  <g id="Layer_1-2" data-name="Layer 1">
    <g>
      <path class="cls-1" d="M10.13,0C4.56,0,0,4.56,0,10.13c0,5.58,4.53,10.13,10.11,10.15,5.6.02,10.15-4.54,10.14-10.17C20.24,4.51,15.73,0,10.13,0ZM10.63,3.27s.1.04.14.06c-.06.27-.12.53-.19.8-.07.28-.15.56-.24.9.35.02.66.03,1.13.05-.65.91-1.24,1.75-1.83,2.58-.06-.02-.11-.04-.17-.06.14-.54.28-1.08.44-1.67-.34-.03-.65-.05-1.12-.09.65-.92,1.24-1.75,1.83-2.58ZM14.89,12.98c-.29,2.54-2.62,4.22-5.23,4.02-2.39-.18-4.35-2.29-4.38-4.74-.02-1.58,0-3.17-.01-4.75,0-.39.12-.53.51-.51.5.03,1,.02,1.49,0,.37-.02.48.13.47.48-.01,1.55-.02,3.1,0,4.64.02,1.68,1.55,2.8,3.12,2.32,1.02-.31,1.68-1.23,1.69-2.4.01-1.46,0-2.91,0-4.37,0-.2,0-.4,0-.68.78,0,1.46-.01,2.14.01.11,0,.3.18.3.28,0,1.9.11,3.81-.1,5.68Z"/>
      <path class="cls-1" d="M5.64,8.73h1.72v-1.33h-1.72v1.33Z"/>
      <path class="cls-1" d="M12.92,8.73h1.71v-1.33h-1.71v1.33Z"/>
    </g>
  </g>
</svg>