<?xml version="1.0" encoding="UTF-8" standalone="no"?>
<svg
   id="Layer_2"
   data-name="Layer 2"
   viewBox="0 0 24.69 24.71"
   version="1.1"
   sodipodi:docname="cancel.svg"
   inkscape:version="1.3.2 (091e20e, 2023-11-25, custom)"
   xmlns:inkscape="http://www.inkscape.org/namespaces/inkscape"
   xmlns:sodipodi="http://sodipodi.sourceforge.net/DTD/sodipodi-0.dtd"
   xmlns="http://www.w3.org/2000/svg"
   xmlns:svg="http://www.w3.org/2000/svg">
  <sodipodi:namedview
     id="namedview1"
     pagecolor="#ffffff"
     bordercolor="#000000"
     borderopacity="0.25"
     inkscape:showpageshadow="2"
     inkscape:pageopacity="0.0"
     inkscape:pagecheckerboard="0"
     inkscape:deskcolor="#d1d1d1"
     inkscape:zoom="32.90166"
     inkscape:cx="12.355"
     inkscape:cy="12.355"
     inkscape:window-width="1920"
     inkscape:window-height="1009"
     inkscape:window-x="1912"
     inkscape:window-y="-8"
     inkscape:window-maximized="1"
     inkscape:current-layer="Layer_1-2" />
  <defs
     id="defs1">
    <style
       id="style1">
      .cls-1 {
        stroke-width: 0px;
      }
    </style>
  </defs>
  <g
     id="Layer_1-2"
     data-name="Layer 1">
    <path
       class="cls-1"
       d="M23.78,19.64c-2.31-2.32-4.63-4.63-6.95-6.95-.11-.11-.22-.23-.35-.37.13-.13.23-.25.35-.37,2.28-2.29,4.57-4.57,6.85-6.86.73-.73,1.02-1.6.83-2.61-.22-1.12-.9-1.88-1.99-2.2-1.08-.32-2.06-.06-2.87.74-2.3,2.29-4.59,4.59-6.89,6.88-.11.11-.23.22-.41.39-.13-.17-.22-.31-.33-.42C9.7,5.56,7.39,3.24,5.07.93,4.06-.08,2.72-.28,1.55.38-.14,1.34-.4,3.56,1.03,4.99c2.32,2.33,4.65,4.65,6.98,6.98.11.11.22.23.37.39-.16.14-.3.23-.42.35-2.35,2.35-4.7,4.69-7.04,7.04-.81.81-1.11,1.78-.79,2.9.62,2.11,3.22,2.75,4.8,1.19,2.38-2.36,4.74-4.73,7.11-7.1.11-.11.23-.22.4-.38.25.27.47.52.71.76,2.19,2.19,4.37,4.39,6.57,6.57,1.34,1.33,3.38,1.17,4.44-.31.82-1.15.67-2.68-.38-3.74Z"
       id="path1"
       style="fill:#000000;fill-opacity:0.56521738;stroke-width:0.1;stroke-dasharray:none" />
  </g>
</svg>
