<?xml version="1.0" encoding="UTF-8"?>
<svg id="Layer_2" xmlns="http://www.w3.org/2000/svg" xmlns:xlink="http://www.w3.org/1999/xlink" viewBox="0 0 30.99 23.16">
  <defs>
    <style>
      .cls-1 {
        fill: #303c50;
      }

      .cls-2 {
        fill: none;
      }

      .cls-3 {
        clip-path: url(#clippath);
      }
    </style>
    <clipPath id="clippath">
      <rect class="cls-2" x="0" y="0" width="30.99" height="23.15"/>
    </clipPath>
  </defs>
  <g id="Layer_1-2" data-name="Layer_1">
    <g id="Group_2719">
      <g class="cls-3">
        <g id="Group_2528">
          <path id="Path_6657" class="cls-1" d="M15.5,23.15H3.43c-1.3.08-2.42-.9-2.51-2.21,0,0,0,0,0,0v-.14c-.17-2.23-.35-4.45-.52-6.68C.27,12.37.14,10.61,0,8.86c-.04-.75.4-1.43,1.09-1.71.18-.05.3-.23.26-.41-.02-1.5-.03-3-.02-4.49-.01-1.02.68-1.92,1.66-2.17C3.2.03,3.4,0,3.6,0h6.12c.97-.05,1.86.57,2.15,1.5.04.08.11.13.2.14.22.02.45,0,.67,0h14.46c1.17-.06,2.19.78,2.38,1.93.02.26.2.49.45.57.63.3,1.01.96.95,1.66-.15,2.35-.29,4.7-.44,7.05-.12,1.95-.25,3.91-.38,5.86-.05.74-.09,1.47-.14,2.21-.05,1.26-1.11,2.25-2.37,2.21h-12.16M28.47,3.92c-.01-.08-.02-.16-.04-.24-.15-.56-.69-.93-1.27-.87H2.76c-.08,0-.16,0-.23,0-.01.03-.02.06-.02.09,0,1.31,0,2.62,0,3.93,0,.15.08.16.2.16,1.32,0,2.64-.02,3.95-.02h6.7c1.24.01,2.43-.46,3.32-1.31,1.23-1.17,2.87-1.8,4.57-1.74,2.29.03,4.59,0,6.88,0,.11,0,.22,0,.35-.02"/>
        </g>
      </g>
    </g>
  </g>
</svg>