<?xml version="1.0" encoding="UTF-8" standalone="no"?>
<svg
   width="30.988"
   height="23.15"
   viewBox="0 0 30.988 23.15"
   version="1.1"
   id="svg1"
   sodipodi:docname="CASE.svg"
   inkscape:version="1.3.2 (091e20e, 2023-11-25, custom)"
   xmlns:inkscape="http://www.inkscape.org/namespaces/inkscape"
   xmlns:sodipodi="http://sodipodi.sourceforge.net/DTD/sodipodi-0.dtd"
   xmlns="http://www.w3.org/2000/svg"
   xmlns:svg="http://www.w3.org/2000/svg">
  <defs
     id="defs1" />
  <sodipodi:namedview
     id="namedview1"
     pagecolor="#ffffff"
     bordercolor="#000000"
     borderopacity="0.25"
     inkscape:showpageshadow="2"
     inkscape:pageopacity="0.0"
     inkscape:pagecheckerboard="0"
     inkscape:deskcolor="#d1d1d1"
     inkscape:zoom="35.118791"
     inkscape:cx="15.50452"
     inkscape:cy="11.575"
     inkscape:window-width="1920"
     inkscape:window-height="1009"
     inkscape:window-x="1912"
     inkscape:window-y="-8"
     inkscape:window-maximized="1"
     inkscape:current-layer="Group_448" />
  <g
     id="Group_448"
     data-name="Group 448"
     transform="translate(-2655 -2645)">
    <path
       id="Path_73"
       data-name="Path 73"
       d="M20.127,112.387H8.059a2.362,2.362,0,0,1-2.512-2.348c-.168-2.228-.348-4.455-.518-6.684q-.2-2.629-.392-5.259a1.728,1.728,0,0,1,1.09-1.709.365.365,0,0,0,.265-.412c-.017-1.5-.03-3-.019-4.492a2.213,2.213,0,0,1,1.665-2.17,2.387,2.387,0,0,1,.595-.072q3.062-.007,6.124,0a2.131,2.131,0,0,1,2.146,1.5.283.283,0,0,0,.2.143c.223.02.446.01.67.01H31.835a2.292,2.292,0,0,1,2.375,1.931.671.671,0,0,0,.452.575,1.688,1.688,0,0,1,.954,1.657q-.221,3.523-.439,7.049c-.124,1.955-.255,3.909-.383,5.864-.048.736-.086,1.472-.139,2.209a2.3,2.3,0,0,1-2.371,2.211c-1.967,0-3.934,0-5.9,0q-3.128,0-6.258,0M33.106,93.158a2.279,2.279,0,0,0-.044-.238,1.186,1.186,0,0,0-1.272-.87H7.391c-.079,0-.158.007-.232.01a.4.4,0,0,0-.024.085c0,1.311,0,2.622-.007,3.934,0,.151.077.163.2.163q1.977-.014,3.955-.019,3.351-.005,6.7,0a4.723,4.723,0,0,0,3.32-1.309,6.343,6.343,0,0,1,4.568-1.745c2.293.03,4.588.007,6.882.006.109,0,.218-.009.352-.015"
       transform="translate(2650.368 2555.761)"
       fill="#00062d"
       style="fill:#ffffff;fill-opacity:1" />
  </g>
</svg>
