<?xml version="1.0" encoding="UTF-8" standalone="no"?>
<svg
   id="Layer_2"
   data-name="Layer 2"
   viewBox="0 0 30.51 30.76"
   version="1.1"
   sodipodi:docname="edit.svg"
   inkscape:version="1.3.2 (091e20e, 2023-11-25, custom)"
   xmlns:inkscape="http://www.inkscape.org/namespaces/inkscape"
   xmlns:sodipodi="http://sodipodi.sourceforge.net/DTD/sodipodi-0.dtd"
   xmlns="http://www.w3.org/2000/svg"
   xmlns:svg="http://www.w3.org/2000/svg">
  <sodipodi:namedview
     id="namedview2"
     pagecolor="#ffffff"
     bordercolor="#000000"
     borderopacity="0.25"
     inkscape:showpageshadow="2"
     inkscape:pageopacity="0.0"
     inkscape:pagecheckerboard="0"
     inkscape:deskcolor="#d1d1d1"
     inkscape:zoom="26.430429"
     inkscape:cx="15.266495"
     inkscape:cy="15.38"
     inkscape:window-width="1920"
     inkscape:window-height="1009"
     inkscape:window-x="1912"
     inkscape:window-y="-8"
     inkscape:window-maximized="1"
     inkscape:current-layer="g2" />
  <defs
     id="defs1">
    <style
       id="style1">
      .cls-1 {
        stroke-width: 0px;
      }
    </style>
  </defs>
  <g
     id="Layer_1-2"
     data-name="Layer 1">
    <g
       id="g2">
      <path
         class="cls-1"
         d="M27.88,13.56c-.19-.64-.86-1.06-1.48-.96-.73.11-1.23.65-1.24,1.36-.01,1.16,0,2.32,0,3.48,0,3.08,0,6.16,0,9.25,0,.43-.1.84-.49,1.06-.22.13-.51.2-.76.2-6.61.01-13.23,0-19.84,0-.08,0-.17.02-.24,0-.22-.08-.46-.14-.64-.28-.33-.24-.37-.61-.37-1,0-6.04,0-12.09,0-18.13,0-.6-.03-1.2.01-1.8.02-.25.12-.53.27-.74.24-.34.62-.4,1.02-.4,4.16,0,8.33,0,12.49,0,.18,0,.36,0,.53-.05.66-.17,1.12-.83,1.04-1.46-.09-.79-.67-1.29-1.5-1.29-4.24,0-8.49-.01-12.73,0-1.8,0-3.29,1.15-3.79,2.82-.06.19-.1.38-.15.58v21.19c.08.28.14.58.26.85.55,1.33,1.53,2.15,2.95,2.45.06.01.11.04.16.06h21.19s.07-.04.11-.05c2.02-.4,3.29-1.94,3.29-4.01,0-4.17,0-8.35,0-12.52,0-.21-.02-.42-.08-.62Z"
         id="path1"
         style="fill:#3cb133;fill-opacity:1" />
      <path
         class="cls-1"
         d="M29.98,4.26c-1.24-1.24-2.47-2.48-3.71-3.71-.73-.72-1.51-.72-2.23,0-6.46,6.53-12.91,13.07-19.37,19.6-.32.32-.49.69-.48,1.15,0,1.26,0,2.52,0,3.78,0,.92.56,1.47,1.48,1.48.63,0,1.26,0,1.89,0,.6,0,1.2-.01,1.8,0,.53.02.94-.17,1.31-.54,6.44-6.52,12.88-13.04,19.32-19.56.7-.71.7-1.5,0-2.21ZM23.98,8.56c-4.93,4.99-9.86,9.98-14.78,14.97-.18.18-.35.25-.6.25-.52-.02-1.04,0-1.6,0,0-.65,0-1.28,0-1.9,0-.09.1-.19.18-.26,3.38-3.42,6.76-6.85,10.14-10.27,1.55-1.57,3.11-3.14,4.66-4.72.06-.06.12-.13.17-.2.67.67,1.31,1.31,1.97,1.97-.04.04-.09.11-.16.17ZM26.15,6.3c-.63-.63-1.27-1.28-1.9-1.9.3-.29.62-.59.91-.88.59.59,1.24,1.23,1.91,1.9-.3.28-.61.59-.92.88Z"
         id="path2"
         style="fill:#3cb133;fill-opacity:1" />
    </g>
  </g>
</svg>
