<?xml version="1.0" encoding="UTF-8"?>
<svg id="Layer_2" data-name="Layer 2" xmlns="http://www.w3.org/2000/svg" viewBox="0 0 18.36 18.23">
  <defs>
    <style>
      .cls-1 {
        fill: #000;
        stroke-width: 0px;
      }
    </style>
  </defs>
  <g id="Layer_1-2" data-name="Layer 1">
    <g>
      <path class="cls-1" d="M16.53,6.56H1.83c-1.01,0-1.83.82-1.83,1.83v1.46c0,1.01.82,1.83,1.83,1.83h14.7c1.01,0,1.83-.82,1.83-1.83v-1.46c0-1.01-.82-1.83-1.83-1.83ZM17.14,9.15c0,.72-.59,1.31-1.31,1.31H2.53c-.72,0-1.31-.59-1.31-1.31v-.06c0-.72.59-1.31,1.31-1.31h13.3c.72,0,1.31.59,1.31,1.31v.06Z"/>
      <path class="cls-1" d="M16.53,13.11H1.83c-1.01,0-1.83.82-1.83,1.83v1.46c0,1.01.82,1.83,1.83,1.83h14.7c1.01,0,1.83-.82,1.83-1.83v-1.46c0-1.01-.82-1.83-1.83-1.83ZM17.14,15.7c0,.72-.59,1.31-1.31,1.31H2.53c-.72,0-1.31-.59-1.31-1.31v-.06c0-.72.59-1.31,1.31-1.31h13.3c.72,0,1.31.59,1.31,1.31v.06Z"/>
      <path class="cls-1" d="M16.53,0H1.83C.82,0,0,.82,0,1.83v1.46c0,1.01.82,1.83,1.83,1.83h14.7c1.01,0,1.83-.82,1.83-1.83v-1.46c0-1.01-.82-1.83-1.83-1.83ZM17.14,2.59c0,.72-.59,1.31-1.31,1.31H2.53c-.72,0-1.31-.59-1.31-1.31v-.06c0-.72.59-1.31,1.31-1.31h13.3c.72,0,1.31.59,1.31,1.31v.06Z"/>
    </g>
  </g>
</svg>