<?xml version="1.0" encoding="UTF-8"?>
<svg id="Layer_2" xmlns="http://www.w3.org/2000/svg" viewBox="0 0 35.24 35.24">
  <defs>
    <style>
      .cls-1 {
        fill: #f04b48;
      }
    </style>
  </defs>
  <g id="Layer_1-2" data-name="Layer_1">
    <g>
      <path class="cls-1" d="M17.62,0C7.9,0,0,7.9,0,17.62s7.9,17.62,17.62,17.62,17.62-7.9,17.62-17.62S27.33,0,17.62,0ZM17.62,32.24c-8.06,0-14.62-6.56-14.62-14.62S9.56,3,17.62,3s14.62,6.56,14.62,14.62-6.56,14.62-14.62,14.62Z"/>
      <path class="cls-1" d="M26.33,8.86c-.59-.59-1.54-.59-2.12,0l-6.64,6.64-6.64-6.64c-.59-.59-1.54-.59-2.12,0-.59.59-.59,1.54,0,2.12l6.64,6.64-6.64,6.64c-.59.59-.59,1.54,0,2.12.29.29.68.44,1.06.44s.77-.15,1.06-.44l6.64-6.64,6.64,6.64c.29.29.68.44,1.06.44s.77-.15,1.06-.44c.59-.59.59-1.54,0-2.12l-6.64-6.64,6.64-6.64c.59-.59.59-1.54,0-2.12Z"/>
    </g>
  </g>
</svg>