<svg xmlns="http://www.w3.org/2000/svg" width="35.434" height="31.5" viewBox="0 0 35.434 31.5">
  <path id="Icon_awesome-file-export" data-name="Icon awesome-file-export" d="M23.625,7.5a1.472,1.472,0,0,0-.431-1.04L17.171.431A1.475,1.475,0,0,0,16.125,0H15.75V7.875h7.875Zm11.5,11.45-5.888-5.931a.987.987,0,0,0-1.686.7v4.005H23.619v3.938h3.938v4.011a.987.987,0,0,0,1.686.7l5.888-5.937A1.047,1.047,0,0,0,35.13,18.949ZM11.813,20.672V18.7a.987.987,0,0,1,.984-.984H23.625V9.844H15.258a1.481,1.481,0,0,1-1.477-1.477V0H1.477A1.473,1.473,0,0,0,0,1.477V30.023A1.473,1.473,0,0,0,1.477,31.5H22.148a1.473,1.473,0,0,0,1.477-1.477V21.656H12.8A.987.987,0,0,1,11.813,20.672Z" fill="#e3e3e3"/>
</svg>
