<?xml version="1.0" encoding="UTF-8"?>
<svg id="Layer_2" xmlns="http://www.w3.org/2000/svg" viewBox="0 0 24.35 33.49">
  <defs>
    <style>
      .cls-1 {
        fill: #303c50;
      }
    </style>
  </defs>
  <g id="Layer_1-2" data-name="Layer_1">
    <g>
      <path class="cls-1" d="M24.35,8.37L15.98,0v7.42c0,.52.43.95.95.95h7.42,0Z"/>
      <path class="cls-1" d="M14.97,0H2.28C1.02,0,0,1.02,0,2.28v28.92c0,1.26,1.02,2.28,2.28,2.29h20.05c1.12,0,2.02-.9,2.02-2.02V9.39h-8.44c-.52,0-.95-.43-.95-.95V0ZM10.46,17.5h7.61c.52,0,.95.42.95.95h0c0,.53-.43.95-.95.95h-7.61c-.52,0-.95-.43-.95-.95h0c0-.52.43-.95.95-.95ZM6.47,24.16c-.63,0-1.14-.51-1.14-1.14s.51-1.14,1.14-1.14c.63,0,1.14.51,1.14,1.14,0,.63-.51,1.14-1.14,1.14ZM5.29,18.46c0-.63.51-1.14,1.14-1.14h.04c.59.03,1.07.5,1.09,1.1.03.63-.46,1.16-1.09,1.19h-.04c-.63,0-1.14-.51-1.14-1.14ZM6.47,15.03c-.63,0-1.14-.51-1.15-1.14,0-.63.51-1.14,1.14-1.15h0c.63,0,1.14.51,1.14,1.14s-.51,1.14-1.14,1.14ZM10.46,22.07h7.61c.52,0,.95.43.95.95h0c0,.52-.43.95-.95.95h-7.61c-.52,0-.95-.43-.95-.95h0c0-.52.43-.95.95-.95ZM19.03,13.89h0c0,.52-.43.95-.95.95h-7.61c-.52,0-.95-.43-.95-.95h0c0-.52.43-.95.95-.95h7.61c.52,0,.95.43.95.95Z"/>
    </g>
  </g>
</svg>