<?xml version="1.0" encoding="UTF-8"?>
<svg id="Layer_2" data-name="Layer 2" xmlns="http://www.w3.org/2000/svg" viewBox="0 0 22.02 22.01">
  <defs>
    <style>
      .cls-1 {
        fill: #000;
        stroke-width: 0px;
      }
    </style>
  </defs>
  <g id="Layer_1-2" data-name="Layer 1">
    <g>
      <path class="cls-1" d="M21.98,10.74c-.16-.32-.44-.48-.83-.47-.31.01-.62,0-.95,0-.05,0-.09,0-.14,0-.2-2.23-1.09-4.14-2.63-5.69-1.55-1.55-3.47-2.44-5.7-2.65,0-.04,0-.08,0-.13,0-.32,0-.64,0-.96.01-.39-.14-.67-.47-.83l-.06-.03h-.39l-.06.03c-.32.16-.48.44-.47.83.01.32,0,.64,0,.96,0,.04,0,.08,0,.13-2.24.21-4.16,1.1-5.71,2.65-1.54,1.55-2.43,3.46-2.63,5.69-.06,0-.11,0-.17,0-.36,0-.69,0-1.04,0-.23,0-.43.09-.57.24-.13.15-.2.35-.17.57.04.37.35.63.74.64.35,0,.71,0,1.05,0h.15c.2,2.23,1.09,4.15,2.65,5.7,1.55,1.54,3.46,2.43,5.69,2.63,0,.06,0,.11,0,.17,0,.36,0,.69,0,1.04,0,.23.09.43.24.57.13.12.3.18.48.18.03,0,.06,0,.09,0,.37-.04.64-.34.64-.74,0-.35,0-.71,0-1.05,0-.05,0-.1,0-.15,2.23-.2,4.15-1.09,5.7-2.65,1.55-1.55,2.43-3.46,2.64-5.69.05,0,.09,0,.14,0,.33,0,.64,0,.95,0,.39.01.67-.14.83-.47l.03-.06v-.39l-.03-.06ZM10.27,4.02c-3.53.61-5.63,2.71-6.25,6.25h-.59c.24-3.5,3.27-6.54,6.84-6.85v.6ZM5.53,10.27c.25-2.39,2.32-4.47,4.74-4.74v.62c-2.27.47-3.66,1.86-4.12,4.13h-.62ZM10.27,16.48c-2.13-.19-4.46-2.14-4.74-4.74h.62c.46,2.26,1.85,3.65,4.12,4.13v.61ZM10.28,17.99v.59c-3.14-.21-6.51-2.91-6.86-6.84h.6c.61,3.53,2.72,5.63,6.26,6.25ZM14.46,11.01c0,.92-.36,1.78-1.02,2.44-.66.65-1.52,1.01-2.43,1.01h0c-1.91,0-3.45-1.55-3.45-3.46,0-1.9,1.55-3.45,3.45-3.45h0c.92,0,1.78.36,2.44,1.02.66.66,1.02,1.52,1.01,2.44ZM18.59,10.27h-.6c-.61-3.53-2.71-5.63-6.25-6.25v-.59c3.52.25,6.55,3.29,6.85,6.84ZM11.74,17.97c1.65-.19,3.06-.87,4.22-2.02,1.15-1.15,1.82-2.56,2.01-4.2h.62c-.27,3.53-3.3,6.56-6.85,6.85v-.62ZM15.86,11.74h.62c-.24,2.39-2.31,4.46-4.74,4.74v-.63c1.06-.17,1.98-.64,2.72-1.38.75-.75,1.22-1.67,1.39-2.74ZM11.75,5.53c2.14.19,4.47,2.14,4.74,4.74h-.62c-.46-2.26-1.85-3.65-4.12-4.13v-.61Z"/>
      <path class="cls-1" d="M11.77,8.94c0-.45-.32-.78-.75-.79-.21,0-.4.07-.55.21-.15.15-.23.35-.23.58,0,.68,0,1.37,0,2.04,0,.45.32.78.75.79,0,0,0,0,0,0,.21,0,.4-.08.54-.21.15-.15.23-.35.23-.58,0-.24,0-.47,0-.71,0-.1,0-.21,0-.31s0-.21,0-.31c0-.24,0-.47,0-.71Z"/>
      <path class="cls-1" d="M11.02,12.33c-.21,0-.41.07-.55.22-.15.14-.23.34-.23.54,0,.42.33.76.75.77,0,0,0,0,.01,0,.21,0,.4-.08.54-.22.15-.14.23-.34.23-.54,0-.42-.33-.76-.75-.77Z"/>
    </g>
  </g>
</svg>