<svg id="Group_2523" data-name="Group 2523" xmlns="http://www.w3.org/2000/svg" xmlns:xlink="http://www.w3.org/1999/xlink" width="37.667" height="30.686" viewBox="0 0 37.667 30.686">
  <defs>
    <clipPath id="clip-path">
      <rect id="Rectangle_1235" data-name="Rectangle 1235" width="37.667" height="30.686" fill="#f5f5f5"/>
    </clipPath>
  </defs>
  <g id="Group_2522" data-name="Group 2522" clip-path="url(#clip-path)">
    <path id="Path_6639" data-name="Path 6639" d="M101.114,8.813a9.213,9.213,0,0,1-2.339,6.27c-.875,1.041-1.8,2.041-2.693,3.065a17.086,17.086,0,0,0-3.056,4.781.63.63,0,0,1-1.2,0,18.641,18.641,0,0,0-3.5-5.294c-.963-1.082-1.939-2.161-2.814-3.313A8.66,8.66,0,0,1,83.756,8.2,8.831,8.831,0,0,1,89.687.472a8.4,8.4,0,0,1,8,1.33,8.477,8.477,0,0,1,3.421,6.133.9.9,0,0,1,.006.09q0,.394,0,.789m-4.09-.1a4.6,4.6,0,1,0-4.468,4.593,4.606,4.606,0,0,0,4.468-4.593" transform="translate(-73.593 0)" fill="#f5f5f5"/>
    <path id="Path_6640" data-name="Path 6640" d="M168.783,172.3a20.125,20.125,0,0,1,1.856-2.975.387.387,0,0,1,.227-.122c1.477-.263,2.956-.52,4.434-.78q3.092-.545,6.183-1.1c.164-.03.221.013.284.153q2.029,4.482,4.066,8.961a2.838,2.838,0,0,1,.173.462.638.638,0,0,1-.481.812,1.672,1.672,0,0,1-.4.045q-3.348,0-6.7,0a.756.756,0,0,1-.36-.091q-4.579-2.634-9.152-5.279c-.038-.022-.074-.048-.132-.087" transform="translate(-148.364 -147.077)" fill="#f5f5f5"/>
    <path id="Path_6641" data-name="Path 6641" d="M25,203.688H.937a1.74,1.74,0,0,1-.225-.008A.691.691,0,0,1,.1,202.618c.549-1.243,1.116-2.478,1.685-3.712a.362.362,0,0,1,.238-.159c.967-.178,1.936-.343,2.9-.515l6.028-1.07c.672-.119,1.345-.237,2.018-.348a.412.412,0,0,1,.253.045c1.769,1.022,3.532,2.053,5.3,3.074,1.658.958,3.322,1.907,4.982,2.86q.664.381,1.326.767c.042.024.078.057.172.126" transform="translate(0 -173.002)" fill="#f5f5f5"/>
    <path id="Path_6642" data-name="Path 6642" d="M22.638,162.17l2.154-4.74,5.78,3.338-7.934,1.4" transform="translate(-19.899 -138.385)" fill="#f5f5f5"/>
    <path id="Path_6643" data-name="Path 6643" d="M57.754,144.285h.3c1.315,0,2.63,0,3.945,0a.6.6,0,0,1,.506.214c1.087,1.224,2.186,2.439,3.28,3.658.064.071.119.15.2.255-.292.05-.549.1-.808.134a.332.332,0,0,1-.187-.057q-3.552-2.048-7.1-4.1c-.029-.017-.056-.039-.141-.1" transform="translate(-50.767 -126.826)" fill="#f5f5f5"/>
    <path id="Path_6644" data-name="Path 6644" d="M207.645,145.38l-8.429,1.49c.307-.337.566-.626.83-.91.47-.507.939-1.015,1.42-1.512a.476.476,0,0,1,.307-.131c1.383-.008,2.766-.006,4.149-.006a1.981,1.981,0,0,1,1.559.775,1.5,1.5,0,0,1,.125.187.729.729,0,0,1,.04.107" transform="translate(-175.116 -126.853)" fill="#f5f5f5"/>
  </g>
</svg>
