<svg id="Icon_fa-solid-file-pdf" data-name="Icon fa-solid-file-pdf" xmlns="http://www.w3.org/2000/svg" width="32.44" height="33.486" viewBox="0 0 32.44 33.486">
  <path id="Icon_fa-solid-file-pdf-2" data-name="Icon fa-solid-file-pdf" d="M0,4.186A4.19,4.19,0,0,1,4.186,0H14.65V8.372a2.091,2.091,0,0,0,2.093,2.093h8.372v9.418h-13.6a4.19,4.19,0,0,0-4.186,4.186v9.418H4.186A4.19,4.19,0,0,1,0,29.3ZM25.115,8.372H16.743V0Zm-13.6,14.65H13.6a3.663,3.663,0,1,1,0,7.325H12.557V32.44a1.046,1.046,0,0,1-2.093,0V24.068A1.05,1.05,0,0,1,11.511,23.022ZM13.6,28.254a1.57,1.57,0,1,0,0-3.139H12.557v3.139Zm6.279-5.232h2.093a3.14,3.14,0,0,1,3.139,3.139v4.186a3.14,3.14,0,0,1-3.139,3.139H19.882a1.05,1.05,0,0,1-1.046-1.046V24.068A1.05,1.05,0,0,1,19.882,23.022Zm2.093,8.372a1.05,1.05,0,0,0,1.046-1.046V26.161a1.05,1.05,0,0,0-1.046-1.046H20.929v6.279Zm5.232-7.325a1.05,1.05,0,0,1,1.046-1.046h3.139a1.046,1.046,0,1,1,0,2.093H29.3v2.093h2.093a1.046,1.046,0,1,1,0,2.093H29.3V32.44a1.046,1.046,0,0,1-2.093,0Z" fill="#46546b"/>
</svg>
