<?xml version="1.0" encoding="UTF-8" standalone="no"?>
<svg
   width="26.414"
   height="26.414"
   viewBox="0 0 26.414 26.414"
   version="1.1"
   id="svg1"
   sodipodi:docname="PERSON.svg"
   inkscape:version="1.3.2 (091e20e, 2023-11-25, custom)"
   xmlns:inkscape="http://www.inkscape.org/namespaces/inkscape"
   xmlns:sodipodi="http://sodipodi.sourceforge.net/DTD/sodipodi-0.dtd"
   xmlns="http://www.w3.org/2000/svg"
   xmlns:svg="http://www.w3.org/2000/svg">
  <defs
     id="defs1" />
  <sodipodi:namedview
     id="namedview1"
     pagecolor="#ffffff"
     bordercolor="#000000"
     borderopacity="0.25"
     inkscape:showpageshadow="2"
     inkscape:pageopacity="0.0"
     inkscape:pagecheckerboard="0"
     inkscape:deskcolor="#d1d1d1"
     inkscape:zoom="30.779133"
     inkscape:cx="13.207"
     inkscape:cy="13.207"
     inkscape:window-width="1920"
     inkscape:window-height="1009"
     inkscape:window-x="1912"
     inkscape:window-y="-8"
     inkscape:window-maximized="1"
     inkscape:current-layer="svg1" />
  <path
     id="Icon_awesome-user-alt"
     data-name="Icon awesome-user-alt"
     d="M13.207,14.858A7.429,7.429,0,1,0,5.778,7.429,7.431,7.431,0,0,0,13.207,14.858Zm6.6,1.651H16.968a8.981,8.981,0,0,1-7.522,0H6.6a6.6,6.6,0,0,0-6.6,6.6v.825a2.477,2.477,0,0,0,2.476,2.476H23.938a2.477,2.477,0,0,0,2.476-2.476v-.825A6.6,6.6,0,0,0,19.811,16.509Z"
     fill="#383d5b"
     style="fill:#ffffff;fill-opacity:1" />
</svg>
