<svg xmlns="http://www.w3.org/2000/svg" xmlns:xlink="http://www.w3.org/1999/xlink" width="35" height="26.805" viewBox="0 0 35 26.805">
  <defs>
    <clipPath id="clip-path">
      <rect id="Rectangle_1236" data-name="Rectangle 1236" width="35" height="26.805" fill="none"/>
    </clipPath>
  </defs>
  <g id="Group_2525" data-name="Group 2525" transform="translate(0 0)">
    <g id="Group_2524" data-name="Group 2524" transform="translate(0 0)" clip-path="url(#clip-path)">
      <path id="Path_6646" data-name="Path 6646" d="M1.761,24.1c0-2.442.012-4.769,0-7.1-.015-2.587-.081-5.176-.064-7.764,0-.7-.151-1-.893-1-.252,0-.5-.365-.752-.564.268-.24.5-.622.811-.691A7.663,7.663,0,0,1,2.5,6.945q15.481-.007,30.965-.013a1.357,1.357,0,0,1,.647.057c.249.151.581.4.594.628.011.2-.387.608-.575.592-1.056-.091-1.076.524-1.07,1.3q.058,6.89.062,13.78c0,.508-.074.915.687.935.313.009.613.485.918.749-.352.221-.7.629-1.056.634-3.514.044-7.028.02-10.542.02q-10.816,0-21.633,0c-.219,0-.487.076-.649-.02a5.222,5.222,0,0,1-.778-.684,4.421,4.421,0,0,1,.75-.742c.186-.117.489-.047.942-.072m18.534-3.271h-.019c0-.873.03-1.747-.007-2.619a2.857,2.857,0,0,0-5.709,0c-.054,1.707-.009,3.418-.035,5.128-.011.671.286.9.93.875,1.277-.04,2.557-.089,3.83-.026.86.043,1.088-.275,1.023-1.07-.062-.759-.014-1.526-.014-2.291m-2.907-7.026a2.975,2.975,0,0,0,3.057-2.794,3.125,3.125,0,0,0-2.839-3.171A3.166,3.166,0,0,0,14.39,10.9a3.127,3.127,0,0,0,3,2.9m-5.468,6.9c0-1.869,0-1.869-2.62-1.885-1.088-.006-1.1.019-1.1,2.252,0,1.463,0,1.463,2.407,1.463,1.315,0,1.315,0,1.312-1.831M5.15,18.847c-1.743.067-1.743.067-1.742,1.17,0,2.511,0,2.487,2.695,2.537.665.012.95-.2.963-.837.006-.328.028-.656.018-.983-.063-2.035.351-1.966-1.933-1.888m21.462,1.8h-.043a6.579,6.579,0,0,1,.007-.872c.1-.733-.257-.948-.937-.979-2.7-.124-2.7-.137-2.734,2.563a1.939,1.939,0,0,1-.006.218c-.067.609.154,1.137.81.931.96-.3,2.332.892,2.9-.773a1.384,1.384,0,0,0,0-.434v-.655m1.155-1.866c0,1.118-.028,2.129.023,3.135.011.211.3.569.488.582a24.055,24.055,0,0,0,2.627,0c.173-.008.477-.218.481-.341a13.451,13.451,0,0,0-.1-3.024c-.042-.2-1.155-.2-1.777-.266-.468-.048-.941-.05-1.738-.089M10.139,17.737c1.792.007,1.792.007,1.8-1.258.018-2.349.016-2.319-2.583-2.378-.826-.019-1.212.154-1.182,1.067.1,3.089-.189,2.538,1.963,2.57M7.1,9.457c-3.732-.387-3.9-.257-3.709,2.681,0,.036,0,.072,0,.109.015.554.266,1.044.845.809.931-.379,2.363.783,2.816-.754A10.6,10.6,0,0,0,7.1,9.457m15.8,1.762c-.008,1.75-.008,1.75,2.535,1.774,1.18.011,1.18.011,1.191-2.452.006-1.173.006-1.173-2.315-1.184-1.4-.007-1.4-.007-1.411,1.862M11.93,13.056c0-1.117.044-2.057-.029-2.99-.02-.249-.394-.661-.616-.666-.967-.028-2.3-.293-2.805.215s-.254,1.843-.23,2.811c.006.216.432.581.686.6.938.072,1.886.029,2.994.029m17.8-3.689c-2.272.035-1.943-.223-1.965,2a3.625,3.625,0,0,1-.006.436c-.127.949.228,1.277,1.228,1.214,2.5-.158,2.463-.113,2.523-2.549.021-.879-.266-1.212-1.124-1.1a4.728,4.728,0,0,1-.656,0M3.424,17.748a29.58,29.58,0,0,0,2.959-.037c.263-.028.7-.544.672-.782-.128-.922.682-2.228-.524-2.69a9.23,9.23,0,0,0-3.108-.069Zm21.343,0c1.862-.042,1.862-.042,1.85-1.874A8.731,8.731,0,0,1,26.633,15c.057-.616-.228-.864-.827-.852-3.452.063-2.837-.573-2.919,2.7-.019.725.307.987,1,.906a7.566,7.566,0,0,1,.876-.006m6.694-1.694c-.047-1.938-.047-1.938-2.678-1.878-1.089.026-1.089.026-1.042,2.578.02,1.064.019,1.032,2.731,1,1.514-.02.819-1.118.99-1.7" transform="translate(0.008 1.155)" fill="#fff"/>
      <path id="Path_6647" data-name="Path 6647" d="M0,6.416C.858,5.707,1.708,4.99,2.574,4.29,4.136,3.025,5.686,1.741,7.29.531a2.66,2.66,0,0,1,1.491-.5C14.457,0,20.132-.02,25.807.036a3.772,3.772,0,0,1,2.073.745c2.075,1.556,4.075,3.212,6.089,4.846A11.93,11.93,0,0,1,35,6.753H.137L0,6.416M22.635,2c-1.437.176-2.989-.411-4.3.817-.057-.873-.714-.853-1.4-.867-.8-.015-.815.52-.9,1.079-.133.865-.559.726-1.106.316l.713-1.175-.254-.33-2.066.986c-.537-.238-1.225-.805-1.859-.749-.615.054-1.174.747-1.654,1.085L9.24,1.961l-.351.1-.4,1.486L7.133,2.015c-.1.03-.2.06-.3.089-.044.886-.114,1.771-.116,2.657,0,.245.209.491.32.736A3.712,3.712,0,0,0,7.794,5a5.219,5.219,0,0,0,.552-.822l.836,1.375.755-.9a4.564,4.564,0,0,0,1.1.9c1.182.482,1.847-.161,2.237-1.221.207-.562.5-.844,1.134-.294L13.1,5.624c.741,0,1.194.04,1.636-.012.463-.053.942-.337,1.369-.265,1.007.17,1.477-.417,1.926-1.11a6.241,6.241,0,0,0,.3-.589,5.147,5.147,0,0,1,.445,1.146c.138.287.463.484.706.721.2-.261.539-.5.581-.789A12.348,12.348,0,0,0,20.1,2.889l.513-.051c.114.624.271,1.244.333,1.873.069.7.313,1.008.875.75.286-1.212.539-2.281.816-3.457m2.6,3.642.307-.26c-.3-.986-.539-2-.932-2.948-.23-.554-.944-.708-1.207-.153a21.839,21.839,0,0,0-.98,3.094l.348.247,1.4-.662,1.063.682m2.933-.082.176-.268c-1.1-.488-1.806-1.186-1.526-2.426a.3.3,0,0,0-.033-.211c-.131-.194-.275-.377-.415-.564-.186.183-.5.349-.53.553-.084.6.009,1.236-.084,1.838-.147.949.266,1.271,1.142,1.2.424-.035.846-.079,1.27-.12" transform="translate(0 0)" fill="#fff"/>
      <path id="Path_6648" data-name="Path 6648" d="M21.674,1.741c-.278,1.175-.53,2.245-.816,3.457-.564.258-.806-.046-.875-.75-.062-.629-.218-1.249-.334-1.873l-.512.051a12.365,12.365,0,0,1-.028,1.838c-.043.285-.378.526-.581.788-.243-.237-.568-.434-.706-.721a5.205,5.205,0,0,0-.445-1.146c-.1.2-.186.4-.3.59-.448.692-.918,1.279-1.926,1.109-.428-.071-.906.212-1.369.266-.442.05-.9.011-1.637.011L13.45,3.781c-.633-.55-.928-.268-1.134.294-.389,1.06-1.055,1.7-2.236,1.221a4.542,4.542,0,0,1-1.1-.9l-.756.9c-.256-.422-.512-.845-.834-1.375a5.279,5.279,0,0,1-.552.823,3.788,3.788,0,0,1-.755.5c-.112-.246-.319-.491-.319-.738,0-.886.071-1.77.116-2.656l.3-.09,1.355,1.53.4-1.486.35-.1L8.851,2.9c.48-.34,1.037-1.033,1.652-1.086.634-.056,1.322.511,1.86.749l2.066-.985.254.329c-.224.37-.448.739-.714,1.175.547.41.974.55,1.107-.316.085-.558.105-1.095.9-1.078.684.013,1.341-.007,1.4.866,1.309-1.228,2.861-.641,4.3-.817M11.468,4.176c-.32-.536-.569-.953-.82-1.371-.179.265-.48.516-.512.8-.079.692.323.881,1.333.574" transform="translate(0.962 0.264)" fill="#fff"/>
      <path id="Path_6649" data-name="Path 6649" d="M22.022,5.37l-1.063-.682-1.4.661L19.211,5.1a21.9,21.9,0,0,1,.979-3.095c.263-.554.977-.4,1.207.153.393.949.63,1.963.932,2.949l-.307.26" transform="translate(3.208 0.277)" fill="#fff"/>
      <path id="Path_6650" data-name="Path 6650" d="M24.482,5.265c-.424.041-.846.085-1.27.12-.876.072-1.29-.25-1.142-1.2.093-.6,0-1.233.084-1.838.028-.2.344-.37.53-.553.14.187.285.37.415.564a.3.3,0,0,1,.033.211c-.28,1.24.428,1.938,1.526,2.426l-.176.268" transform="translate(3.68 0.3)" fill="#fff"/>
      <path id="Path_6651" data-name="Path 6651" d="M15.15,12.447l-1.686-1.942,1.712-1.834c.531.505,1.135,1.04,1.678,1.63.1.107.023.523-.112.664-.482.511-1.026.964-1.592,1.482" transform="translate(2.248 1.448)" fill="#fff"/>
      <path id="Path_6652" data-name="Path 6652" d="M10.843,4c-1.009.307-1.412.118-1.333-.574.033-.281.334-.532.512-.8.251.418.5.836.82,1.371" transform="translate(1.586 0.439)" fill="#fff"/>
    </g>
  </g>
</svg>
