<?xml version="1.0" encoding="UTF-8"?>
<svg id="Layer_2" data-name="Layer 2" xmlns="http://www.w3.org/2000/svg" viewBox="0 0 138.61 178.91">
  <defs>
    <style>
      .cls-1 {
        fill: #fff;
      }
    </style>
  </defs>
  <g id="Layer_1-2" data-name="Layer 1">
    <g>
      <rect class="cls-1" x="35.12" y="114.58" width="21.14" height="17"/>
      <path class="cls-1" d="M128.21,162.75c0,5.05-4.11,9.16-9.16,9.16H16.16c-5.05,0-9.16-4.11-9.16-9.16V24.52c0-5.05,4.11-9.16,9.16-9.16h14.32v-7h-14.32C7.25,8.36,0,15.61,0,24.52v138.24c0,8.91,7.25,16.16,16.16,16.16h102.9c8.91,0,16.16-7.25,16.16-16.16v-30.31l-7,8.72v21.6Z"/>
      <path class="cls-1" d="M128.21,24.52v22.03c2.57.06,4.88.2,6.01.42.34.07.67.18.99.29v-22.75c0-8.91-7.25-16.16-16.16-16.16h-14.32v7h14.32c5.05,0,9.16,4.11,9.16,9.16Z"/>
      <path class="cls-1" d="M30.48,19.15h-8.98c-5.36,0-9.72,4.36-9.72,9.72v129.54c0,5.36,4.36,9.72,9.72,9.72h92.22c5.36,0,9.72-4.36,9.72-9.72v-17.23c-1.06-1.09-4.3-5.03-7-8.41-1.91-2.39-3.51-4.26-3.94-4.83-.72-.94-2.87-3.24-3.93-5.03l-.05-67.13c.44-4.67,4.66-7.54,7.93-8.62.43-.14.88-.24,1.34-.32,1.09-.2,3.25-.28,5.66-.31v-17.66c0-5.36-4.36-9.72-9.72-9.72h-8.98v6.53c0,.16-.01.32-.02.47-.24,3.23-2.94,5.79-6.23,5.79h-61.74c-3.29,0-5.99-2.56-6.23-5.79-.01-.16-.02-.31-.02-.47v-6.53ZM76.21,50.06h23.56c1.93,0,3.5,1.57,3.5,3.5s-1.57,3.5-3.5,3.5h-23.56c-1.93,0-3.5-1.57-3.5-3.5s1.57-3.5,3.5-3.5ZM76.21,70.44h23.56c1.93,0,3.5,1.57,3.5,3.5s-1.57,3.5-3.5,3.5h-23.56c-1.93,0-3.5-1.57-3.5-3.5s1.57-3.5,3.5-3.5ZM76.21,90.82h23.56c1.93,0,3.5,1.57,3.5,3.5s-1.57,3.5-3.5,3.5h-23.56c-1.93,0-3.5-1.57-3.5-3.5s1.57-3.5,3.5-3.5ZM76.21,111.2h23.56c1.93,0,3.5,1.57,3.5,3.5s-1.57,3.5-3.5,3.5h-23.56c-1.93,0-3.5-1.57-3.5-3.5s1.57-3.5,3.5-3.5ZM76.21,131.58h23.56c1.93,0,3.5,1.57,3.5,3.5s-1.57,3.5-3.5,3.5h-23.56c-1.93,0-3.5-1.57-3.5-3.5s1.57-3.5,3.5-3.5ZM63.26,135.08c0,1.93-1.57,3.5-3.5,3.5h-28.14c-1.93,0-3.5-1.57-3.5-3.5v-24c0-1.93,1.57-3.5,3.5-3.5h28.14c1.93,0,3.5,1.57,3.5,3.5v24ZM29.48,80.94c1.53-1.19,3.73-.91,4.91.62l7.09,9.13,16.11-12.78c1.51-1.2,3.72-.95,4.92.57,1.2,1.51.95,3.72-.57,4.92l-18.88,14.97c-.62.49-1.39.76-2.17.76-.14,0-.28,0-.42-.02-.93-.11-1.77-.59-2.35-1.33l-9.26-11.92c-1.19-1.53-.91-3.73.62-4.91ZM34.39,54.22l7.09,9.13,16.11-12.78c1.51-1.2,3.72-.95,4.92.57,1.2,1.51.95,3.72-.57,4.92l-18.88,14.97c-.62.49-1.39.76-2.17.76-.14,0-.28,0-.42-.02-.93-.11-1.77-.59-2.35-1.33l-9.26-11.92c-1.19-1.53-.91-3.73.62-4.91s3.73-.91,4.91.62Z"/>
      <path class="cls-1" d="M138.61,57.6c-.51-2.66-2.27-5.11-4.75-6.02-.28-.1-.55-.2-.85-.26-.96-.2-2.93-.33-5.12-.38-1.33-.03-2.75-.04-4.07-.01-2.05.03-3.88.13-4.83.28-.39.06-.77.16-1.14.29-2.79.95-4.74,3.62-5.05,6.72l.05,60.57c.2,1.21,1.04,2.03,1.64,3,.33.53,1.73,2.4,3.36,4.52,2.3,3,5.06,6.5,5.96,7.47.12.13.21.21.25.25,1.26.88,2.63.79,3.82-.09.08-.06.16-.11.24-.17.34-.29,3.19-4,5.73-7.4,2.04-2.73,3.88-5.24,4.06-5.61.32-.64.65-1.23.69-1.97v-61.18Z"/>
      <path class="cls-1" d="M41.18,26.71h52.86c2.82,0,5.13-2.19,5.34-4.95.01-.13.02-.27.02-.4V5.36c0-2.95-2.4-5.36-5.36-5.36h-52.86c-2.95,0-5.36,2.4-5.36,5.36v16c0,.14.01.27.02.4.21,2.77,2.52,4.95,5.34,4.95Z"/>
    </g>
  </g>
</svg>