<?xml version="1.0" encoding="UTF-8"?>
<svg id="Layer_2" data-name="Layer 2" xmlns="http://www.w3.org/2000/svg" viewBox="0 0 20.72 26.16">
  <defs>
    <style>
      .cls-1 {
        fill: #303c50;
      }
    </style>
  </defs>
  <g id="Layer_1-2" data-name="Layer 1">
    <g>
      <path class="cls-1" d="M4.15,7.54c-.23.18-.27.5-.09.73l1.38,1.77c.09.11.21.18.35.2.02,0,.04,0,.06,0,.12,0,.23-.04.32-.11l2.81-2.22c.23-.18.26-.51.08-.73-.18-.22-.51-.26-.73-.08l-2.39,1.9-1.05-1.36c-.18-.23-.5-.27-.73-.09Z"/>
      <path class="cls-1" d="M8.33,11.15l-2.39,1.9-1.05-1.36c-.18-.23-.5-.27-.73-.09-.23.18-.27.5-.09.73l1.38,1.77c.09.11.21.18.35.2.02,0,.04,0,.06,0,.12,0,.23-.04.32-.11l2.81-2.22c.23-.18.26-.51.08-.73-.18-.22-.51-.26-.73-.08Z"/>
      <path class="cls-1" d="M8.65,15.56h-4.18c-.29,0-.52.23-.52.52v3.57c0,.29.23.52.52.52h4.18c.29,0,.52-.23.52-.52v-3.57c0-.29-.23-.52-.52-.52ZM8.13,19.12h-3.14v-2.53h3.14v2.53Z"/>
      <path class="cls-1" d="M19.09,20.34s-.03.02-.04.03v3.39c0,.75-.61,1.36-1.36,1.36H2.4c-.75,0-1.36-.61-1.36-1.36V3.21c0-.75.61-1.36,1.36-1.36h2.13V.81h-2.13C1.08.81,0,1.89,0,3.21v20.54c0,1.32,1.08,2.4,2.4,2.4h15.29c1.32,0,2.4-1.08,2.4-2.4v-4.65c-.44.57-.94,1.19-1,1.24Z"/>
      <path class="cls-1" d="M19.05,3.21v3.27c.38,0,.73.03.89.06.05.01.1.03.15.04v-3.38c0-1.32-1.08-2.4-2.4-2.4h-2.13v1.04h2.13c.75,0,1.36.61,1.36,1.36Z"/>
      <path class="cls-1" d="M4.53,2.42h-1.33c-.8,0-1.44.65-1.44,1.44v19.25c0,.8.65,1.44,1.44,1.44h13.7c.8,0,1.44-.65,1.44-1.44v-2.77c-.16-.16-.64-.75-1.04-1.25v4.02c0,.22-.18.4-.4.4H3.19c-.22,0-.4-.18-.4-.4V3.86c0-.22.18-.4.4-.4h1.33v-1.04Z"/>
      <path class="cls-1" d="M17.3,3.86v2.72c.06-.02.13-.04.2-.05.16-.03.48-.04.84-.05v-2.62c0-.8-.65-1.44-1.44-1.44h-1.33v1.04h1.33c.22,0,.4.18.4.4Z"/>
      <path class="cls-1" d="M20.72,7.99c-.08-.41-.36-.78-.75-.92-.04-.02-.09-.03-.13-.04-.15-.03-.47-.05-.81-.06-.21,0-.44,0-.65,0-.33,0-.62.02-.77.04-.06,0-.12.02-.18.04-.44.15-.75.55-.8,1.03v9.24c.04.18.17.31.27.46.05.08.28.37.53.69.37.46.81.99.95,1.14.02.02.03.03.04.04.2.13.42.12.61-.01.01,0,.03-.02.04-.03.05-.04.51-.61.91-1.13.32-.42.62-.8.65-.86.05-.1.1-.19.11-.3V7.99ZM19.91,17.12c0,.07-.52.7-.89,1.12-.17.2-.31.35-.35.37-.04-.03-.15-.16-.3-.33-.37-.42-.93-1.1-.93-1.16v-7.24h2.46v7.24ZM19.91,9.06h-2.46c.04-.36-.16-1.08.28-1.21.08-.02.34-.04.65-.04.21,0,.44,0,.65,0,.33.01.62.03.68.06.34.17.17.86.2,1.18Z"/>
      <path class="cls-1" d="M5.79,4.31h8.52c.48,0,.86-.39.86-.86V.86c0-.48-.39-.86-.86-.86H5.79c-.48,0-.86.39-.86.86v2.58c0,.48.39.86.86.86ZM5.89,2.4V.97h8.31v2.37H5.89v-.94Z"/>
      <path class="cls-1" d="M11.32,7.01c-.29,0-.52.23-.52.52s.23.52.52.52h3.5c.29,0,.52-.23.52-.52s-.23-.52-.52-.52h-3.5Z"/>
      <path class="cls-1" d="M11.32,11.08h3.5c.29,0,.52-.23.52-.52s-.23-.52-.52-.52h-3.5c-.29,0-.52.23-.52.52s.23.52.52.52Z"/>
      <path class="cls-1" d="M11.32,14.11h3.5c.29,0,.52-.23.52-.52s-.23-.52-.52-.52h-3.5c-.29,0-.52.23-.52.52s.23.52.52.52Z"/>
      <path class="cls-1" d="M11.32,17.13h3.5c.29,0,.52-.23.52-.52s-.23-.52-.52-.52h-3.5c-.29,0-.52.23-.52.52s.23.52.52.52Z"/>
      <path class="cls-1" d="M11.32,20.16h3.5c.29,0,.52-.23.52-.52s-.23-.52-.52-.52h-3.5c-.29,0-.52.23-.52.52s.23.52.52.52Z"/>
    </g>
  </g>
</svg>