<?xml version="1.0" encoding="UTF-8"?>
<svg id="Layer_2" data-name="Layer 2" xmlns="http://www.w3.org/2000/svg" viewBox="0 0 19.76 19.76">
  <defs>
    <style>
      .cls-1 {
        fill: #000;
        stroke-width: 0px;
      }
    </style>
  </defs>
  <g id="Layer_1-2" data-name="Layer 1">
    <g>
      <path class="cls-1" d="M13.3.6c-.83-.31-1.68-.5-2.56-.57-.06,0-.11-.02-.17-.04h-1.39c-.35.05-.71.09-1.06.16-2.32.42-4.24,1.54-5.77,3.32C1.17,4.85.44,6.45.13,8.23c-.05.32-.09.63-.13.95v1.39c.05.35.09.7.15,1.04.44,2.41,1.62,4.39,3.51,5.94,1.41,1.16,3.04,1.86,4.85,2.11,5.31.72,9.88-2.78,10.98-7.49,1.15-4.91-1.48-9.84-6.18-11.57ZM13.62,16.42h-7.48v-1.13h7.48v1.13ZM18.31,10.44h-3.74c-.02-.43-.01-.87-.08-1.29-.07-.42-.21-.83-.33-1.25-.85.85-1.66,1.66-2.48,2.49.38.87.29,1.71-.46,2.4-.68.62-1.47.67-2.31.29-.3.3-.6.61-.89.91-.28-.28-.54-.54-.82-.83.23-.23.47-.48.72-.71.14-.13.18-.23.09-.42-.31-.74-.13-1.61.46-2.16.63-.59,1.37-.73,2.17-.41.16.06.23.04.34-.07.77-.78,1.55-1.56,2.33-2.33.05-.05.1-.1.14-.15-1-1.28-2.85-2.03-4.71-1.56-1.14.29-2.05.93-2.72,1.89-.67.96-.89,2.04-.81,3.21H1.45c-.1-3.03.97-5.55,3.42-7.33,2.85-2.07,5.96-2.3,9.05-.61,3.08,1.68,4.44,4.43,4.39,7.93Z"/>
      <path class="cls-1" d="M7.13,3.14c-3.12,1.28-4.43,4.22-4.48,6.15h1.41c.4-2.46,1.69-4.2,4.08-4.95,2.39-.75,4.45-.06,6.15,1.71.33-.34.67-.67,1-1.01-1.88-2.18-5.17-3.12-8.16-1.9Z"/>
      <path class="cls-1" d="M15.43,8.13c.12.37.18.76.28,1.16h1.43c-.11-1.19-.47-2.28-1.1-3.28-.36.36-.7.71-1.04,1.04.14.36.31.71.43,1.08Z"/>
      <path class="cls-1" d="M9.88,10.46c-.48,0-.85.37-.85.85,0,.48.37.85.85.86.48,0,.85-.37.85-.85,0-.48-.37-.85-.85-.85Z"/>
    </g>
  </g>
</svg>