<svg xmlns="http://www.w3.org/2000/svg" width="22.913" height="22.913" viewBox="0 0 22.913 22.913">
  <path id="Icon_awesome-ruler-combined" data-name="Icon awesome-ruler-combined" d="M7.16,12.889H4.654a.358.358,0,0,1-.358-.358v-.716a.358.358,0,0,1,.358-.358H7.16V8.593H4.654A.358.358,0,0,1,4.3,8.235V7.518a.358.358,0,0,1,.358-.358H7.16V4.3H4.654A.358.358,0,0,1,4.3,3.938V3.222a.358.358,0,0,1,.358-.358H7.16V1.432A1.432,1.432,0,0,0,5.728,0h-4.3A1.432,1.432,0,0,0,0,1.432V21.481a1.377,1.377,0,0,0,.07.349l7.09-7.09Zm14.321,2.864H20.049v2.506a.358.358,0,0,1-.358.358h-.716a.358.358,0,0,1-.358-.358V15.753H15.753v2.506a.358.358,0,0,1-.358.358h-.716a.358.358,0,0,1-.358-.358V15.753H11.457v2.506a.358.358,0,0,1-.358.358h-.716a.358.358,0,0,1-.358-.358V15.753H8.173l-7.09,7.09a1.381,1.381,0,0,0,.349.07H21.481a1.432,1.432,0,0,0,1.432-1.432v-4.3A1.432,1.432,0,0,0,21.481,15.753Z" fill="#00062d"/>
</svg>
