<?xml version="1.0" encoding="UTF-8"?>
<svg id="Layer_2" xmlns="http://www.w3.org/2000/svg" viewBox="0 0 29.61 29.64">
  <defs>
    <style>
      .cls-1 {
        fill: #303c50;
        stroke: #303c50;
        stroke-miterlimit: 10;
      }
    </style>
  </defs>
  <g id="Layer_1-2" data-name="Layer_1">
    <g>
      <path class="cls-1" d="M28.07,6.64c-1.66-1.63-3.31-3.26-4.93-4.94-.75-.78-1.6-1.19-2.68-1.19-5.55,0-11.1-.03-16.66.02-2.26.02-3.31,1.2-3.31,3.47,0,7.19,0,14.39,0,21.58,0,2.47,1.07,3.56,3.53,3.57,3.58,0,7.17,0,10.75,0,3.69,0,7.38.01,11.08,0,2.09-.01,3.25-1.2,3.25-3.26,0-5.58,0-11.16,0-16.74,0-.99-.33-1.8-1.04-2.49ZM6.58,2.55c.33-.02.54-.05.75-.05,3.61,0,7.21.01,10.82-.01.6,0,.82.15.8.78-.04,1.56-.03,3.11,0,4.67.01.57-.13.84-.77.83-3.63-.02-7.27-.01-10.9-.01-.38,0-.7-.02-.7-.55.01-1.85,0-3.71,0-5.65ZM27.14,25.9c0,.99-.29,1.29-1.26,1.29-7.39,0-14.78,0-22.17,0-.95,0-1.28-.33-1.28-1.28,0-7.36,0-14.72,0-22.08,0-1.21.51-1.51,2.12-1.22.01.28.04.57.04.86,0,1.78,0,3.56,0,5.34,0,1.37.53,1.9,1.87,1.9,4.21,0,8.43,0,12.64,0,1.21,0,1.76-.55,1.76-1.74,0-1.83,0-3.67,0-5.5v-1.01c.37.27.59.39.77.56,1.67,1.66,3.35,3.31,4.98,5,.29.3.49.8.5,1.21.03,5.55.02,11.11.02,16.66Z"/>
      <path class="cls-1" d="M14.99,13.36c-2.86-.14-5.79,2.35-5.77,5.56.02,3.07,2.46,5.57,5.49,5.57,2.66.25,5.68-2.18,5.7-5.53.01-3-2.49-5.46-5.41-5.6ZM14.79,22.57c-2.03,0-3.63-1.61-3.63-3.64,0-2.02,1.61-3.62,3.65-3.62,2.04,0,3.63,1.6,3.62,3.64,0,2.04-1.6,3.63-3.64,3.62Z"/>
    </g>
  </g>
</svg>