<?xml version="1.0" encoding="UTF-8"?>
<svg id="Layer_2" xmlns="http://www.w3.org/2000/svg" viewBox="0 0 35.24 35.24">
  <defs>
    <style>
      .cls-1 {
        fill: #6dc38e;
      }
    </style>
  </defs>
  <g id="Layer_1-2" data-name="Layer_1">
    <path class="cls-1" d="M17.62,0C7.9,0,0,7.9,0,17.62s7.9,17.62,17.62,17.62,17.62-7.9,17.62-17.62S27.33,0,17.62,0ZM17.62,32.24c-8.06,0-14.62-6.56-14.62-14.62S9.56,3,17.62,3c4.42,0,8.38,1.98,11.07,5.09L12.62,24.16l-6.27-6.27c-.58-.59-1.54-.59-2.12,0-.59.59-.59,1.54,0,2.12l8.39,8.39L30.43,10.59c1.15,2.09,1.81,4.48,1.81,7.03,0,8.06-6.56,14.62-14.62,14.62Z"/>
  </g>
</svg>