<svg xmlns="http://www.w3.org/2000/svg" xmlns:xlink="http://www.w3.org/1999/xlink" width="27.78" height="31.173" viewBox="0 0 27.78 31.173">
  <defs>
    <clipPath id="clip-path">
      <rect id="Rectangle_1237" data-name="Rectangle 1237" width="27.78" height="31.173" transform="translate(0 0.012)" fill="#f5f5f5"/>
    </clipPath>
  </defs>
  <g id="Group_2527" data-name="Group 2527" transform="translate(0 -0.012)">
    <g id="Group_2526" data-name="Group 2526" clip-path="url(#clip-path)">
      <path id="Path_6653" data-name="Path 6653" d="M18.4,15.712v1.041a2.013,2.013,0,0,1-1.966,2.059h-.095c-1.54,0-3.081-.006-4.621,0a2.566,2.566,0,0,1-1.259-.211,1.979,1.979,0,0,1-1.122-1.75c-.02-.378,0-.758,0-1.141a7.6,7.6,0,0,1-.809-.1,1.874,1.874,0,0,1-1.505-1.854,4.053,4.053,0,0,0-.628-2.087,7.159,7.159,0,0,1-1.069-4.39A7.284,7.284,0,0,1,7.377,2.722,8.574,8.574,0,0,1,12.9.064a8.849,8.849,0,0,1,6.425,1.748,7.465,7.465,0,0,1,3.038,5.043,7.071,7.071,0,0,1-.989,4.774,4.311,4.311,0,0,0-.66,2.234,1.917,1.917,0,0,1-1.7,1.806c-.191.023-.385.029-.611.045m-6.078-4.208a1.651,1.651,0,0,0-3.3-.011,1.671,1.671,0,0,0,1.659,1.665,1.654,1.654,0,0,0,1.643-1.654M15.4,11.5a1.649,1.649,0,1,0,1.649-1.649h-.036a1.658,1.658,0,0,0-1.62,1.647m-2.546,3.278.056.016v.156c.005.259.116.365.363.31a2.906,2.906,0,0,1,1.235.009.263.263,0,0,0,.34-.152.267.267,0,0,0,.015-.125,2.971,2.971,0,0,0-.033-.533,2.332,2.332,0,0,0-.451-1.169.584.584,0,0,0-.8-.189.594.594,0,0,0-.179.174,1.02,1.02,0,0,0-.214.335c-.123.385-.222.777-.33,1.167" fill="#f5f5f5"/>
      <path id="Path_6654" data-name="Path 6654" d="M11.631,24.549c-.823-.477-1.593-.925-2.365-1.371-1.532-.885-3.067-1.764-4.6-2.655a4.236,4.236,0,0,0-2.9-.544A1.521,1.521,0,0,1,.018,18.834a1.429,1.429,0,0,1,.869-1.467c.113-.053.231-.094.292-.119a5.9,5.9,0,0,1,.079-1.02,1.178,1.178,0,0,1,.965-.916,1.407,1.407,0,0,1,1.424.6,1.62,1.62,0,0,1,.234.4,4.465,4.465,0,0,0,2.018,2.3c2.673,1.524,5.335,3.067,8,4.6l3.419-1.98c1.532-.885,3.06-1.776,4.6-2.648a4.29,4.29,0,0,0,1.955-2.208,1.729,1.729,0,0,1,.742-.893,1.271,1.271,0,0,1,1.957.9,5.013,5.013,0,0,1,.007.822,5.353,5.353,0,0,1,.583.313,1.309,1.309,0,0,1,.585,1.409,1.4,1.4,0,0,1-1.194,1.025,3.472,3.472,0,0,1-.776-.009,4,4,0,0,0-2.5.488q-2.506,1.432-5,2.883c-.656.379-1.308.766-1.962,1.15-.031.018-.061.04-.111.074.482.281.944.561,1.417.822.584.323,1.161.667,1.772.933a3.734,3.734,0,0,0,2.062.2,1.763,1.763,0,0,1,1.044.148,1.289,1.289,0,0,1,.253,2.234,5.667,5.667,0,0,1-.687.4,1.513,1.513,0,0,0,.026.186,1.425,1.425,0,0,1-.989,1.694,1.485,1.485,0,0,1-1.517-.675A2.868,2.868,0,0,1,19.348,30,4.1,4.1,0,0,0,17.616,28c-1.176-.684-2.355-1.361-3.529-2.049a.308.308,0,0,0-.359.007c-1.117.652-2.232,1.308-3.36,1.942a4.2,4.2,0,0,0-1.926,2.175,1.823,1.823,0,0,1-.71.893,1.281,1.281,0,0,1-2-.894,5.341,5.341,0,0,1-.006-.8,4.764,4.764,0,0,1-.66-.383,1.252,1.252,0,0,1-.5-1.36,1.291,1.291,0,0,1,1.073-.983,3.84,3.84,0,0,1,1.016,0,3.6,3.6,0,0,0,1.979-.32c1-.517,1.976-1.091,3.009-1.667" fill="#f5f5f5"/>
    </g>
  </g>
</svg>
