<?xml version="1.0" encoding="UTF-8"?>
<svg id="Layer_2" xmlns="http://www.w3.org/2000/svg" viewBox="0 0 35.24 35.24">
  <defs>
    <style>
      .cls-1 {
        fill: #fec65c;
      }

      .cls-2 {
        fill: #fec55a;
      }
    </style>
  </defs>
  <g id="Layer_1-2" data-name="Layer_1">
    <path class="cls-1" d="M17.62,35.24C7.9,35.24,0,27.33,0,17.62S7.9,0,17.62,0s17.62,7.9,17.62,17.62-7.9,17.62-17.62,17.62ZM17.62,3c-8.06,0-14.62,6.56-14.62,14.62s6.56,14.62,14.62,14.62,14.62-6.56,14.62-14.62S25.68,3,17.62,3Z"/>
    <g>
      <circle class="cls-2" cx="17.62" cy="27.52" r="2.21"/>
      <path class="cls-1" d="M17.62,24.08c-.97,0-1.75-.78-1.75-1.75V7.51c0-.97.78-1.75,1.75-1.75s1.75.78,1.75,1.75v14.82c0,.97-.78,1.75-1.75,1.75Z"/>
    </g>
  </g>
</svg>