<?xml version="1.0" encoding="UTF-8"?>
<svg id="Layer_2" data-name="Layer 2" xmlns="http://www.w3.org/2000/svg" viewBox="0 0 140.3 140.3">
  <defs>
    <style>
      .cls-1 {
        fill: #000;
        stroke-width: 0px;
      }
    </style>
  </defs>
  <g id="Layer_1-2" data-name="Layer 1">
    <g>
      <path class="cls-1" d="M26.83,31.34c-.05,1.66,1.68,1.63,3.04,1.62,5.3-.02,10.6,0,15.9,0,5.3,0,10.6.01,15.9-.01,1.27,0,2.94.29,2.81-1.75-.11-1.64-1.59-1.37-2.69-1.37-10.6-.02-21.2-.01-31.79-.02-1.34,0-3.11-.12-3.15,1.54Z"/>
      <path class="cls-1" d="M52.39,80.38c.05-1.71-1.41-1.54-2.54-1.54-10.78-.02-21.57,0-32.35-.02-1.25,0-2.64.17-2.65,1.54,0,1.31,1.31,1.62,2.6,1.61,5.31-.04,10.62-.02,15.93-.02,5.47,0,10.95,0,16.43,0,1.18,0,2.54.03,2.59-1.57Z"/>
      <path class="cls-1" d="M47.19,43.87c.14-1.51-.98-1.93-2.26-1.93-7.96,0-15.92,0-23.89,0-1.28,0-2.44.37-2.35,1.84.07,1.26,1.31,1.34,2.29,1.35,3.98.03,7.96.01,11.94,0,3.98,0,7.96.02,11.94-.02.94,0,2.19.08,2.32-1.24Z"/>
      <path class="cls-1" d="M20.95,90.92c-1.3,0-2.39.49-2.26,1.93.12,1.3,1.39,1.21,2.34,1.22,3.65.04,7.29.02,10.94.01s7.3.02,10.94-.02c1.1-.01,2.55.2,2.52-1.55-.03-1.2-.99-1.61-2.09-1.62-7.46,0-14.92,0-22.38,0Z"/>
      <path class="cls-1" d="M36.16,57.65c1.2-.01,2.48-.33,2.36-1.91-.11-1.48-1.34-1.71-2.57-1.72-2.5-.01-4.99,0-7.49,0s-4.99-.03-7.49,0c-1.36.02-2.89.1-2.86,1.94.03,1.49,1.38,1.71,2.57,1.72,5.16.03,10.32.03,15.48-.02Z"/>
      <path class="cls-1" d="M14.87,68.03c-.02,1.41,1.08,1.84,2.41,1.82,2.33-.04,4.66-.01,6.99,0,2.33,0,4.66,0,6.99,0,1.08,0,2.07-.33,2.19-1.54.16-1.7-1.19-1.76-2.36-1.76-4.66-.02-9.32,0-13.98.03-1.02,0-2.22.22-2.23,1.45Z"/>
      <path class="cls-1" d="M90.39,61.89c2.33,1.72,4.05,3.04,5.81,4.28,3.99,2.81,8.03,2.96,11.91-.14,4.81-3.84,9.59-7.73,14.3-11.69,2.93-2.47,3.85-5.54,1.3-8.74-2.64-3.31-5.86-3.45-9.16-.8-3.5,2.82-7.04,5.59-10.42,8.54-1.51,1.32-2.63,1.48-4.18.13-3-2.6-6.63-4.44-9.1-7.71-1.83-2.43-4.53-3.37-7.46-3.43-7.66-.16-15.32-.32-22.98-.26-4.36.04-7.8,2.05-9.06,6.43-1.82,6.37-3.49,12.8-4.89,19.28-.82,3.78.92,6.63,4.81,7.44,3.6.75,6.11-.97,7.15-4.51,1.03-3.5,2.34-7,2.71-10.58.57-5.5,3.39-6.35,8.62-4.73-6.01,11.63-5.82,25.13-12.28,36.56-1.37,2.43-2.83,3.65-5.65,3.99-5.43.66-10.83,1.65-16.19,2.75-5.07,1.05-7.91,4.94-7.05,9.13.92,4.47,4.6,6.94,9.78,6.2,6.41-.91,12.76-2.27,19.19-3.06,5.8-.72,9.8-3.53,12.46-8.66,4.4-8.46,4.42-8.33,13.07-4.33,2.99,1.38,4.66,2.99,4.6,6.62-.09,5.31.37,10.65.81,15.95.41,4.93,4.08,8.41,8.33,8.23,4.47-.19,7.65-3.72,7.5-8.81-.22-7.32-.54-14.64-1.14-21.94-.35-4.31-2.41-7.91-6.19-10.31-3.36-2.13-6.68-4.35-10.14-6.3-1.81-1.02-2.14-2.13-1.51-4,1.69-5.01,3.25-10.06,5.01-15.55Z"/>
      <path class="cls-1" d="M89.16,40.77c6.75-.14,12.21-5.72,12.21-12.51,0-6.76-5.54-12.33-12.29-12.36-6.74-.03-12.46,5.5-12.58,12.16-.12,6.76,5.94,12.84,12.65,12.71Z"/>
      <path class="cls-1" d="M4,119.82v-8.19H0v8.19c0,11.29,9.19,20.48,20.48,20.48h8.19v-4h-8.19c-9.09,0-16.48-7.39-16.48-16.48Z"/>
      <path class="cls-1" d="M119.82,0h-8.68v4h8.68c9.09,0,16.48,7.39,16.48,16.48v8.19h4v-8.19c0-11.29-9.19-20.48-20.48-20.48Z"/>
      <path class="cls-1" d="M4,20.48c0-9.09,7.39-16.48,16.48-16.48h7.69V0h-7.69C9.19,0,0,9.19,0,20.48v8.19h4v-8.19Z"/>
      <path class="cls-1" d="M136.3,119.82c0,9.09-7.39,16.48-16.48,16.48h-8.19v4h8.19c11.29,0,20.48-9.19,20.48-20.48v-8.19h-4v8.19Z"/>
    </g>
  </g>
</svg>