<?xml version="1.0" encoding="UTF-8"?>
<svg id="Layer_2" data-name="Layer 2" xmlns="http://www.w3.org/2000/svg" viewBox="0 0 262.07 264.2">
  <defs>
    <style>
      .cls-1 {
        fill: #231f20;
        stroke-width: 0px;
      }
    </style>
  </defs>
  <g id="Layer_1-2" data-name="Layer 1">
    <path class="cls-1" d="M255.85,193.06l-48.56-21.88-24.51-62.75s.06-.02.08-.02l-10.89-28.32-6.87-17.29s-.09.01-.13.02L141.58,2.95l-.04-.1-.1-.04c-.16-.07-.3-.12-.46-.18-1.41-1.52-5.31-2.62-9.95-2.62s-8.57,1.11-9.96,2.64c-.34.2-.54.33-.55.34l-.06.04-23.35,59.79s-.09-.01-.13-.02l-6.87,17.28-10.9,28.34s.06.02.08.02l-24.41,62.49-.1.25-48.56,21.88c-4.15,1.87-6.22,4.32-6.22,6.76v6.6h.21c.59,2.01,2.58,3.95,6.01,5.5l109.81,49.48c8.29,3.74,21.73,3.74,30.02,0l109.8-49.48c3.43-1.54,5.41-3.49,6.01-5.5h.21v-6.6c0-2.45-2.07-4.9-6.22-6.76ZM116.48,15.31c-.08,0-.17,0-.25-.01h0c.08,0,.17,0,.25.01ZM145.84,15.29h0c-.07,0-.14,0-.21.01.07,0,.14,0,.21-.01ZM116.18,15.42c2.68,1.21,8.3,2.05,14.85,2.05s12.18-.84,14.86-2.05l18.54,47.47c-10.19,1.7-21.5,2.66-33.43,2.66s-23.19-.96-33.37-2.65l18.54-47.47ZM87.51,110.63c12.56,2.93,27.47,4.64,43.49,4.64s30.93-1.71,43.49-4.64c2.71-.63,5.31-1.33,7.79-2.07l16.74,42.86c-.65.37-1.32.74-2.02,1.1-.27.14-.55.28-.83.41-.56.28-1.13.55-1.71.82-.33.16-.67.31-1.01.46-.58.26-1.19.51-1.79.77-.33.14-.66.28-1,.42-.85.34-1.72.67-2.61,1-.51.19-1.04.37-1.57.55-.46.16-.92.32-1.38.47-.58.19-1.17.38-1.76.57-.42.13-.85.26-1.28.39-2.89.86-5.92,1.66-9.12,2.37-12.23,2.72-26.58,4.28-41.94,4.28s-29.71-1.56-41.94-4.28c-2.48-.55-4.85-1.15-7.14-1.79h0c-.67-.19-1.32-.38-1.97-.58-.41-.12-.82-.25-1.23-.37-.61-.19-1.21-.38-1.8-.58-.45-.15-.89-.3-1.33-.45-.54-.19-1.08-.37-1.6-.56-.88-.32-1.75-.65-2.59-.99-.35-.14-.69-.29-1.03-.43-.6-.25-1.19-.5-1.76-.75-.34-.15-.68-.31-1.01-.46-.58-.27-1.16-.54-1.72-.82-.27-.13-.55-.27-.81-.41-.7-.36-1.37-.72-2.02-1.09l16.75-42.88c2.46.74,5.03,1.42,7.72,2.05Z"/>
  </g>
</svg>