<?xml version="1.0" encoding="UTF-8"?>
<svg id="Layer_2" data-name="Layer 2" xmlns="http://www.w3.org/2000/svg" viewBox="0 0 1319.11 199.59">
  <defs>
    <style>
      .cls-1 {
        fill: #231f20;
        stroke-width: 0px;
      }
    </style>
  </defs>
  <g id="Layer_1-2" data-name="Layer 1">
    <path class="cls-1" d="M1319.11,116.73l-15.61-10.34-7.79-35.03-5.79,26.03-14-9.27-.55-2.49-.41,1.85-79.49-52.64-7.75-34.84-9.67,43.47s.12.28.33.74l-3.79,2.51-7.22-32.45-9.67,43.47s.02.04.05.13l-3.66,2.43-7.07-31.75-9.51,42.73-3.93,2.6-6.91-31.06-9.3,41.8-4.29,2.84-6.76-30.37-9.09,40.86-4.65,3.08-6.6-29.67-2,9-2-9-5.79,26.03-14-9.27-.55-2.49-.41,1.85-79.49-52.64-7.75-34.84-9.67,43.47s.12.28.33.74l-3.79,2.51-7.22-32.45-9.67,43.47s.02.04.05.13l-3.66,2.43-7.07-31.75-9.51,42.73-3.93,2.6-6.91-31.06-9.3,41.8-4.29,2.84-6.76-30.37-9.09,40.86-4.65,3.08-6.6-29.67-2.14,9.61-2.14-9.61-5.79,26.03-14-9.27-.55-2.49-.41,1.85-79.49-52.64-7.75-34.84-9.67,43.47s.12.28.33.74l-3.79,2.51-7.22-32.45-9.67,43.47s.02.04.05.13l-3.66,2.43-7.07-31.75-9.51,42.73-3.93,2.6-6.91-31.06-9.3,41.8-4.29,2.84-6.76-30.37-9.09,40.86-4.65,3.08-6.6-29.67-1.78,8-1.78-8-5.79,26.03-14-9.27-.55-2.49-.41,1.85-79.49-52.64-7.75-34.84-9.67,43.47s.12.28.33.74l-3.79,2.51-7.22-32.45-9.67,43.47s.02.04.05.13l-3.66,2.43-7.07-31.75-9.51,42.73-3.93,2.6-6.91-31.06-9.3,41.8-4.29,2.84-6.76-30.37-9.09,40.86-4.65,3.08-6.6-29.67-2,9-2-9-5.79,26.03-14-9.27-.55-2.49-.41,1.85-79.49-52.64-7.75-34.84-9.67,43.47s.12.28.33.74l-3.79,2.51-7.22-32.45-9.67,43.47s.02.04.05.13l-3.66,2.43-7.07-31.75-9.51,42.73-3.93,2.6-6.91-31.06-9.3,41.8-4.29,2.84-6.76-30.37-9.09,40.86-4.65,3.08-6.6-29.67-2.14,9.61-2.14-9.61-5.79,26.03-14-9.27-.55-2.49-.41,1.85-79.49-52.64L118.84,0l-9.67,43.47s.12.28.33.74l-3.79,2.51-7.22-32.45-9.67,43.47s.02.04.05.13l-3.66,2.43-7.07-31.75-9.51,42.73-3.93,2.6-6.91-31.06-9.3,41.8-4.29,2.84-6.76-30.37-9.09,40.86-4.65,3.08-6.6-29.67-8.88,39.93-8.21,5.44,125.12,82.86,107.01-70.87,107.01,70.87,106.88-70.78,106.88,70.78,106.65-70.63,106.65,70.63,107.01-70.87,107.01,70.87,106.88-70.78,106.88,70.78,125.12-82.86ZM1282.88,116.73l-.53.35-.18-.83.72.48ZM197.08,127.95l-4.09,2.71-6.84-30.75-9.21,41.38-4.45,2.95-6.69-30.06-9,40.45-4.81,3.19-6.53-29.36-8.79,39.51-5.18,3.43-6.38-28.67-6.37,28.64-82.5-54.63,88.9-58.87,76.31,50.53-4.35,19.56ZM213.49,117.08l-.18-.83.72.48-.53.35ZM411.1,127.95l-4.09,2.71-6.84-30.75-9.21,41.38-4.45,2.95-6.69-30.06-9,40.45-4.81,3.19-6.53-29.36-8.79,39.51-5.18,3.43-6.38-28.67-6.37,28.64-82.5-54.63,88.9-58.87,76.31,50.53-4.35,19.56ZM427.52,117.08l-.18-.83.58.39-.14.09.14.09-.4.26ZM624.85,127.95l-4.09,2.71-6.84-30.75-9.21,41.38-4.45,2.95-6.69-30.06-9,40.45-4.81,3.19-6.53-29.36-8.79,39.51-5.18,3.43-6.38-28.67-6.37,28.64-82.36-54.54.14-.09-.14-.09,88.76-58.78,76.31,50.53-4.35,19.56ZM641.44,116.49l-.27.18-.09-.41.36.24ZM641.27,117.08l-.06-.27.24.16-.17.12ZM838.16,127.95l-4.09,2.71-6.84-30.75-9.21,41.38-4.45,2.95-6.69-30.06-9,40.45-4.81,3.19-6.53-29.36-8.79,39.51-5.18,3.43-6.38-28.67-6.37,28.64-82.14-54.4.36-.24-.36-.24,88.54-58.63,76.31,50.53-4.35,19.56ZM854.57,117.08l-.18-.83.72.48-.53.35ZM1052.18,127.95l-4.09,2.71-6.84-30.75-9.21,41.38-4.45,2.95-6.69-30.06-9,40.45-4.81,3.19-6.53-29.36-8.79,39.51-5.18,3.43-6.38-28.67-6.37,28.64-82.5-54.63,88.9-58.87,76.31,50.53-4.35,19.56ZM1068.6,117.08l-.18-.83.58.39-.14.09.14.09-.4.26ZM1187.58,171.36l-82.36-54.54.14-.09-.14-.09,88.76-58.78,76.31,50.53-4.35,19.56-4.09,2.71-6.84-30.75-9.21,41.38-4.45,2.95-6.69-30.06-9,40.45-4.81,3.19-6.53-29.36-8.79,39.51-5.18,3.43-6.38-28.67-6.37,28.64Z"/>
  </g>
</svg>