<?xml version="1.0" encoding="UTF-8"?>
<svg id="Layer_2" data-name="Layer 2" xmlns="http://www.w3.org/2000/svg" viewBox="0 0 424.86 313.19">
  <defs>
    <style>
      .cls-1 {
        fill: #231f20;
        stroke-width: 0px;
      }
    </style>
  </defs>
  <g id="Layer_1-2" data-name="Layer 1">
    <path class="cls-1" d="M404.43,303.11V28.44c0-15.71-12.48-28.44-27.86-28.44H48.29c-15.39,0-27.86,12.74-27.86,28.44v274.67H0v10.07h53.04v-10.07h-20.43v-31.22h359.65v31.22h-20.43v10.07h53.04v-10.07h-20.43ZM356.43,11v250.63h-26.67V11h26.67ZM319.1,11v250.63h-26.67V11h26.67ZM281.76,11v250.63h-26.67V11h26.67ZM244.43,11v250.63h-26.67V11h26.67ZM207.1,11v250.63h-26.67V11h26.67ZM169.76,11v250.63h-26.67V11h26.67ZM132.43,11v250.63h-26.67V11h26.67ZM95.1,11v250.63h-26.67V11h26.67ZM32.61,68.33v-33.94c0-12.92,10.26-23.4,22.92-23.4h2.24v250.63h-25.16V68.33ZM367.1,261.63V11h2.24c12.66,0,22.92,10.47,22.92,23.4v227.23h-25.16Z"/>
  </g>
</svg>