<?xml version="1.0" encoding="UTF-8"?>
<svg id="Layer_2" xmlns="http://www.w3.org/2000/svg" viewBox="0 0 39.97 29.72">
  <defs>
    <style>
      .cls-1 {
        fill: #231f20;
      }
    </style>
  </defs>
  <g id="Layer_1-2" data-name="Layer_1">
    <path class="cls-1" d="M39.97,29.72h-5.86v-1.92h1.87v-1.86H3.99v1.86h1.87v1.92H0v-1.92h1.87V3.11C1.87,1.39,3.24,0,4.93,0h30.11c1.68,0,3.06,1.39,3.06,3.11v24.69h1.87v1.92ZM36.98,28.72h.12V3.11c0-1.16-.92-2.11-2.06-2.11H4.93c-1.13,0-2.05.95-2.05,2.11v25.62h.12V3.66c0-1.46,1.17-2.65,2.6-2.65h28.78c1.43,0,2.6,1.19,2.6,2.65v25.07ZM34.67,24h1.31V3.66c0-.8-.56-1.48-1.31-1.62v21.96ZM31.24,24h1.45V2.01h-1.45v21.99ZM27.82,24h1.45V2.01h-1.45v21.99ZM24.4,24h1.45V2.01h-1.45v21.99ZM20.97,24h1.45V2.01h-1.45v21.99ZM17.55,24h1.45V2.01h-1.45v21.99ZM14.12,24h1.45V2.01h-1.45v21.99ZM10.7,24h1.45V2.01h-1.45v21.99ZM7.28,24h1.45V2.01h-1.45v21.99ZM3.99,24h1.31V2.04c-.74.14-1.31.81-1.31,1.62v20.34Z"/>
  </g>
</svg>