<?xml version="1.0" encoding="UTF-8"?>
<svg id="Layer_2" xmlns="http://www.w3.org/2000/svg" viewBox="0 0 40.06 19.38">
  <defs>
    <style>
      .cls-1 {
        fill: #231f20;
      }
    </style>
  </defs>
  <g id="Layer_1-2" data-name="Layer_1">
    <path class="cls-1" d="M40.06,19.38h-5.88v-1.93h1.88v-1.87H4v1.87h1.88v1.93H0v-1.93h1.88V3.12C1.88,1.4,3.25,0,4.94,0h30.18c1.69,0,3.06,1.4,3.06,3.12v14.34h1.88v1.93ZM37.06,18.38h.12V3.12c0-1.17-.92-2.12-2.06-2.12H4.94c-1.14,0-2.06.95-2.06,2.12v15.27h.12V3.66c0-1.46,1.17-2.65,2.61-2.65h28.85c1.44,0,2.61,1.19,2.61,2.65v14.72ZM34.75,13.64h1.31V3.66c0-.81-.57-1.48-1.31-1.62v11.6ZM31.32,13.64h1.45V2.01h-1.45v11.63ZM27.89,13.64h1.45V2.01h-1.45v11.63ZM24.45,13.64h1.45V2.01h-1.45v11.63ZM21.02,13.64h1.45V2.01h-1.45v11.63ZM17.59,13.64h1.45V2.01h-1.45v11.63ZM14.16,13.64h1.45V2.01h-1.45v11.63ZM10.72,13.64h1.45V2.01h-1.45v11.63ZM7.29,13.64h1.45V2.01h-1.45v11.63ZM4,13.64h1.31V2.04c-.75.14-1.31.82-1.31,1.62v9.98Z"/>
  </g>
</svg>