<?xml version="1.0" encoding="UTF-8"?>
<svg id="Layer_2" data-name="Layer 2" xmlns="http://www.w3.org/2000/svg" viewBox="0 0 39.97 29.72">
  <defs>
    <style>
      .cls-1 {
        fill: none;
        stroke: #231f20;
        stroke-miterlimit: 10;
      }
    </style>
  </defs>
  <g id="Layer_1-2" data-name="Layer 1">
    <path class="cls-1" d="M37.59,28.3V3.11c0-1.44-1.14-2.61-2.56-2.61H4.93c-1.41,0-2.56,1.17-2.56,2.61v25.19H.5v.92h4.86v-.92h-1.87v-2.86h32.99v2.86h-1.87v.92h4.86v-.92h-1.87ZM33.19,1.51v22.99h-2.45V1.51h2.45ZM29.77,1.51v22.99h-2.45V1.51h2.45ZM26.34,1.51v22.99h-2.45V1.51h2.45ZM22.92,1.51v22.99h-2.45V1.51h2.45ZM19.49,1.51v22.99h-2.45V1.51h2.45ZM16.07,1.51v22.99h-2.45V1.51h2.45ZM12.65,1.51v22.99h-2.45V1.51h2.45ZM9.22,1.51v22.99h-2.45V1.51h2.45ZM3.49,6.77v-3.11c0-1.19.94-2.15,2.1-2.15h.21v22.99h-2.31V6.77ZM34.17,24.5V1.51h.21c1.16,0,2.1.96,2.1,2.15v20.84h-2.31Z"/>
  </g>
</svg>