<?xml version="1.0" encoding="UTF-8"?>
<svg id="Layer_2" data-name="Layer 2" xmlns="http://www.w3.org/2000/svg" viewBox="0 0 151.06 166.67">
  <defs>
    <style>
      .cls-1 {
        fill: #000;
      }

      .cls-1, .cls-2 {
        stroke-width: 0px;
      }

      .cls-2 {
        fill: none;
      }
    </style>
  </defs>
  <g id="Layer_1-2" data-name="Layer 1">
    <path class="cls-2" d="M99.1,36.95c-.12-.1-.31-.13-1.11-.45-9.38,30.34-18.66,60.36-28.04,90.69,2.07,0,3.39.09,4.7-.01,8.7-.72,8.99-.97,11.61-9.43,6.3-20.31,12.62-40.62,18.9-60.94q3.68-11.92-6.06-19.85Z"/>
    <path class="cls-1" d="M102.22,33.62c-1.22-1.03-1.88-3.76-1.53-5.44.99-4.66,2.65-9.17,4.19-14.23-5.27-1.67-9.68-3.08-14.09-4.46-6.62-2.07-8.46-1.08-10.51,5.62-1.86,6.07-3.72,12.14-5.59,18.21-9.63-4.63-18.6-2.76-21.15,7.17-2.4,9.3-5.63,18.39-8.46,27.42h-26.12c0-5.6,0-10.9,0-16.21q0-9.21-9-9.23c-1.78,0-3.56,0-5.83,0v-5.98c0-12.17,0-24.33,0-36.5H0C0,55.56,0,111.11.07,166.67h3.98c.12-19.31.08-38.62.08-57.93v-5.6c2.7,0,4.68,0,6.66,0,8.11-.01,8.15-.05,8.16-8.04,0-7.44,0-14.88,0-22.5h24.38c-.37,1.59-.59,2.87-.96,4.1-2.56,8.43-5.21,16.84-7.73,25.28-1.79,5.98-.36,8.58,5.56,10.54,1.5.5,7.17,1.91,9.25,2.56-2.18,7.01-4.35,14.03-6.55,21.03-.99,3.16-1.5,6.42,1.89,7.8,5.75,2.35,11.83,3.9,18.07,5.89,1.43-4.53,3.05-8.23,3.71-12.1.81-4.75,3.7-6.13,7.85-6.34,1.17-.06,2.33-.14,3.49-.22,6.14-.42,9.92-3.23,11.78-9.5,6.14-20.71,12.93-41.22,19.04-61.94,3.98-13.49,7.98-13.89-6.51-26.08ZM105.16,56.79c-6.28,20.32-12.61,40.63-18.9,60.94-2.62,8.46-2.91,8.72-11.61,9.43-1.31.11-2.63.01-4.7.01,9.38-30.33,18.66-60.35,28.04-90.69.81.32.99.35,1.11.45q9.71,7.91,6.06,19.85Z"/>
    <path class="cls-1" d="M147.58,44.54c-6.12.35-12.24.92-18.33,1.68-1.11.14-2.06,1.48-3.09,2.27,1.17.58,2.31,1.25,3.53,1.71.58.22,1.31.04.82.04,6.61-.5,12.08-.79,17.51-1.43,1.09-.13,2.02-1.61,3.03-2.47-1.16-.63-2.36-1.86-3.48-1.8Z"/>
    <path class="cls-1" d="M103.47,133.48c-.62-.5-1.39-.81-3.08-1.77-.3.66-1.01,1.47-.91,2.17.14,1.02.63,2.23,1.38,2.87,4.81,4.07,9.67,8.09,14.68,11.91.87.66,2.52.3,3.81.41-.4-1.23-.44-2.88-1.27-3.6-4.76-4.13-9.7-8.04-14.61-12Z"/>
    <path class="cls-1" d="M140.75,69.91c-5.05-.8-10.15-1.25-15.23-1.82,0,.03,0,.06,0,.09-.66-.05-1.37-.29-1.97-.12-1.42.41-2.79,1-4.18,1.52,1.34.87,2.58,2.29,4.02,2.52,5.54.87,11.12,1.47,16.71,1.89,1.16.09,2.41-1.03,3.61-1.59-.98-.86-1.87-2.31-2.96-2.49Z"/>
    <path class="cls-1" d="M115.95,89.59c-.81-.24-1.94.61-2.93.95.54,1.01.86,2.65,1.66,2.92,6.12,2.09,12.32,3.98,18.55,5.74.9.25,2.09-.53,4.29-1.16-1.87-1.52-2.58-2.48-3.51-2.79-5.99-1.99-12-3.91-18.06-5.67Z"/>
    <path class="cls-1" d="M125.88,120.27c-5.02-2.93-10.21-5.6-15.34-8.33-.72-.38-1.5-.65-2.51-1.09-.59.45-1.73.98-1.68,1.36.13,1.01.5,2.43,1.25,2.86,5.49,3.13,11.05,6.15,16.7,8.98.88.44,2.33-.25,3.52-.42-.63-1.15-.97-2.79-1.93-3.36Z"/>
  </g>
</svg>