<?xml version="1.0" encoding="UTF-8"?>
<svg id="Layer_2" data-name="Layer 2" xmlns="http://www.w3.org/2000/svg" viewBox="0 0 190.18 434.3">
  <defs>
    <style>
      .cls-1 {
        fill: #000;
        stroke-width: 0px;
      }
    </style>
  </defs>
  <g id="Layer_1-2" data-name="Layer 1">
    <path class="cls-1" d="M190.14,152.49c.14-2.09-.54-3.74-1.67-5.15-.21-.38-.43-.75-.68-1.1-1.98-2.88-8.45-9.96-13.36-15.31.98-1.32,1.6-2.15,1.6-2.15,0,0-25.31-28.95-31.35-32.91-1.04-.68-2.14-1.27-3.24-1.8-3.2-1.83-9.46-3.4-15.22-5.2-3.49-1.09-6.76-2.32-9.1-3.25l.02-.02-6.16-7.24-1.41,1.02c-.13-.25-.22-.49-.27-.73-.2-.9-.48-2.74-.78-4.96-.04-.26-.07-.53-.11-.81,0-.05-.01-.11-.02-.17-.04-.3-.08-.61-.12-.92,0-.02,0-.03,0-.05-.3-2.33-.61-4.87-.88-7.12,4.09-4.69,7.31-11.32,8.25-18.29.03-.04.95-1.5,1.08-2.02.13-.53,1.6-7.14,1.86-7.93.14-.43-.34-2.23-.97-4.12v-5.13c1.19-.22,8.5-1.76,8.5-5.95,0-4.9-22.34-21.19-31.09-21.19s-31.09,16.3-31.09,21.19c0,4.13,7.12,5.68,8.47,5.94v5c-.23.62-.41,1.19-.52,1.67-.67,3.04,2.37,9.79,3.27,11.38,0,0,.04-.16.11-.44.61,7.24,3.87,14.27,8.05,19.29-.64,5.32-1.6,12.97-2.09,15.16-.03.13-.08.26-.13.39l-1.68-1.21-6.12,7.2c-2.34.92-5.62,2.14-9.09,3.21-4.33,1.33-8.94,2.54-12.33,3.83-2.02.49-4.05,1.2-5.82,2.27-6.19,3.73-30.98,32.99-30.98,32.99,0,0,.58.86,1.52,2.21-5.11,5.16-11.85,11.99-13.93,14.79-1.13,1.52-1.94,3.22-2.35,4.95-.22.7-.33,1.46-.31,2.3-.04,1.78.39,3.52,1.39,5.05,1.19,2.46,3.19,5.38,6.28,8.9,8.97,10.24,31.35,30.21,36.08,34.4l.03.25s3.32,2.45,7.1,4.09c1.21.52,2.93.97,4.72,1.34v4.17c0,.42.34.76.76.76h1.8c-2.19,7.69-4.71,17.25-5.82,24-2.15,13.11-1.75,71.43-2.39,77.78-.64,6.35-3.12,25.8-4.72,44.96-1.6,19.16-.55,57.31-.55,57.31l2.51.2c-2.36,2.33-8.41,8.51-8.27,10.62.1,1.49,3.07,7.18,9.44,8.24,4.84.8,13.25-2.82,14.5-2.81,2.46,0,3.97-11.06,4.38-14.44l1.98.16h0s0,0,0,0c0,0,6.02-57.53,8.7-83.14.5-4.74.88-8.39,1.09-10.37.03-.28.07-.59.11-.92,0-.07.02-.15.03-.22.04-.33.09-.68.15-1.06,0-.05.02-.1.02-.15.05-.35.11-.72.17-1.11.01-.09.03-.18.04-.27.07-.43.14-.88.22-1.36.01-.08.03-.17.04-.26.07-.44.15-.89.23-1.36.01-.08.03-.16.04-.24.09-.52.18-1.05.28-1.61.02-.13.05-.26.07-.38.1-.55.2-1.1.3-1.68,0-.03,0-.05.01-.08.11-.61.23-1.24.35-1.88.02-.13.05-.26.07-.39.12-.64.24-1.29.37-1.96.01-.06.02-.11.03-.17.12-.63.24-1.28.37-1.94.03-.13.05-.27.08-.4.13-.68.26-1.38.4-2.08.03-.15.06-.3.09-.45.12-.6.24-1.21.36-1.83.03-.16.06-.32.09-.48.14-.71.28-1.43.42-2.15.04-.19.08-.39.12-.58.13-.64.26-1.29.39-1.95.02-.12.05-.24.07-.36.15-.73.29-1.47.44-2.21.05-.24.1-.48.15-.72.15-.75.3-1.5.46-2.26,0-.03.01-.07.02-.1.15-.76.31-1.52.47-2.29.04-.2.08-.41.12-.61.15-.76.31-1.51.46-2.27.04-.21.08-.41.13-.62.12-.56.23-1.13.35-1.69.06-.28.12-.56.17-.85.15-.71.29-1.41.44-2.12.06-.28.12-.56.17-.83.1-.5.21-1.01.31-1.51.06-.3.12-.6.19-.89.14-.67.28-1.34.42-2.01.06-.31.13-.61.19-.92.11-.52.22-1.04.32-1.55.07-.32.13-.64.2-.95.12-.55.23-1.1.35-1.65.07-.35.15-.69.22-1.03.1-.48.2-.96.3-1.44.11-.51.21-1.01.32-1.5.05-.21.09-.43.14-.64.31-1.46.61-2.88.9-4.25.01-.05.02-.11.03-.16,1.9-8.97,3.35-15.63,3.64-17,1.84,8.41,14.74,67.6,15.98,79.39,1.33,12.7,9.78,93.51,9.78,93.51l1.98-.16c.41,3.38,1.92,14.45,4.38,14.44,1.25,0,9.66,3.62,14.5,2.81,6.37-1.06,9.34-6.75,9.44-8.24.14-2.12-5.91-8.3-8.27-10.62l2.51-.2s.02-.6.04-1.68c.09-3.78.29-13.5.3-24.37s-.19-22.88-.89-31.26c-1.6-19.16-4.08-38.61-4.72-44.96-.11-1.09-.19-3.72-.26-7.39-.01-.67-.02-1.37-.04-2.1-.03-2.2-.07-4.68-.1-7.37-.02-1.79-.04-3.67-.06-5.62,0-.49-.01-.98-.02-1.47-.02-1.48-.03-3-.05-4.54,0-.51-.01-1.03-.02-1.55-.24-18.69-.64-40.37-1.85-47.74-1.11-6.75-3.63-16.31-5.82-24h1.54c.42,0,.76-.34.76-.76v-4.2c1.74-.36,3.41-.8,4.58-1.31,3.77-1.64,7.1-4.09,7.1-4.09v-.11c3.66-3.18,27.4-24,36.76-34.52,1.9-2.14,3.4-4.06,4.55-5.78.09-.06.19-.12.27-.18,2.35-2.02,3.2-4.79,2.94-7.62ZM60.37,190.22c-.87-.4-1.62-.7-2.13-.82-1.43-.34-6.28-.27-10.27-.15-4.56-8.42-12.66-23.06-16.27-27.57-1.64-2.05-4.06-5.36-6.92-8.61,1.31-1.03,3.05-2.45,5.07-4.18.14.16.24.28.29.32.91.69,21.54-14.94,24.25-17,2.49,9.24,4.72,17.31,5.72,20.73.21.74.38,1.29.48,1.59,1.19,3.46-1.07,23-.23,35.68ZM123.19,112.91c-1.8,3.87-4.48,5.03-5.31,5.3-.17.06-.35.06-.52,0-.84-.28-3.51-1.43-5.31-5.3-1.13-2.43-1.09-6.6-1.01-8.38.02-.48.4-.86.88-.89.66-.04,1.61-.12,2.43-.27,1.07-.19,2.36-.7,2.95-.95.21-.09.44-.09.65,0,.59.25,1.89.75,2.95.95.82.15,1.77.23,2.43.27.48.03.86.41.88.89.08,1.79.13,5.96-1.01,8.38ZM158.38,161.53c-3.69,4.54-12.03,19.38-16.62,27.73-4.04-.13-9.13-.21-10.6.14-.45.11-1.1.36-1.86.7.73-13.22-.91-32.57.29-36.04.64-1.86,3.46-12.1,6.39-23.5.2.52.32.81.32.81,0,0,22.88,18.84,23.87,18.14.06-.04.16-.15.3-.31,1.79,1.65,3.35,3.04,4.58,4.1-2.76,3.12-5.08,6.25-6.68,8.22Z"/>
  </g>
</svg>