<?xml version="1.0" encoding="UTF-8"?>
<svg id="Layer_2" data-name="Layer 2" xmlns="http://www.w3.org/2000/svg" viewBox="0 0 288 315.93">
  <defs>
    <style>
      .cls-1 {
        fill: #000;
        stroke-width: 0px;
      }
    </style>
  </defs>
  <g id="Layer_1-2" data-name="Layer 1">
    <g>
      <path class="cls-1" d="M143.88,91.44c-10-.15-18.3,7.92-18.33,17.82-.03,9.63,8.02,17.87,17.68,18.1,9.81.24,18.14-7.98,18.2-17.97.07-9.88-7.68-17.81-17.55-17.95Z"/>
      <path class="cls-1" d="M245.03,299.95v-6.42c0-91.16,0-182.32,0-273.48,0-13.58-6.35-20.03-19.8-20.03C170.89,0,116.56,0,62.23.01c-13.72,0-20.29,6.55-20.29,20.16,0,90.66,0,181.32,0,271.98v7.34c-1.46.18-2.71.47-3.96.47-12.66.03-25.32.02-37.98.02v15.94h288v-15.98c-14.16,0-28.33,0-42.97,0ZM49.25,113.26c0-1.19.96-2.15,2.15-2.15h2.52c1.19,0,2.15.96,2.15,2.15v28.15c0,1.19-.96,2.15-2.15,2.15h-2.52c-1.19,0-2.15-.96-2.15-2.15v-28.15ZM52.81,155.56c-2.29.06-4.18-1.78-4.13-4.02.05-2.07,1.97-3.95,4.02-3.94,2.12,0,3.9,1.79,3.93,3.96.03,2.2-1.64,3.95-3.82,4.01ZM165.34,10.98c4.14-.08,7.6,3.45,7.51,7.67-.09,4.04-3.35,7.16-7.44,7.12-4.04-.04-7.31-3.28-7.35-7.29-.04-3.78,3.5-7.41,7.28-7.49ZM144.07,10.99c3.98.32,6.98,3.78,6.78,7.82-.2,4.08-3.49,7.1-7.58,6.95-4.02-.14-7.27-3.53-7.18-7.48.08-3.99,4.05-7.61,7.98-7.29ZM121.62,10.98c3.94.01,7.24,3.33,7.3,7.35.06,4.09-3.04,7.34-7.09,7.44-4.26.11-7.77-3.31-7.67-7.47.09-3.83,3.66-7.33,7.46-7.32ZM224.11,293.68v6.07h-83.05v-5.73c0-21.6,0-43.2,0-64.79,0-1.53-.3-3.17.16-4.56.38-1.18,1.65-2.06,2.53-3.08.7.98,1.66,1.88,2.01,2.98.35,1.08.09,2.36.09,3.55,0,21.94,0,43.88.01,65.81,0,1.95.16,3.9.25,5.74h16.17v-6.41c0-32.73,0-64.44,0-97.17h4.85c5.78-2.01,8.21-4.69,8.28-9.67.15-11.56.62-23.17-.28-34.67-.35-4.42-2.98-10.13-6.45-12.56-8.79-6.14-18.91-10.32-30.07-8.3-5.62,1.02-11.13,3.16-16.39,5.46-5.99,2.62-9.93,7.54-10.17,14.19-.44,12.05-.43,24.13-.26,36.2.07,4.8,2.77,8.11,8.23,9.52.02-.44.04.22.06-.14h4.63c0,32.83,0,64.6,0,97.43v6.21h-61.82v-5.25c0-86.79,0-173.58.01-260.38,0-9.32,3.71-13.08,12.91-13.17,3.16-.03,6.34.14,9.49-.05,8.85-.51,15.7,2.31,20.86,10.05,1.7,2.55,6.04,4.62,9.23,4.7,18.65.44,37.31.21,55.97.23,4.57,0,8.06-1.94,10.41-5.77,4.08-6.63,10.1-9.34,17.67-9.19,3.33.07,6.66.01,9.99.01,11.68,0,14.66,3.01,14.66,14.87,0,40.31,0,80.63,0,120.94,0,45.65,0,91.29,0,136.93ZM230.58,113.26c0-1.19.96-2.15,2.15-2.15h2.52c1.19,0,2.15.96,2.15,2.15v28.15c0,1.19-.96,2.15-2.15,2.15h-2.52c-1.19,0-2.15-.96-2.15-2.15v-28.15ZM234.15,155.56c-2.29.06-4.18-1.78-4.13-4.02.05-2.07,1.97-3.95,4.02-3.94,2.12,0,3.9,1.79,3.93,3.96.03,2.2-1.64,3.95-3.82,4.01Z"/>
    </g>
  </g>
</svg>