<?xml version="1.0" encoding="UTF-8"?>
<svg id="Layer_2" data-name="Layer 2" xmlns="http://www.w3.org/2000/svg" viewBox="0 0 292.44 311.78">
  <defs>
    <style>
      .cls-1 {
        fill: #000;
      }

      .cls-1, .cls-2 {
        stroke-width: 0px;
      }

      .cls-2 {
        fill: none;
      }
    </style>
  </defs>
  <g id="Layer_1-2" data-name="Layer 1">
    <path class="cls-2" d="M168.68,25.76c4.09.04,7.35-3.08,7.44-7.12.09-4.22-3.36-7.75-7.5-7.67-3.79.07-7.33,3.71-7.29,7.49.04,4.01,3.31,7.26,7.35,7.29Z"/>
    <path class="cls-2" d="M125.11,25.77c4.05-.1,7.15-3.36,7.09-7.44-.06-4.01-3.36-7.34-7.3-7.35-3.8,0-7.37,3.49-7.46,7.32-.1,4.15,3.41,7.57,7.67,7.47Z"/>
    <path class="cls-2" d="M146.54,25.76c4.09.14,7.38-2.87,7.58-6.95.2-4.04-2.81-7.51-6.78-7.82-3.93-.31-7.89,3.31-7.98,7.29-.08,3.96,3.16,7.34,7.18,7.48Z"/>
    <path class="cls-2" d="M55.97,147.6c-2.05,0-3.97,1.88-4.02,3.94-.05,2.24,1.84,4.08,4.13,4.02,2.18-.05,3.85-1.81,3.82-4.01-.03-2.16-1.81-3.95-3.93-3.96Z"/>
    <rect class="cls-2" x="52.52" y="111.12" width="6.81" height="32.44" rx="2.15" ry="2.15"/>
    <path class="cls-2" d="M180.66,130.48v68.76h.04v-68.92h-68.92v68.92h0v-68.76h68.87Z"/>
    <path class="cls-2" d="M237.3,147.6c-2.05,0-3.97,1.88-4.02,3.94-.05,2.24,1.84,4.08,4.13,4.02,2.18-.05,3.85-1.81,3.82-4.01-.03-2.16-1.81-3.95-3.93-3.96Z"/>
    <path class="cls-2" d="M212.72,20.94c-3.33,0-6.66.05-10-.01-7.57-.15-13.59,2.56-17.67,9.19-2.35,3.82-5.84,5.77-10.41,5.77-18.66-.02-37.32.21-55.97-.23-3.19-.07-7.53-2.15-9.23-4.7-5.16-7.74-12.01-10.56-20.86-10.05-3.15.18-6.33.01-9.49.05-9.21.09-12.91,3.85-12.91,13.17-.01,86.79-.01,173.58-.01,260.38v5.25h62.2v-6.08c0-30.44,0-60.88,0-91.32h-19.66v-75.11h75.11v75.11h-18.65c0,30.35,0,60.7,0,91.04v6.28h-15.84c-.08-1.81-.24-3.72-.24-5.63-.02-21.49-.01-42.99-.01-64.48,0-1.17.25-2.42-.09-3.47-.35-1.07-1.29-1.95-1.97-2.92-.86.99-2.1,1.86-2.48,3.02-.44,1.36-.15,2.97-.15,4.46,0,21.16,0,42.32,0,63.48v5.62h82.99v-6.07c0-45.64,0-91.29,0-136.93,0-40.31,0-80.63,0-120.94,0-11.86-2.98-14.87-14.66-14.87ZM146.5,123.94c-9.46-.23-17.34-8.3-17.32-17.74.03-9.7,8.16-17.61,17.96-17.46,9.67.14,17.26,7.91,17.19,17.59-.07,9.79-8.22,17.84-17.83,17.61Z"/>
    <rect class="cls-2" x="233.85" y="111.12" width="6.81" height="32.44" rx="2.15" ry="2.15"/>
    <path class="cls-1" d="M147.14,88.74c-9.79-.15-17.93,7.76-17.96,17.46-.03,9.43,7.86,17.51,17.32,17.74,9.61.23,17.77-7.82,17.83-17.61.06-9.68-7.53-17.45-17.19-17.59Z"/>
    <path class="cls-1" d="M248.3,299.95v-6.42c0-91.16,0-182.32,0-273.48,0-13.58-6.35-20.03-19.8-20.03-54.33-.01-108.66-.01-162.99,0-13.72,0-20.29,6.55-20.29,20.16,0,90.66,0,181.32,0,271.98,0,2.32,0,4.64,0,7.34-1.46.18-2.71.47-3.96.47-13,.03-26,.02-39,.02-.17,0-.36.05-.5-.01-.59-.28-1.17-.57-1.76-.86v12.66h292.44v-11.83c-14.55,0-29.1,0-44.14,0ZM52.52,113.26c0-1.19.96-2.15,2.15-2.15h2.52c1.19,0,2.15.96,2.15,2.15v28.15c0,1.19-.96,2.15-2.15,2.15h-2.52c-1.19,0-2.15-.96-2.15-2.15v-28.15ZM56.08,155.56c-2.29.06-4.18-1.78-4.13-4.02.05-2.07,1.97-3.95,4.02-3.94,2.12,0,3.9,1.79,3.93,3.96.03,2.2-1.64,3.95-3.82,4.01ZM168.62,10.98c4.14-.08,7.6,3.45,7.5,7.67-.09,4.04-3.35,7.16-7.44,7.12-4.04-.04-7.31-3.28-7.35-7.29-.04-3.78,3.5-7.41,7.29-7.49ZM147.34,10.99c3.98.32,6.98,3.78,6.78,7.82-.2,4.08-3.49,7.1-7.58,6.95-4.02-.14-7.26-3.53-7.18-7.48.08-3.99,4.05-7.61,7.98-7.29ZM124.9,10.98c3.94.01,7.24,3.33,7.3,7.35.06,4.09-3.04,7.34-7.09,7.44-4.26.11-7.77-3.31-7.67-7.47.09-3.83,3.66-7.33,7.46-7.32ZM227.38,293.68v6.07h-82.99v-5.62c0-21.16,0-42.32,0-63.48,0-1.5-.29-3.1.15-4.46.38-1.15,1.62-2.02,2.48-3.02.68.96,1.62,1.84,1.97,2.92.34,1.06.09,2.31.09,3.47,0,21.49,0,42.99.01,64.48,0,1.91.16,3.82.24,5.63h15.84v-6.28c0-30.35,0-60.7,0-91.04h18.65v-75.11h-75.11v75.11h19.66c0,30.44,0,60.88,0,91.32v6.08h-62.2v-5.25c0-86.79,0-173.58.01-260.38,0-9.32,3.71-13.08,12.91-13.17,3.17-.03,6.34.14,9.49-.05,8.85-.51,15.7,2.31,20.86,10.05,1.7,2.55,6.04,4.62,9.23,4.7,18.65.44,37.31.21,55.97.23,4.57,0,8.06-1.94,10.41-5.77,4.08-6.63,10.1-9.34,17.67-9.19,3.33.07,6.66.01,10,.01,11.68,0,14.66,3.01,14.66,14.87,0,40.31,0,80.63,0,120.94,0,45.65,0,91.29,0,136.93ZM111.78,199.24v-68.92h68.92v68.92h-.04v.11h-68.87v-.11h0ZM233.85,113.26c0-1.19.96-2.15,2.15-2.15h2.52c1.19,0,2.15.96,2.15,2.15v28.15c0,1.19-.96,2.15-2.15,2.15h-2.52c-1.19,0-2.15-.96-2.15-2.15v-28.15ZM237.42,155.56c-2.29.06-4.18-1.78-4.13-4.02.05-2.07,1.97-3.95,4.02-3.94,2.12,0,3.9,1.79,3.93,3.96.03,2.2-1.64,3.95-3.82,4.01Z"/>
    <path class="cls-1" d="M165.18,199.35h15.48v-.11h-15.48v.11Z"/>
    <path class="cls-1" d="M111.79,199.24v.11h16.58v-.11h-16.58Z"/>
    <path class="cls-1" d="M165.18,199.24h-36.8v.11h36.8v-.11Z"/>
    <path class="cls-1" d="M123.37,179.92c.94,2.95,1.57,5.47,2.53,7.86,1.63,4.08,3.48,4.37,6.07.71,2.35-3.32,4.23-6.96,6.31-10.47.09-.15.03-.38.05-.76-4.62,2.46-9.11,4.79-14.96,2.67Z"/>
    <path class="cls-1" d="M154.74,177.18c-.13.1-.25.21-.38.31,1.99,3.31,3.89,6.68,6,9.91.8,1.22,2.01,2.2,3.13,3.17.78.67,1.69.55,2.3-.34,2.1-3.06,2.87-6.57,3.67-10.31-5.67,2.19-10.16-.51-14.73-2.74Z"/>
    <path class="cls-1" d="M125.74,159.39c4.19-.34,8.37-.77,12.55-1.18,1.55-.15,3.1-.32,4.63-.48v-8.5c-5.85-.09-11.9,1.34-17.46-2.51-.38.32-.94.64-1.29,1.11-.74.98-1.36,2.04-2.04,3.07,1.24.51,2.45,1.39,3.71,1.46,3.76.22,7.53.15,11.3.15,1.33,0,2.67-.18,3.99-.1.45.03,1.18.57,1.22.94.05.43-.42,1.11-.85,1.35-.55.3-1.28.31-1.94.36-1.44.11-2.88.2-4.32.23-4.75.11-9.52.39-14.07-1.45-1.66,2.63-.96,4.55,1.93,5.2.86.19,1.76.41,2.63.34Z"/>
    <path class="cls-1" d="M145.65,146.07c.11,1.54.02,3.1.04,4.66.02,2.81,0,5.62.11,8.43.03.7.54,1.37.83,2.06l.6-.21c1.3-3.49,1.2-7.14,1.2-10.8,0-3.2-.17-6.48,3.65-8.08,1.15-.48.58-1.59.09-2.45-.52-.91-1.14-.69-1.77-.16-1.93,1.63-3.94,1.52-5.99.26-1.41-.87-2.13.2-2.57,1.15-.16.34.64,1.59,1.13,1.67,2.05.36,2.56,1.77,2.68,3.45Z"/>
    <path class="cls-1" d="M151.07,149.28c.02,1.22.03,2.45,0,3.67.37-.41,1.15-.77,1.67-.77,4.33,0,8.65.22,12.98.23,1.36,0,2.75-.33,4.07-.7,1.63-.46,1.82-1.21.82-2.53-.8-1.07-1.61-2.13-2.45-3.23-2.41,2.4-4.83,2.93-7.35,3.02-3.05.11-6.11.05-9.17.11-.21,0-.4,0-.58-.04,0,.08,0,.17,0,.25Z"/>
    <path class="cls-1" d="M162.71,155.14c-3.43.1-6.87-.23-10.31-.41-.53-.03-1.07-.19-1.36-.53-.05,1.33-.15,2.66-.36,3.99.4-.39,1.28-.69,1.79-.59,5.35,1.04,10.7,1.94,16.18,1.51.49-.04.99-.11,1.47-.22,3.09-.76,3.69-2.17,2.34-4.77-3.34.38-6.54.94-9.76,1.04Z"/>
    <path class="cls-1" d="M151.91,170.23c-.46-.2-1-.37-1.29-.72-.01-.01-.02-.03-.03-.04-.08.09-.17.17-.25.23-1.05.76-5.57.41-6.54-.34-6.62,2.85-12.9,6.59-20.54,5.34-.21,1.41.72,2.75,2.46,3.36,2.13.76,4.22.33,6.15-.52,2.53-1.11,4.93-2.5,7.37-3.79.49-.26.89-.74,1.4-.88.68-.18,1.42-.11,2.13-.15,0,.09,0,.19,0,.29.2-.21.44-.38.62-.39,2.09-.12,4.19-.15,6.28-.05.21.01.52.23.75.48.09-.86.7-1.15,1.63-.65,1.56.84,3.03,1.84,4.55,2.75,3.03,1.81,6.16,3.29,9.85,2.99,2.13-.18,3.55-1.44,3.88-3.69-6.77,1.31-12.55-1.64-18.41-4.22Z"/>
    <path class="cls-1" d="M114.72,133.08v63.59h63.46v-63.59h-63.46ZM149.32,194.63c-.82.21-1.76.05-2.66.05,0,.04,0,.09,0,.13-1.08-.08-2.18-.06-3.22-.28-.45-.1-1.05-.68-1.06-1.04,0-.35.65-.98,1.06-1.01,1.96-.13,3.94-.16,5.9-.06.51.03.98.65,1.48,1-.49.42-.91,1.06-1.5,1.21ZM142.42,188.57c-.1-.3.68-1.16,1.12-1.18,1.96-.12,3.95-.11,5.91.03.49.04.92.75,1.38,1.16-.54.4-1.02,1.01-1.63,1.14-.9.2-1.9.05-2.86.05h0c-.83,0-1.71.15-2.48-.04-.58-.15-1.27-.68-1.42-1.16ZM149.44,184.7c-1.96.12-3.95.1-5.91-.03-.44-.03-1.15-.77-1.13-1.16.02-.37.78-.92,1.3-1.01.92-.17,1.9-.05,2.86-.05.72,0,1.45-.08,2.16-.04.24.01.47.04.69.08.54.11.94.71,1.41,1.08-.46.39-.89,1.09-1.38,1.12ZM149.41,177.49c.54.11.95.74,1.41,1.13-.47.39-.91,1.09-1.41,1.13-1.96.14-3.95.13-5.92,0-.42-.03-1.1-.81-1.07-1.21.03-.4.75-.97,1.26-1.07.91-.18,1.9-.05,2.86-.05h0c.96.01,1.95-.12,2.86.06ZM175.18,158.28c-1.11,1.35-.83,2.81-.86,4.36-.04,1.91-.7,3.79-.88,5.7-.54,5.9-.81,11.85-2.71,17.53-.66,1.97-1.59,3.91-2.73,5.65-1.57,2.38-3.79,2.8-5.98,1-1.85-1.53-3.65-3.33-4.87-5.37-2.35-3.93-4.29-8.11-6.37-12.2-.14-.27-.23-.58-.29-.89-.28.32-.72.61-1.1.67-.98.17-2.03.05-3.05.05h0c-.89,0-1.82.12-2.66-.05-.32-.06-.67-.28-.93-.54-.02.18-.06.35-.14.5-2.38,4.62-4.7,9.28-7.36,13.75-1.01,1.7-2.7,3.1-4.33,4.29-2.12,1.56-4.02,1.1-5.6-1.02-2.17-2.91-3.33-6.28-3.88-9.79-.72-4.59-1.11-9.24-1.69-13.86-.15-1.19-.57-2.36-.7-3.55-.28-2.45.06-5.01-1.34-7.26-.18-.29-.18-.79-.09-1.14.92-3.63,1.72-7.3,4.65-10.03,1.82-1.69,3.48-3.55,5.22-5.33.23-.24.42-.54.68-.73.79-.56,1.46-1.97,2.61-.9,1.19,1.09-.23,1.81-.72,2.63-.66,1.11-1.31,2.23-1.96,3.34,1.25.47,2.47,1.22,3.76,1.34,2.92.27,5.87.23,8.81.31.76.02,1.51,0,2.83,0-.6-.69-.93-1.33-1.45-1.61-3.72-2.05-3.92-5.3-.47-7.67,1.52-1.05,2.94-.7,4.35.15,1.01.61,1.89.63,2.9-.09,2.28-1.63,3.97-1.32,5.47.88,1.61,2.36,1.43,4.83-.84,6.06-1.12.61-1.73,1.39-2.05,2.29.1,0,.21,0,.31,0,3.33-.08,6.67-.09,9.98-.34,1.13-.08,2.22-.77,3.33-1.19-.5-1-.97-2.02-1.52-2.99-.27-.47-.83-.81-1.02-1.3-.21-.55-.14-1.2-.19-1.8.65.04,1.48-.15,1.91.17.91.7,1.6,1.68,2.4,2.52,1.07,1.12,2.04,2.37,3.25,3.29,3.76,2.85,4.7,7.05,5.61,11.26.13.6.07,1.48-.29,1.92Z"/>
    <path class="cls-1" d="M164.37,161.72c-4.18-.42-8.33-1.08-12.49-1.69-.57-.08-1.17-.33-1.39-.78-.12.58-.25,1.17-.41,1.75-.72,2.59-1.03,2.8-3.68,2.81-1.11,0-1.79-.41-2.16-1.41-.37-.97-.73-1.95-1.09-2.92-3.46,1.84-14.43,2.95-21.33,2.15-.5,2.87.28,3.9,3.12,4.2,4.5.48,8.63-1.09,12.83-2.25,1.22-.34,2.44-.71,3.63-1.16,1-.38,1.89-.22,2.14.77.1.4-.66,1.35-1.2,1.54-6.22,2.14-12.4,4.56-19.2,3.67-.2-.03-.42.03-.63.05.17,3.06,1.79,4.31,4.89,3.89,4.56-.61,8.74-2.35,12.88-4.23.99-.45,2.02-1.39,3.17-.21.08.08.45-.16.69-.17,1.92-.09,3.85-.22,5.77-.17.13,0,.27.08.4.18.51-.21,1.04-.5,1.42-.36,2.02.74,3.94,1.75,5.96,2.52,3.1,1.18,6.22,2.37,9.64,2.19,2.43-.13,3.52-1.37,3.34-4-4.04.81-7.84.05-11.59-1.01-2.66-.75-5.31-1.54-7.92-2.44-.56-.19-1.33-.94-1.33-1.43,0-1.41,1.08-1.25,2.06-.98,3.57.99,7.11,2.09,10.71,2.94,1.81.43,3.73.54,5.6.54,2.74,0,3.77-1.36,3.44-3.97-2.45,0-4.88.2-7.28-.04Z"/>
    <path class="cls-1" d="M146.32,189.78h0c.96,0,1.96.14,2.86-.06.62-.13,1.09-.75,1.63-1.14-.46-.4-.88-1.12-1.38-1.16-1.96-.15-3.94-.15-5.91-.03-.43.03-1.21.88-1.12,1.18.15.48.84,1,1.42,1.16.76.2,1.65.05,2.48.05Z"/>
    <path class="cls-1" d="M143.45,192.48c-.41.03-1.07.66-1.06,1.01,0,.37.61.95,1.06,1.04,1.04.22,2.14.2,3.22.28,0-.04,0-.09,0-.13.89,0,1.83.16,2.66-.05.58-.15,1-.79,1.5-1.21-.49-.35-.96-.98-1.48-1-1.96-.1-3.94-.07-5.9.06Z"/>
    <path class="cls-1" d="M143.69,177.47c-.52.1-1.23.68-1.26,1.07-.03.4.65,1.18,1.07,1.21,1.97.13,3.95.13,5.92,0,.5-.03.94-.73,1.41-1.13-.47-.39-.87-1.02-1.41-1.13-.9-.19-1.9-.05-2.86-.05h0c-.96-.01-1.95-.14-2.86.04Z"/>
    <path class="cls-1" d="M148.72,182.41c-.71-.04-1.44.04-2.16.04-.96,0-1.94-.12-2.86.05-.52.1-1.28.64-1.3,1.01-.02.39.69,1.13,1.13,1.16,1.96.14,3.95.15,5.91.03.49-.03.92-.73,1.38-1.12-.47-.38-.87-.98-1.41-1.08-.23-.05-.46-.07-.69-.08Z"/>
  </g>
</svg>