<?xml version="1.0" encoding="UTF-8"?>
<svg id="Layer_2" data-name="Layer 2" xmlns="http://www.w3.org/2000/svg" viewBox="0 0 142.64 187.31">
  <defs>
    <style>
      .cls-1 {
        fill: #000;
        stroke-width: 0px;
      }
    </style>
  </defs>
  <g id="Layer_1-2" data-name="Layer 1">
    <path class="cls-1" d="M31.73,177.81v-102.98c2.41,0,14.04-.04,16.16,0,1.58.04,2.87-.22,3.88-.74l4.6,4.6c.39.42.8.83,1.24,1.25,14.02,13.25,27.42,27.16,41.06,40.81.82.82,1.56,2.13,2.52,2.33,1.88.4,4.6.94,5.64-.02.99-.92.43-3.69.24-5.61-.06-.65-1.06-1.22-1.65-1.8-16.47-16.47-32.94-32.94-49.42-49.4-.44-.44-.91-.85-1.39-1.27,0-5.35.01-10.69.01-16.04,18.43,0,36.42,0,54.39,0,9.32,0,18.64.21,27.94-.2,1.74-.08,3.37-2.68,5.04-4.12-1.61-1.32-3.47-3.74-5.07-3.9-.83-.08-1.09-.08-1.76-.08-26.86,0-53.71,0-80.57,0,0-1.64-.01-3.29-.02-4.93-.04-5.08-1.83-6.69-7.03-6.79-2.08-.04-13.67,0-15.83,0V6.95c0-3.84-3.11-6.95-6.95-6.95H6.95C3.11,0,0,3.11,0,6.95v180.36h142.64v-9.5H31.73Z"/>
  </g>
</svg>