<?xml version="1.0" encoding="UTF-8"?>
<svg id="Layer_2" data-name="Layer 2" xmlns="http://www.w3.org/2000/svg" viewBox="0 0 22.74 16.32">
  <defs>
    <style>
      .cls-1 {
        fill: #000;
        stroke-width: 0px;
      }
    </style>
  </defs>
  <g id="Layer_1-2" data-name="Layer 1">
    <path class="cls-1" d="M4.39,14.38v-5.38c-.48,0-.95,0-1.42,0-.79,0-1.58,0-2.38,0-.36,0-.6-.23-.6-.59C0,5.81,0,3.22,0,.62,0,.27.23.04.59,0c.06,0,.12,0,.18,0,7.05,0,14.11,0,21.16,0,.07,0,.15,0,.22,0,.37.03.59.27.59.64,0,2.04,0,4.08,0,6.12,0,.53,0,1.05,0,1.58,0,.43-.22.66-.65.66-1.1,0-2.21,0-3.31,0-.06,0-.13,0-.21,0v5.37h.23c.82,0,1.64,0,2.46,0,.47,0,.71.24.71.7,0,.19,0,.38,0,.58,0,.37-.21.6-.58.65-.06,0-.12,0-.18,0-2.15,0-4.31,0-6.46,0-.26,0-.5-.05-.64-.3-.04-.08-.07-.18-.08-.27-.01-.24,0-.49,0-.73,0-.41.24-.64.64-.64.83,0,1.66,0,2.49,0,.08,0,.16,0,.25,0v-5.36H5.57v5.36h.24c.81,0,1.63,0,2.44,0,.48,0,.72.24.72.72,0,.18,0,.37,0,.55,0,.39-.23.63-.62.67-.04,0-.09,0-.13,0-2.16,0-4.32,0-6.48,0-.27,0-.52-.06-.65-.33-.06-.12-.07-.27-.07-.4,0-.19,0-.38.01-.57,0-.41.23-.64.65-.64.84,0,1.69,0,2.53,0h.2ZM6.2,7.83s.06.03.07.03c.97,0,1.93,0,2.9,0,.07,0,.15-.05.21-.1.77-.7,1.54-1.41,2.3-2.11,1.4-1.28,2.8-2.57,4.19-3.85.23-.21.45-.42.69-.64-.05-.01-.07-.02-.09-.02-.96,0-1.92,0-2.89,0-.08,0-.17.05-.23.1-.82.74-1.64,1.49-2.45,2.24-1.03.95-2.06,1.9-3.1,2.85-.53.49-1.06.98-1.61,1.48ZM1.15,7.87c.16,0,.29-.02.41,0,.28.04.47-.09.66-.27.87-.82,1.75-1.63,2.63-2.44,1.25-1.15,2.5-2.3,3.75-3.45.19-.18.38-.36.6-.57-.12,0-.19,0-.27,0-.88,0-1.76,0-2.64,0-.19,0-.32.06-.45.18-.93.83-1.87,1.65-2.81,2.47-.6.53-1.2,1.05-1.79,1.59-.04.04-.09.11-.09.16,0,.77,0,1.53,0,2.33ZM13.59,7.82l.02.05c1,0,1.99,0,2.99,0,.07,0,.15-.05.21-.1.81-.71,1.62-1.41,2.43-2.12.74-.65,1.49-1.3,2.22-1.96.07-.06.11-.17.11-.26.01-.55,0-1.11,0-1.66v-.6c-.2,0-.37.01-.54,0-.18-.02-.3.05-.42.18-.24.25-.51.48-.76.71-.89.82-1.78,1.64-2.67,2.46-.9.82-1.79,1.65-2.69,2.47-.31.28-.61.57-.91.86Z"/>
  </g>
</svg>