<?xml version="1.0" encoding="UTF-8"?>
<svg id="Layer_2" data-name="Layer 2" xmlns="http://www.w3.org/2000/svg" viewBox="0 0 21.69 21.42">
  <defs>
    <style>
      .cls-1 {
        fill: #000;
        stroke-width: 0px;
      }
    </style>
  </defs>
  <g id="Layer_1-2" data-name="Layer 1">
    <g>
      <path class="cls-1" d="M18.53,10.83c-.33-.03-.67-.04-1.03-.04s-.7.02-1.03.04c-1.82.16-3.16.73-3.16,1.42v4.98c0,1.57,1.92,2.93,3.16,3.65.59.34,1.03.54,1.03.54,0,0,.44-.2,1.03-.54,1.24-.72,3.16-2.09,3.16-3.65v-4.98c0-.68-1.35-1.26-3.16-1.42ZM20.32,17.22c0,.3-.26.73-.71,1.17-.44.43-1.05.88-1.77,1.3-.11.07-.23.13-.34.19-.12-.06-.23-.13-.34-.19-.72-.42-1.34-.87-1.77-1.3-.45-.44-.71-.87-.71-1.17v-4.59c.1-.05.24-.11.44-.17.41-.13.92-.22,1.47-.27.3-.03.6-.04.91-.04h0c.31,0,.61.01.91.04.55.05,1.06.14,1.47.27.2.06.35.12.44.17v4.59Z"/>
      <path class="cls-1" d="M12.23,18.19H1.7c0-.33.01-.68.02-1.01,0-.33.02-.64.02-.88.14-.23.47-.37,1.08-.58.21-.07.43-.15.65-.24.38-.16.77-.33,1.17-.5.59-.25,1.21-.52,1.77-.75l.77-.21c.09-.02.18-.07.26-.12.31-.22.56-.58.78-1,.02-.04.04-.08.06-.11.01-.02.02-.04.03-.06.06-.13.13-.26.19-.39l.04-.08c.05-.11.08-.23.08-.36,0,0,0,0,0,0,0-.03,0-.06,0-.1,0,0,0-.02,0-.03,0-.02-.01-.05-.02-.07,0-.02,0-.03-.01-.05,0-.03-.02-.05-.03-.08,0-.01,0-.02-.01-.04-.04-.08-.08-.15-.14-.21-.89-.97-1.46-2.3-1.59-3.65-.02-.19-.03-.38-.03-.58,0-.45.02-.87.05-1.25.24-2.67,1.27-3.64,2.36-3.98.41-.13.84-.16,1.23-.16.54,0,1.14.07,1.69.35,1.06.54,1.95,1.87,1.95,5.04,0,1.05-.28,2.13-.79,3.06-.13.24-.28.48-.45.7.16-.1.34-.2.54-.29.5-.22,1.11-.38,1.81-.48.38-.94.58-1.96.58-2.99,0-2.93-.73-4.7-1.76-5.74-1.03-1.04-2.36-1.35-3.58-1.35h0c-2.21,0-4.8,1.01-5.26,5.56-.05.47-.07.98-.07,1.53,0,.11,0,.22,0,.33.01.24.03.48.06.72.04.31.1.62.18.92.05.2.11.4.18.6,0,.01,0,.02.01.04.01.03.02.06.04.1.29.8.69,1.55,1.21,2.22,0,.02-.02.03-.02.05-.01.03-.03.05-.04.08,0,.01-.01.02-.02.03-.02.03-.03.06-.05.09-.01.02-.02.04-.03.06,0,0,0,.01-.01.02-.02.03-.03.05-.05.08h0s0,0,0,.01l-.61.17s-.07.02-.1.03c-.59.24-1.23.52-1.85.78-.39.17-.78.34-1.16.49-.17.07-.35.14-.55.2-.8.28-1.79.62-2.17,1.72-.03.09-.05.18-.05.28,0,.24,0,.61-.02,1.02-.02.66-.03,1.4-.02,1.92,0,.46.39.83.85.83h12.81c-.17-.14-.32-.28-.47-.42-.42-.41-.74-.84-.96-1.27Z"/>
    </g>
  </g>
</svg>