<?xml version="1.0" encoding="UTF-8"?>
<svg id="Layer_2" data-name="Layer 2" xmlns="http://www.w3.org/2000/svg" viewBox="0 0 21.8 21.8">
  <defs>
    <style>
      .cls-1 {
        fill: #000;
        stroke-width: 0px;
      }
    </style>
  </defs>
  <g id="Layer_1-2" data-name="Layer 1">
    <g>
      <path class="cls-1" d="M11.68,9.73h-1.56c-1.29,0-2.34,1.05-2.34,2.34v3.11c0,.21.17.39.39.39s.39-.17.39-.39v-3.11c0-.21.17-.39.39-.39s.39.17.39.39v9.15c0,.32.26.58.58.58s.58-.26.58-.58v-5.25c-.02-.19.11-.37.31-.39.03,0,.06,0,.08,0,.19-.02.37.11.39.31,0,.03,0,.06,0,.08v5.25c0,.32.26.58.58.58s.58-.26.58-.58v-9.15c0-.21.17-.39.39-.39s.39.17.39.39v3.11c0,.21.17.39.39.39s.39-.17.39-.39v-3.11c0-1.29-1.05-2.34-2.34-2.34Z"/>
      <path class="cls-1" d="M0,14.01v6.23c0,.86.7,1.56,1.56,1.56h2.34v-9.34H1.56c-.86,0-1.56.7-1.56,1.56Z"/>
      <path class="cls-1" d="M20.24,12.45h-2.34v9.34h2.34c.86,0,1.56-.7,1.56-1.56v-6.23c0-.86-.7-1.56-1.56-1.56Z"/>
      <path class="cls-1" d="M12.45,7.78c0-.86-.7-1.56-1.56-1.56s-1.56.7-1.56,1.56.7,1.56,1.56,1.56,1.56-.7,1.56-1.56Z"/>
      <path class="cls-1" d="M14.01,0h-6.23c-1.72,0-3.11,1.39-3.11,3.11v18.68h1.56V4.55h9.34v17.24h1.56V3.11c0-1.72-1.39-3.11-3.11-3.11ZM8.56,3.11c-.43,0-.78-.35-.78-.78s.35-.78.78-.78.78.35.78.78-.35.78-.78.78ZM13.23,3.11c-.43,0-.78-.35-.78-.78s.35-.78.78-.78.78.35.78.78-.35.78-.78.78Z"/>
    </g>
  </g>
</svg>