<?xml version="1.0" encoding="UTF-8"?>
<svg id="Layer_2" xmlns="http://www.w3.org/2000/svg" viewBox="0 0 23.64 19.46">
  <g id="Layer_1-2" data-name="Layer_1">
    <g>
      <path d="M22.46,10.04c-.63,0-1.26,0-1.89,0-1.12,0-1.49.36-1.49,1.47,0,.63,0,1.25,0,1.92-.99,0-1.93,0-2.87-.01-.07,0-.2-.2-.2-.32-.02-.78,0-1.57-.01-2.36,0-.27.08-.38.33-.49,2.05-.86,4.1-1.74,6.15-2.59.77-.32,1.13-.84,1.12-1.68-.02-1.51,0-3.03.01-4.54,0-.38-.13-.59-.5-.71C20.89-.03,18.63-.2,16.32.23c-1.49.28-2.83.97-4.2,1.56C8.24,3.47,4.37,5.17.48,6.84.14,6.99-.01,7.18,0,7.57c.03,1.01,0,2.02.01,3.03,0,.56.35.86.89.77.25-.04.51-.1.71-.24.13-.09.3-.22.23-.51-.15-.28-.39-.25-.54-.19s-.29.1-.52.17c0-.93.02-1.79,0-2.66,0-.3.12-.42.38-.5,2.42-.74,4.83-.72,7.24.03.27.08.33.22.33.48,0,.81,0,1.63,0,2.44,0,.89.45,1.19,1.26.84,2.89-1.25,5.78-2.51,8.67-3.76,1.36-.59,2.72-1.18,4.12-1.79.1.86.03.98-.68,1.28-1.77.75-3.53,1.5-5.3,2.24-2.29.97-4.59,1.95-6.88,2.92-.25.11-.48.25-.36.56.13.33.39.29.67.17.41-.18.82-.36,1.23-.53.63-.26,1.25-.52,1.88-.79.03.07.05.1.05.12,0,.95,0,1.91,0,2.86,0,1.07.49,1.56,1.57,1.56,1.22,0,2.44,0,3.66,0,.15,0,.29.01.47.02,0,.76-.01,1.47,0,2.19.01.74.46,1.17,1.19,1.17.73,0,1.46,0,2.19,0,.7,0,1.17-.46,1.18-1.15,0-2.37,0-4.74,0-7.11,0-.69-.49-1.15-1.17-1.16ZM22.87,18.07c0,.52-.1.62-.6.62-.64,0-1.29,0-1.93,0-.25,0-.47-.07-.47-.36-.01-.74,0-1.48,0-2.25.62,0,1.25.03,1.62-.53.16-.24.28-.56.28-.85,0-.82-.51-1.17-1.9-1.31,0-.75-.02-1.52.02-2.28,0-.11.24-.28.38-.29.73-.03,1.46-.02,2.18-.01.32,0,.43.21.43.5,0,.7,0,1.4,0,2.1,0,1.55,0,3.11,0,4.66Z"/>
      <path d="M8.62,11.9c-.13-.07-.32-.08-.54.08-.05.03-.13.14-.19.21-.88.94-2.22,1.12-3.29.44-1.4-.89-1.81-2.86-.89-4.34.15-.24.35-.51.02-.72-.35-.23-.53.07-.69.32-.4.65-.61,1.35-.63,2.12.05.33.07.67.14.99.46,1.96,2.34,3.18,4.21,2.72.78-.19,1.4-.62,1.89-1.25.16-.2.2-.45-.04-.58Z"/>
      <path d="M5.95,11.88c.95.01,1.74-.81,1.75-1.83.01-1.02-.75-1.86-1.7-1.87-.98-.01-1.77.81-1.78,1.84,0,1.01.78,1.84,1.73,1.86Z"/>
    </g>
  </g>
</svg>