<?xml version="1.0" encoding="UTF-8"?>
<svg id="Layer_2" data-name="Layer 2" xmlns="http://www.w3.org/2000/svg" viewBox="0 0 902.69 865.01">
  <defs>
    <style>
      .cls-1 {
        fill: #000;
        stroke-width: 0px;
      }
    </style>
  </defs>
  <g id="Layer_1-2" data-name="Layer 1">
    <g>
      <path class="cls-1" d="M0,792.91h90.92V76.42H0v716.49Z"/>
      <path class="cls-1" d="M844.88,176.35c-28.79-60.77-66.34-115.63-113.81-163.54-11.86-11.97-25.11-18.97-38.69-5.38-13.53,13.53-6.91,27.2,5.23,38.82,3.17,3.03,6.14,6.28,9.14,9.48,193.03,206.08,197.95,533.26,11.15,745.18-8.71,9.88-20.95,17.96-25.98,29.34-3.99,9.02-3.1,24.7,2.6,31.93,3.94,5,20.17,2.35,30.09-.15,5.83-1.47,10.21-9.18,14.97-14.35,107.72-116.94,160.99-255.36,163.1-404.99-.73-98.88-19.26-184.95-57.81-266.33Z"/>
      <path class="cls-1" d="M622.19,123.11c-11.84-11.72-24.65-19.83-38.79-7.25-14.22,12.66-8.55,26.73,3.3,38.87,3.68,3.76,7.12,7.76,10.65,11.67,119.33,132.25,136.66,331.16,40.84,481.32-15.48,24.26-36.23,45.1-52.9,68.68-5.38,7.61-8.01,19.17-7.09,28.44.51,5.14,12.16,14.09,16.68,12.95,11-2.77,23.09-8.28,30.68-16.45,79.99-86.03,120.02-188.23,120.88-264.81.2-159.4-46.61-276.54-124.25-353.41Z"/>
      <path class="cls-1" d="M116.6,299.66v272.21c78.06-3.69,136.24-75.53,127.72-153.76-7.3-66.95-72.08-127.69-127.72-118.44Z"/>
      <path class="cls-1" d="M515.56,236.24c-11.81-13.07-24.7-26.14-41.94-10.34-15.81,14.5-5.64,27.86,5.65,40.76,88.06,100.66,88,234.11-.13,335.32-11.26,12.94-21.1,26.16-5.41,40.85,15.82,14.81,28.84,4.17,40.24-8.41,51.11-56.42,76.75-122.89,78.65-201.15-1.62-73.46-25.92-140.4-77.07-197.04Z"/>
      <path class="cls-1" d="M364.34,336.06c-5.5,7.35-5.02,25.59.47,33.72,32.95,48.76,32.85,79.64-.36,129.41-5.37,8.05-5.31,26.35.33,33.68,10.62,13.8,25.07,7.26,35.72-4.45,23.3-25.61,35.36-55.82,36.1-90.51.4-37.34-10.78-70.43-36.5-98.13-11.03-11.88-25.56-17.36-35.77-3.73Z"/>
    </g>
  </g>
</svg>