<?xml version="1.0" encoding="UTF-8"?>
<svg id="Layer_2" xmlns="http://www.w3.org/2000/svg" viewBox="0 0 21.11 18.98">
  <g id="Layer_1-2" data-name="Layer_1">
    <g>
      <path d="M1.37,4.85c.07-.07.15-.15.22-.22C6.47.07,14.2-.05,19.21,4.37c.23.21.42.5.69.61.21.09.58.07.76-.06.12-.09.06-.48,0-.71-.03-.14-.22-.24-.34-.35C17.55,1.31,14.28.05,10.74,0c-2.34.02-4.37.46-6.3,1.37-1.44.68-2.73,1.57-3.87,2.69-.28.28-.45.59-.13.91.32.32.64.16.92-.12Z"/>
      <path d="M17.89,7.27c.12-.01.33-.29.31-.39-.07-.26-.2-.55-.39-.73-2.03-1.89-4.45-2.84-6.26-2.86-3.77,0-6.54,1.1-8.36,2.94-.28.28-.47.58-.17.92.3.34.63.2.92-.08.09-.09.18-.17.28-.25,3.13-2.82,7.83-3.23,11.38-.97.57.37,1.07.86,1.62,1.25.18.13.45.19.67.17Z"/>
      <path d="M14.52,16.3c-.37-2.04-2.32-3.51-4.45-3.27-1.78.19-3.39,1.76-3.5,3.27H0v2.68h21.11v-2.68h-6.59Z"/>
      <path d="M15.48,9.37c.35-.37.1-.68-.2-.95-1.33-1.21-2.91-1.81-4.76-1.86-1.74.04-3.32.61-4.66,1.82-.31.28-.62.58-.24.99.34.37.66.13.96-.13,2.38-2.08,5.54-2.08,7.93,0,.31.27.62.5.97.13Z"/>
      <path d="M8.31,10.76c-.28.26-.41.6-.09.85.17.13.61.12.8-.01,1.15-.78,1.88-.78,3.06,0,.19.13.62.13.8,0,.33-.25.17-.59-.1-.84-.61-.55-1.32-.84-2.14-.85-.88,0-1.67.25-2.32.86Z"/>
    </g>
  </g>
</svg>