<?xml version="1.0" encoding="UTF-8"?>
<svg id="Layer_2" data-name="Layer 2" xmlns="http://www.w3.org/2000/svg" viewBox="0 0 34.08 28.51">
  <defs>
    <style>
      .cls-1 {
        fill: #231f20;
        stroke: #231f20;
        stroke-miterlimit: 10;
        stroke-width: .75px;
      }
    </style>
  </defs>
  <g id="Layer_1-2" data-name="Layer 1">
    <path class="cls-1" d="M31.31,15.85l-1.07-4.81-.79,3.57-1.72-1.14-.13-.58-.1.43-10.22-6.77-1.07-4.79-1.25,5.94s-.01,0-.01.02c-.01.02-.02.04-.02.06l-.37.25-.98-4.4-1.32,5.93-.36.24-.96-4.31-1.29,5.81-.41.27-.94-4.22-1.26,5.68-.46.3-.92-4.13-1.24,5.56-.5.33-.9-4.04-1.21,5.44-1.13.75,16.32,10.81.04.02,16.28-10.78.08-.05-2.09-1.38ZM28.54,17.13l-.77-3.47,1.65,1.09-.42,2.1-.42.3-.03-.02ZM17.04,27.91L.91,17.23l1.01-.67,1.1-4.92.81,3.66.7-.47,1.12-5.05.83,3.75.66-.44,1.15-5.17.85,3.84.61-.4,1.18-5.29.87,3.93.6-.4-.02-.05,1.19-5.34.89,4.02.57-.38.04-.04v-.02s1.14-5.42,1.14-5.42l.95,4.26,10.3,6.82-.57,2.58-1.94-1.28h0s0,0,0,0l-7.88-5.22-.04-.02-11.58,7.67-.08.05,10.87,7.2.78-3.52.79,3.53.77-.51,1.08-4.87.81,3.62.73-.48,1.11-4.99.83,3.71.68-.45,1.14-5.11.85,3.8.63-.42.57-2.57h0l.59-2.67v.05s.79,3.49.79,3.49h0s.08.36.08.36l.15-.1h0s0,0,0,0l.08-.05h0s.42-.3.42-.3l.44-2.19.69-3.09.95,4.29,1.97,1.3-16.12,10.68ZM26.87,16.18l-.55,2.47-.43.29-.89-3.99,1.87,1.24ZM24.93,14.89l-1.22,5.49-.48.32-.91-4.09-1.23,5.51-.52.35-.89-4-1.2,5.39-.57.38-.87-3.91-.87,3.91-10.55-6.99,11.42-7.56,7.89,5.22Z"/>
  </g>
</svg>