<?xml version="1.0" encoding="UTF-8"?>
<svg id="Layer_2" data-name="Layer 2" xmlns="http://www.w3.org/2000/svg" viewBox="0 0 416.5 302.04">
  <defs>
    <style>
      .cls-1 {
        fill: #000;
        stroke-width: 0px;
      }
    </style>
  </defs>
  <g id="Layer_1-2" data-name="Layer 1">
    <g>
      <path class="cls-1" d="M416.27,131.23c-.58-4.6-2.79-7.69-7.49-7.76-13.29-.2-26.59-.07-40.43-.07-9.64-16.8-19.66-34.2-29.62-51.63-10.61-18.57-26.76-27.54-47.95-27.57-55-.06-110-.08-165,0-21.81.03-38.16,9.41-48.75,28.78-8.76,16.02-17.89,31.83-26.97,47.67-.76,1.33-2.46,3-3.74,3.01-11.65.1-23.3-.13-34.95-.26-4.43-.05-8.77-.07-10.48,5.39-1.96,6.24-.56,13.96,3.3,17.07,4.63,3.73,9.24,7.48,13.13,10.63-.54,3.07-1.26,5.24-1.26,7.41-.06,29.5.08,59.01-.1,88.51-.04,6.84.67,12.68,8.4,14.24.1,1.07.18,1.57.18,2.07.02,7,.02,14,.05,21,.04,9.23,3.11,12.31,12.23,12.31,18.83,0,37.67,0,56.5,0,9.73,0,12.74-3.03,12.76-12.84.01-7.44,0-14.89,0-22.48h204.53c0,7.98-.02,15.62,0,23.27.04,8.91,3.15,12.04,11.97,12.04,19.17.01,38.33,0,57.5,0,8.66,0,11.99-3.34,12.02-12.07.03-7.8,0-15.6,0-23.32,7.23-2.51,8.49-4.33,8.5-12.75.05-30.17.09-60.34.02-90.51,0-2.02-.9-4.03-1.55-6.77,2.82-2.28,5.68-5.17,9.07-7.19,7.13-4.25,9.1-10.42,8.12-18.2ZM100.44,222.93c-10.49.06-20.97.02-31.46.02,0-.29,0-.57,0-.86-10.33,0-20.65.02-30.98,0-5.83-.02-6.77-.94-6.79-6.56-.02-6.5.07-12.99-.02-19.49-.06-4.1,1.51-5.99,5.88-6.07,16.45-.3,32.8-.53,48.92,3.95,12.3,3.42,16.64,13.36,20.82,23.55,1.24,3.01-1.77,5.44-6.37,5.47ZM260.04,204.58c-14.3,5.62-28.6,11.25-43.07,16.4-8.74,3.11-17.46.76-25.74-2.33-11.16-4.16-22.14-8.79-33.13-13.39-4.91-2.06-6.04-4.83-4.82-10.49.97-4.5,4.63-4.05,7.93-4.06,15.83-.03,31.65-.01,47.48-.01v.03c15.99,0,31.98,0,47.98,0,2.98,0,6.08.3,6.51,3.87.43,3.62,1.68,8.1-3.12,9.99ZM238.33,123.61c-19.49-.42-39-.41-58.49-.03-19.3.38-38.64.85-57.87,2.43-19.22,1.57-38.33,4.56-58.51,7.06,3.62-6.5,7.09-12.83,10.64-19.11,5.63-9.98,11.37-19.89,16.96-29.89,8.29-14.82,20.77-22.14,37.83-22.1,53.67.1,107.34-.03,161.01.08,13.94.03,25.4,5.91,32.71,17.71,10.65,17.2,20.41,34.96,31.08,53.39-19.71-2.46-38.53-5.42-57.47-7-19.23-1.6-38.57-2.14-57.87-2.55ZM379.09,222.13c-10.49-.13-20.99-.04-31.48-.04,0,.29,0,.59,0,.88-10.32,0-20.65.02-30.97,0-6.52-.01-7.82-2.62-5.71-8.73,5.58-16.17,18.03-22.13,33.69-23.12,11.6-.73,23.24-.7,34.86-1.12,4.35-.16,5.94,1.84,5.86,6.01-.13,6.66-.16,13.33.05,19.99.15,4.62-1.95,6.19-6.31,6.14Z"/>
      <path class="cls-1" d="M183.55,33.03c3.94.01,4.64-2.42,4.63-5.57,0-7.16-.08-14.31.03-21.47.06-4.19-1.67-6.03-5.96-5.98-12.98.13-25.96-.07-38.94.13-3.24.05-6.59.74-9.68,1.76-14.56,4.8-21.62,15.45-23.21,30.61.62.22.93.42,1.25.42,23.96.04,47.92.04,71.88.11Z"/>
      <path class="cls-1" d="M240.76,33.06c18.64-.15,37.28-.07,55.92-.07h11.29c1.87-12.59-9.42-29.97-25.47-31.72-14.31-1.57-28.86-.95-43.3-1.16-3.21-.05-4.01,2.21-3.97,5.12.09,7.49.22,14.99-.05,22.47-.15,4.27,1.57,5.4,5.58,5.36Z"/>
    </g>
  </g>
</svg>