<?xml version="1.0" encoding="UTF-8"?>
<svg id="Layer_2" xmlns="http://www.w3.org/2000/svg" xmlns:xlink="http://www.w3.org/1999/xlink" viewBox="0 0 25.7 39.65">
  <defs>
    <style>
      .cls-1 {
        fill: none;
        stroke: #5e6895;
        stroke-miterlimit: 10;
        stroke-width: 2px;
      }

      .cls-2 {
        fill: #5e6895;
      }

      .cls-3 {
        clip-path: url(#clippath);
      }
    </style>
    <clipPath id="clippath">
      <path class="cls-1" d="M24.69,12.56c-.16-6.41-5.39-11.56-11.84-11.56h0C6.4,1,1.17,6.15,1.01,12.56c0,.1-.01.19-.01.29,0,.96.13,1.9.34,2.79,1.94,11.25,11.51,22.47,11.51,22.47,0,0,9.57-11.21,11.51-22.47.22-.9.34-1.83.34-2.79,0-.1-.01-.19-.01-.29ZM13.62,18.59c-3.3.51-6.11-2.3-5.6-5.6.31-2.06,2-3.74,4.06-4.06,3.3-.51,6.11,2.3,5.6,5.6-.32,2.06-2,3.74-4.06,4.06Z"/>
    </clipPath>
  </defs>
  <g id="Layer_1-2" data-name="Layer_1">
    <g>
      <g class="cls-3">
        <g>
          <rect class="cls-2" x=".14" y="-19.39" width=".92" height="46.44" transform="translate(2.89 .69) rotate(45)"/>
          <rect class="cls-2" x="1.29" y="-18.24" width=".92" height="46.44" transform="translate(4.03 .22) rotate(45)"/>
          <rect class="cls-2" x="4.72" y="-14.81" width=".92" height="46.44" transform="translate(7.46 -1.2) rotate(45)"/>
          <rect class="cls-2" x="8.15" y="-11.38" width=".92" height="46.44" transform="translate(10.9 -2.62) rotate(45)"/>
          <rect class="cls-2" x="2.43" y="-17.1" width=".92" height="46.44" transform="translate(5.18 -.25) rotate(45)"/>
          <rect class="cls-2" x="3.58" y="-15.96" width=".92" height="46.44" transform="translate(6.32 -.73) rotate(45)"/>
          <rect class="cls-2" x="9.29" y="-10.24" width=".92" height="46.44" transform="translate(12.04 -3.09) rotate(45)"/>
          <rect class="cls-2" x="11.58" y="-7.95" width=".92" height="46.44" transform="translate(14.33 -4.04) rotate(45)"/>
          <rect class="cls-2" x="5.86" y="-13.67" width=".92" height="46.44" transform="translate(8.61 -1.67) rotate(45)"/>
          <rect class="cls-2" x="7.01" y="-12.52" width=".92" height="46.44" transform="translate(9.75 -2.15) rotate(45)"/>
          <rect class="cls-2" x="10.44" y="-9.09" width=".92" height="46.44" transform="translate(13.18 -3.57) rotate(45)"/>
          <rect class="cls-2" x="12.72" y="-6.81" width=".92" height="46.44" transform="translate(15.47 -4.52) rotate(45)"/>
          <rect class="cls-2" x="13.87" y="-5.66" width=".92" height="46.44" transform="translate(16.61 -4.99) rotate(45)"/>
          <rect class="cls-2" x="17.3" y="-2.23" width=".92" height="46.44" transform="translate(20.04 -6.41) rotate(45)"/>
          <rect class="cls-2" x="20.73" y="1.2" width=".92" height="46.44" transform="translate(23.47 -7.83) rotate(45)"/>
          <rect class="cls-2" x="15.01" y="-4.52" width=".92" height="46.44" transform="translate(17.76 -5.46) rotate(45)"/>
          <rect class="cls-2" x="16.15" y="-3.38" width=".92" height="46.44" transform="translate(18.9 -5.94) rotate(45)"/>
          <rect class="cls-2" x="21.87" y="2.34" width=".92" height="46.44" transform="translate(24.62 -8.31) rotate(45)"/>
          <rect class="cls-2" x="24.16" y="4.63" width=".92" height="46.44" transform="translate(26.9 -9.25) rotate(45)"/>
          <rect class="cls-2" x="18.44" y="-1.09" width=".92" height="46.44" transform="translate(21.19 -6.88) rotate(45)"/>
          <rect class="cls-2" x="19.58" y=".05" width=".92" height="46.44" transform="translate(22.33 -7.36) rotate(45)"/>
          <rect class="cls-2" x="23.02" y="3.49" width=".92" height="46.44" transform="translate(25.76 -8.78) rotate(45)"/>
        </g>
      </g>
      <path class="cls-1" d="M24.69,12.56c-.16-6.41-5.39-11.56-11.84-11.56h0C6.4,1,1.17,6.15,1.01,12.56c0,.1-.01.19-.01.29,0,.96.13,1.9.34,2.79,1.94,11.25,11.51,22.47,11.51,22.47,0,0,9.57-11.21,11.51-22.47.22-.9.34-1.83.34-2.79,0-.1-.01-.19-.01-.29ZM13.62,18.59c-3.3.51-6.11-2.3-5.6-5.6.31-2.06,2-3.74,4.06-4.06,3.3-.51,6.11,2.3,5.6,5.6-.32,2.06-2,3.74-4.06,4.06Z"/>
    </g>
  </g>
</svg>