<?xml version="1.0" encoding="UTF-8"?>
<svg id="Layer_2" xmlns="http://www.w3.org/2000/svg" viewBox="0 0 25.7 39.65">
  <defs>
    <style>
      .cls-1 {
        fill: #5e6895;
        stroke: #5e6895;
        stroke-miterlimit: 10;
        stroke-width: 2px;
      }
    </style>
  </defs>
  <g id="Layer_1-2" data-name="Layer_1">
    <path class="cls-1" d="M24.69,12.56c-.16-6.41-5.39-11.56-11.84-11.56h0C6.4,1,1.17,6.15,1.01,12.56c0,.1-.01.19-.01.29,0,.96.13,1.9.34,2.79,1.94,11.25,11.51,22.47,11.51,22.47,0,0,9.57-11.21,11.51-22.47.22-.9.34-1.83.34-2.79,0-.1-.01-.19-.01-.29ZM13.62,18.59c-3.3.51-6.11-2.3-5.6-5.6.31-2.06,2-3.74,4.06-4.06,3.3-.51,6.11,2.3,5.6,5.6-.32,2.06-2,3.74-4.06,4.06Z"/>
  </g>
</svg>