<?xml version="1.0" encoding="UTF-8"?>
<svg id="Layer_2" data-name="Layer 2" xmlns="http://www.w3.org/2000/svg" viewBox="0 0 55.97 21.71">
  <defs>
    <style>
      .cls-1 {
        fill: #303c50;
      }
    </style>
  </defs>
  <g id="Layer_1-2" data-name="Layer 1">
    <g>
      <path class="cls-1" d="M34.83,3.74h6.27c.06-.42-.15-1.71.2-1.94s1.96-.16,2.42.04c.24.24.18,2.11.12,2.53-.19,1.35-.78,1.58-1.99,1.86-2.24.52-4.74.69-7.01,1.12-.16.68.41.84.72,1.27,2.7,3.72,2.11,8.41,2.41,12.77l-.2.28-1.38-.04c-.32-.23,0-1.75.01-2.17.08-2.8-.02-7.78-1.99-9.95-.41-.44-1.19-.94-1.81-.97-.34-.02-.14.61-.19.9-.1.65-.62.71-1.2.67-.04.86.31,2.39-.9,2.54-.82.1-4.16.11-4.89-.06-1.02-.24-.66-1.68-.72-2.47-1.18.15-1.3-.57-1.21-1.57-2.49.15-3.35,3.23-3.7,5.28-.44,2.55-.24,5.09-.17,7.66-.11.34-1.23.2-1.56.15-.32-.22,0-1.65.01-2.05.11-3.82-.1-7.54,2.18-10.83.32-.47.93-.73.82-1.41-2.28-.42-4.77-.61-7.01-1.12-1.21-.28-1.82-.53-1.99-1.86-.06-.43-.12-2.29.12-2.53.46-.2,2.06-.27,2.42-.04s.15,1.52.2,1.94h6.27c.32-1.93,2.58-.96,3.91-1.21.84-.16,1.51-.95,2.9-.96,1.47-.01,2.12.8,3.01.96,1.33.25,3.6-.72,3.91,1.21ZM25.52,4.85c-.59-.56-1.76.44-1.02,1.14.68.65,1.8-.4,1.02-1.14ZM27.81,4.72c-.92.17-.69,1.74.43,1.4.77-.23.5-1.57-.43-1.4ZM30.7,4.72c-.56.15-.78,1.2-.12,1.4,1.47.45,1.21-1.7.12-1.4Z"/>
      <path class="cls-1" d="M26.99.24c-.03.17-.39.3-.54.36-1.79.71-4.96.62-6.98.86-.96.11-1.58.46-2.61.29-.76-.12-1.41-.61-2.17-.74V.48s12.3-.24,12.3-.24Z"/>
      <path class="cls-1" d="M41.21.48v.6c-.63-.02-1.12.39-1.69.55-1.39.39-2.74-.16-4.16-.3-2.13-.22-4.52,0-6.44-1.03l12.29.18Z"/>
      <path class="cls-1" d="M12.29.48l-.14.59c-.76,0-1.4.59-2.12.71-1.03.16-2.59-.34-3.71-.45-1.51-.16-3.03-.13-4.54-.4-.55-.1-1.58-.17-1.79-.74l12.29.3Z"/>
      <path class="cls-1" d="M43.76,1.07l-.14-.59,12.29-.36c.4.4-1.52.78-1.66.81-1.54.27-3.12.24-4.66.4-1.09.11-2.71.61-3.71.45-.72-.11-1.37-.7-2.12-.71Z"/>
      <path class="cls-1" d="M14.1,1.21h-1.33c-.17-1.58,1.51-1.63,1.33,0Z"/>
      <path class="cls-1" d="M43.14,1.21h-1.33c-.18-1.63,1.5-1.58,1.33,0Z"/>
    </g>
  </g>
</svg>