<?xml version="1.0" encoding="UTF-8"?>
<svg id="Layer_2" data-name="Layer 2" xmlns="http://www.w3.org/2000/svg" viewBox="0 0 33.5 33.5">
  <defs>
    <style>
      .cls-1 {
        fill: #303c50;
      }
    </style>
  </defs>
  <g id="Layer_1-2" data-name="Layer 1">
    <g>
      <path class="cls-1" d="M18.71,23.07c-.86-1.54-.88-3.33-.12-4.92l-.75-.44c-.66.6-1.5.58-2.16,0l-.77.4c1.2,2.46.4,5.36-1.9,6.82-1.9,1.2-4.37,1.04-6.11-.37-.26-.21-.49-.49-.75-.7-.07.06-.09.09-.04.18.04.08.44.52.53.62.11.12.23.23.35.33,2.73,2.5,6.86,2.67,9.8.42,3.2,2.57,8.2,1.92,10.62-1.39l-.11-.12c-2.35,2.8-6.8,2.36-8.58-.83Z"/>
      <path class="cls-1" d="M7.16,16.22c2.46-1.74,5.8-1.08,7.45,1.4l.75-.44c-.17-.85.22-1.64,1.07-1.86v-.88c-.33-.05-.64-.09-.95-.17-1.76-.43-3.22-1.81-3.74-3.55-.91-3.05,1.03-6.2,4.16-6.7l-.05-.17c-4.16.45-7.23,4.41-6.62,8.56-3.85,1.48-5.74,6.09-4.15,9.89l.17-.07c-.81-2.17,0-4.69,1.89-6.02Z"/>
      <path class="cls-1" d="M28.7,17.36c-.6-2.19-2.31-4.14-4.44-4.95.39-2.75-.82-5.55-3.05-7.17-1.04-.75-2.22-1.19-3.48-1.4l.03.18c4.18.79,5.76,6.11,2.58,9.03-.9.82-2.06,1.27-3.26,1.4v.87c.86.22,1.25,1.01,1.07,1.86l.75.44c1.71-2.54,5.21-3.13,7.64-1.23,1.77,1.39,2.49,3.85,1.66,5.96l.18.04c.68-1.6.79-3.36.33-5.03Z"/>
      <path class="cls-1" d="M19.51,20.89c-.13.09-.83.42-.85.48.04.57.31,1.1.57,1.6,2.82-1.11,4.66-4.17,4.14-7.19-.57,0-1.13.1-1.67.26.11,1.05-.06,2.14-.57,3.07-.35.65-1.01,1.37-1.63,1.77Z"/>
      <path class="cls-1" d="M13.47,12.57c.07.07.13.18.25.2,1.8-1.35,4.33-1.36,6.1.04.43-.39.82-.8,1.08-1.33-2.35-1.92-5.85-1.9-8.25-.06-.1.18.66,1.01.81,1.16Z"/>
      <path class="cls-1" d="M10.77,15.77c-.2-.02-.43.01-.64,0-.44,2.75.99,5.53,3.41,6.85.12.07.56.3.67.3.11,0,.26-.38.3-.49.15-.33.27-.71.33-1.07-.02-.08-.52-.28-.63-.35-1.05-.64-1.86-1.63-2.23-2.81-.22-.71-.26-1.43-.2-2.17-.04-.06-.91-.26-1.03-.27Z"/>
      <path class="cls-1" d="M16.75,0C7.51,0,0,7.51,0,16.75s7.51,16.75,16.75,16.75,16.75-7.51,16.75-16.75S25.99,0,16.75,0ZM16.75,31.5c-8.13,0-14.75-6.62-14.75-14.75S8.62,2,16.75,2s14.75,6.62,14.75,14.75-6.62,14.75-14.75,14.75Z"/>
    </g>
  </g>
</svg>