<?xml version="1.0" encoding="UTF-8"?>
<svg id="Layer_2" data-name="Layer 2" xmlns="http://www.w3.org/2000/svg" viewBox="0 0 33.5 33.5">
  <defs>
    <style>
      .cls-1 {
        fill: #303c50;
      }
    </style>
  </defs>
  <g id="Layer_1-2" data-name="Layer 1">
    <g>
      <path class="cls-1" d="M12.46,18.53l-2.66,1.47c-2.3-2.05-5.88-.41-5.19,2.8.58,2.69,4.76,3.01,5.69.18.2-.61.12-1.09.33-1.65l2.6-1.44-.76-1.37Z"/>
      <path class="cls-1" d="M15.96,9.09v3.2h1.52v-3.2c3.42-.86,2.76-5.87-.84-5.8-3.37.06-3.89,4.92-.68,5.8Z"/>
      <path class="cls-1" d="M23.81,20.02l-2.59-1.47-.83,1.28,2.66,1.6c.11,1.04-.02,1.66.69,2.51,1.45,1.75,4.45,1.24,5.1-.98.93-3.16-2.76-5.11-5.03-2.94Z"/>
      <path class="cls-1" d="M15.92,14c-1.04.22-1.99,1.44-2.09,2.48-.34,3.55,4.28,4.53,5.62,1.66,1.12-2.4-.99-4.66-3.53-4.14Z"/>
      <path class="cls-1" d="M18.42,12.57c2.07.63,3.32,2.95,2.94,5.06l1.38.75s.22-.34.23-.38c.09-.63,0-1.6,0-2.28,0-.08-.31-.96-.38-1.14-.66-1.69-2.34-3.38-4.19-3.66l.02,1.65Z"/>
      <path class="cls-1" d="M12.17,16.03c.21-1.44,1.49-2.99,2.86-3.46l.02-1.65c-3.31.82-5.04,4.21-4.42,7.46,1.86-.5,1.34-.96,1.54-2.35Z"/>
      <path class="cls-1" d="M15.27,21.28c-.36-.12-1.34-.75-1.49-.74-.19.01-1.34.67-1.25.89,2.42,2.3,6.19,2.18,8.61-.08l-1.42-.81c-1.41.95-2.8,1.29-4.45.74Z"/>
      <path class="cls-1" d="M16.75,0C7.51,0,0,7.51,0,16.75s7.51,16.75,16.75,16.75,16.75-7.51,16.75-16.75S25.99,0,16.75,0ZM16.75,31.5c-8.13,0-14.75-6.62-14.75-14.75S8.62,2,16.75,2s14.75,6.62,14.75,14.75-6.62,14.75-14.75,14.75Z"/>
    </g>
  </g>
</svg>