<?xml version="1.0" encoding="UTF-8"?>
<svg id="Layer_2" data-name="Layer 2" xmlns="http://www.w3.org/2000/svg" viewBox="0 0 37.33 45.39">
  <defs>
    <style>
      .cls-1 {
        fill: #303c50;
      }
    </style>
  </defs>
  <g id="Layer_1-2" data-name="Layer 1">
    <g>
      <path class="cls-1" d="M34.01,16.09c1.6-2.43,2.47-4.43,2.98-7.32.12-.66.46-2.56.3-3.12-.2-.71-1.27-.81-1.66-.18-.68,3.69-1.96,8.79-5.77,10.42-1.01.44-2.01.58-2.99,1.19-1.12.69-1.97,1.83-2.99,2.66-1.86,1.52-4.1,2.76-6.43,3.39l-2.05-5.33,7.36-2.76L17.18,0,0,6.46l5.57,14.99,8.44-3.06,1.92,4.98c0,.28-.84.51-.51,1.44.09.26.29.51.55.61.3.12.52.04.79.14l1.3,3.43c.26.5,1,.63,1.29.09.2-.38.04-.64-.07-1-.12-.39-1.14-2.78-1.05-2.91,2.38-.76,4.67-1.75,6.94-2.79v4.99s-2.47,16.51-2.47,16.51c-.27,1.55,1.59,2.09,2.27.73l3.13-14.44.73-.05,3.2,14.39c.47,1.38,2.29,1,2.2-.41-1.3-8.14-2.64-16.34-2.33-24.63.1-.86,1.58-2.59,2.11-3.39ZM6.46,19.74L1.78,7.25,16.41,1.7l4.65,12.62-14.59,5.42Z"/>
      <path class="cls-1" d="M27.98,15.4c4.2-.43,3.71-7.11-.9-6.55-4.04.49-3.54,7.01.9,6.55Z"/>
      <path class="cls-1" d="M10.89,5.6c-2.59.28-4.56,2.78-4.39,5.35.31,4.59,6.21,6.43,9.05,2.8,2.82-3.61-.12-8.64-4.66-8.15ZM12.54,6.97l-3.45,6.43c-2.85-2.71-.38-7.25,3.45-6.43ZM10.6,14.21l-.04-.28,3.41-6.19c2.99,2.67.53,7.41-3.37,6.47Z"/>
    </g>
  </g>
</svg>