<?xml version="1.0" encoding="UTF-8"?>
<svg id="Layer_2" data-name="Layer 2" xmlns="http://www.w3.org/2000/svg" viewBox="0 0 32.78 17.78">
  <defs>
    <style>
      .cls-1 {
        fill: #303c50;
      }
    </style>
  </defs>
  <g id="Layer_1-2" data-name="Layer 1">
    <g>
      <path class="cls-1" d="M0,13.42v3.22c0,.63.51,1.15,1.15,1.15h3.19v-5.51H1.15c-.63,0-1.15.51-1.15,1.15Z"/>
      <path class="cls-1" d="M10.11,12.27h-2.71v5.51h15.71v-5.51h-3.59c-2.33,3.26-7.17,3.14-9.4,0Z"/>
      <path class="cls-1" d="M1.15,5.51h3.19V0H1.15C.51,0,0,.51,0,1.15v3.22c0,.63.51,1.15,1.15,1.15Z"/>
      <path class="cls-1" d="M14.52,3.11c2.12-.12,3.89.89,4.97,2.4h3.62V0H7.4v5.51h2.74c.98-1.35,2.52-2.29,4.38-2.4Z"/>
      <path class="cls-1" d="M9.73,11.64c-.04-.07-.09-.14-.12-.21-.88-1.8-.72-3.74.14-5.3H1.15c-.63,0-1.15.51-1.15,1.15v3.22c0,.63.51,1.15,1.15,1.15h8.58Z"/>
      <path class="cls-1" d="M32.78,7v-2.35c0-1.23-1-2.24-2.24-2.24h-.16v-1.26c0-.63-.51-1.15-1.15-1.15h-3.07v5.51h3.07c.63,0,1.15-.51,1.15-1.15v-1.27h.16c.85,0,1.55.69,1.55,1.55v2.35c0,.82-.64,1.48-1.44,1.54-.04,0-.07-.01-.11-.01h-.16v-1.24c0-.63-.51-1.15-1.15-1.15h-9.36c.89,1.64,1.01,3.68.02,5.51h9.34c.63,0,1.15-.51,1.15-1.15v-1.26h.16s.07,0,.11-.01c.8.06,1.44.72,1.44,1.54v2.35c0,.85-.69,1.55-1.55,1.55h-.16v-1.25c0-.63-.51-1.15-1.15-1.15h-3.07v5.51h3.07c.63,0,1.15-.51,1.15-1.15v-1.28h.16c1.23,0,2.24-1,2.24-2.24v-2.35c0-.79-.42-1.48-1.04-1.88.62-.4,1.04-1.09,1.04-1.88Z"/>
      <path class="cls-1" d="M14.6,3.63c-1.69.1-3.1.96-3.99,2.18-.13.18-.25.37-.36.57-.78,1.42-.92,3.18-.12,4.82.03.07.08.13.11.19.11.2.22.39.35.57,2.03,2.86,6.43,2.96,8.55,0,.03-.05.07-.09.11-.14.09-.14.17-.29.24-.43.9-1.66.79-3.52-.02-5.01-.11-.2-.23-.39-.36-.57-.98-1.37-2.59-2.29-4.52-2.18ZM19.2,10.44c-.12.35-.29.66-.48.95-.13.2-.27.39-.43.57-1.74,1.93-4.97,2.07-6.81,0-.11-.12-.22-.25-.32-.39-.04-.06-.07-.12-.11-.18-1.07-1.64-.94-3.57,0-5.01.13-.2.29-.39.45-.57.77-.85,1.87-1.44,3.18-1.51,1.44-.08,2.71.54,3.58,1.51.16.18.3.37.43.57.75,1.15,1.02,2.63.51,4.06Z"/>
      <polygon class="cls-1" points="15.21 6.38 15.21 5.81 15.21 5.53 14.54 5.53 14.54 5.81 14.54 6.38 14.54 9.22 18.26 9.22 18.26 8.55 15.21 8.55 15.21 6.38"/>
    </g>
  </g>
</svg>