<?xml version="1.0" encoding="UTF-8"?>
<svg id="Layer_2" data-name="Layer 2" xmlns="http://www.w3.org/2000/svg" viewBox="0 0 27.54 40.15">
  <defs>
    <style>
      .cls-1 {
        fill: #303c50;
      }
    </style>
  </defs>
  <g id="Layer_1-2" data-name="Layer 1">
    <g>
      <path class="cls-1" d="M17.22,21.93v-2.93h-.63v2.93h-2.3v-2.93h-.84v2.93h-2.3v-2.93h-.63v2.93h-1.25l.53,16.45c.07.75.7,1.74,1.64,1.74.77,0,1.37-.73,1.51-1.74l.71-13.74h.63l.57,13.8c0,.6.58,1.66,1.44,1.71,1.36.08,1.65-1.71,1.65-1.71l.94-16.49h-.34s-1.33-.02-1.33-.02Z"/>
      <path class="cls-1" d="M12.62,14.93l.84.1h-.01v3h.8v-1.48c.02-.39.03-.85.03-1.4l.64-.12c-.59-.81-1.86-1.24-2.3-.1Z"/>
      <path class="cls-1" d="M17.22,17.96v-2.93l.63-.1c-.77-.71-1.94-1.16-2.3.1h1.04v2.93h.63Z"/>
      <rect class="cls-1" x="14.57" y="15.16" width="1.74" height="2.99" rx=".2" ry=".2"/>
      <path class="cls-1" d="M27.11,9.86c-1.52-1.44-2.8,1.49-4.01,1.41-1.11-.07-2.64-2.86-4.5-3.25-1.46-.31-6.88-.27-8.48-.09-2.11.23-3.16,2.17-4.7,3.34,0-1.5.18-3.28-.83-4.5-1.01-.51-1.08.61-1.47.84-.25.15-.66.04-.79.14-.07.06-.47,1.31-.7,1.7-.22.38-.69.65-.86,1.04-.25.57,0,1.71-.77,2.34l1.36.7.62-.8c.44.43,1,.91,1.57,1.14.48.19,1.53.28,1.64.35.16.1.33,1.44.86,1.96.73.73,1.59.56,2.49.31v1.45c0,.11.09.2.2.2h1.34c.11,0,.2-.09.2-.2v-2.59s-.01-.07-.03-.1v-.02s0,0-.01,0c-.04-.04-.09-.07-.15-.07h-1.34c-.11,0-.2.09-.2.2v.62s-.07.08-.11.1c-1.56.88-2.56-.45-2.78-1.88.55-.14,1.2-.43,1.66-.75.3-.21,1.86-2.04,2.1-1.76v3.13c.37,0,.26-.55.62-.73,1.13-.57,1.72.45,2.24.5.35.03.52-.46.84-.56,1.35-.43,2.25.87,2.36.8.4-1.56,2.35-.8,3.04.21h.52v-3.34c1.65,1.42,2.55,2.93,5.03,2.41,1.38-.29,4.67-2.73,3.07-4.24ZM4.89,11.27c-1.57-.53-2.29-1.33-1.24-2.84l-.43-.4.74-.94c.92-.2,1,3.54.93,4.18Z"/>
      <rect class="cls-1" x="8.52" y="18.73" width="1.74" height="2.99" rx=".2" ry=".2"/>
      <rect class="cls-1" x="11.44" y="15.16" width="1.74" height="2.99" rx=".2" ry=".2"/>
      <rect class="cls-1" x="11.43" y="18.73" width="1.74" height="2.99" rx=".2" ry=".2"/>
      <path class="cls-1" d="M14.76,18.73h1.34c.11,0,.2.09.2.2v2.59c0,.11-.09.2-.2.2h-1.34c-.11,0-.2-.09-.2-.2v-2.59c0-.11.09-.2.2-.2Z"/>
      <path class="cls-1" d="M19.02,15.16h-1.34c-.06,0-.12.03-.15.08h-.02s0,.03,0,.03c-.02.03-.03.06-.03.09v2.59c0,.11.09.2.2.2h1.34c.11,0,.2-.09.2-.2v-2.59c0-.11-.09-.2-.2-.2Z"/>
      <rect class="cls-1" x="17.47" y="18.73" width="1.74" height="2.99" rx=".2" ry=".2"/>
      <path class="cls-1" d="M11.17,18.03v-3h0l.82-.1c-.77-.71-1.94-1.16-2.3.1h.82v3h.66Z"/>
      <path class="cls-1" d="M14.19,7.06c4.5-.46,3.98-7.62-.96-7.02-4.33.52-3.8,7.51.96,7.02Z"/>
    </g>
  </g>
</svg>