<?xml version="1.0" encoding="UTF-8"?>
<svg id="Layer_2" data-name="Layer 2" xmlns="http://www.w3.org/2000/svg" viewBox="0 0 33.5 33.5">
  <defs>
    <style>
      .cls-1 {
        fill: #303c50;
      }
    </style>
  </defs>
  <g id="Layer_1-2" data-name="Layer 1">
    <g>
      <path class="cls-1" d="M14.6,20.64l-4.14,7.33c3.9,2.19,8.65,2.12,12.58.07l-4.21-7.43c-1.33.75-2.87.48-4.23.03Z"/>
      <path class="cls-1" d="M14.62,13.16l-4.23-7.4c-2.87,1.6-5.15,4.54-5.96,7.74-.29,1.13-.28,2.13-.49,3.25h8.6c-.08-1.48.85-2.84,2.08-3.59Z"/>
      <path class="cls-1" d="M23.29,5.77l-4.23,7.24c0,.3.63.57.89.87.66.77,1.16,1.84,1.19,2.87h8.44c.03-4.53-2.48-8.66-6.29-10.98Z"/>
      <path class="cls-1" d="M16.44,19.3c4,.4,3.78-5.77-.44-4.9-2.3.47-2.4,4.61.44,4.9Z"/>
      <path class="cls-1" d="M16.75,0C7.51,0,0,7.51,0,16.75s7.51,16.75,16.75,16.75,16.75-7.51,16.75-16.75S25.99,0,16.75,0ZM16.75,31.5c-8.13,0-14.75-6.62-14.75-14.75S8.62,2,16.75,2s14.75,6.62,14.75,14.75-6.62,14.75-14.75,14.75Z"/>
    </g>
  </g>
</svg>