<?xml version="1.0" encoding="UTF-8"?>
<svg id="Layer_2" data-name="Layer 2" xmlns="http://www.w3.org/2000/svg" viewBox="0 0 46.49 18.01">
  <defs>
    <style>
      .cls-1 {
        fill: #303c50;
      }
    </style>
  </defs>
  <g id="Layer_1-2" data-name="Layer 1">
    <g>
      <path class="cls-1" d="M36.63,9.41c-5.16-.7-7.02,5.9-2.86,8.08,3.48,1.83,7.38-1.5,6.15-5.22-.45-1.37-1.83-2.66-3.29-2.86Z"/>
      <path class="cls-1" d="M8.48,9.41c-6.64-.9-6.66,9.14-.32,8.57,5.03-.45,5.04-7.93.32-8.57Z"/>
      <path class="cls-1" d="M42.68,8.16c-.05-.42-.23-.63-.56-.87l-12.42-2.09-.12-.36c-.33-1-.48-2.37-.84-3.29-.22-.56-.77-.87-1.35-.93l-7.95-.62h-9.67l-.02.03L1.2,2.51c-.54.13-1.03.52-1.1,1.09-.06,1.94-.2,3.94.01,5.72.22,1.9.97,2.94,2.74,2.84.35-1.06.97-1.95,1.88-2.6,3.97-2.82,9.12.83,7.86,5.46h18.29c-.38-1.68-.04-3.37,1.09-4.68,2.8-3.24,7.9-1.78,8.85,2.28.88.05,1.76.28,1.86-.84.08-.85.09-2.79,0-3.63ZM17.56,5.34h-7.08V1.8h7.08v3.54ZM27.59,5.34h-7.08V1.8h7.08v3.54Z"/>
      <path class="cls-1" d="M46.44,16.81c-.02-.05-2.16-5.49.02-13.07.1-.33-.1-.68-.43-.77-.33-.1-.68.1-.77.43-.59,2.05-.88,3.95-.99,5.65h-.42c-.1-1.65-.5-2.67-.53-2.74-.06-.16-.25-.24-.41-.17-.16.06-.24.25-.17.41.01.03,1.12,2.87-.01,6.79-.05.17.05.34.21.39.03,0,.06.01.09.01.14,0,.26-.09.3-.23.42-1.45.54-2.75.54-3.83h.37c-.17,4.53.97,7.45,1.04,7.61.1.24.33.39.58.39.08,0,.16-.01.23-.05.32-.13.47-.49.34-.81Z"/>
    </g>
  </g>
</svg>