<?xml version="1.0" encoding="UTF-8"?>
<svg id="Layer_2" data-name="Layer 2" xmlns="http://www.w3.org/2000/svg" viewBox="0 0 48.24 18.27">
  <defs>
    <style>
      .cls-1 {
        fill: #303c50;
      }
    </style>
  </defs>
  <g id="Layer_1-2" data-name="Layer 1">
    <path class="cls-1" d="M30.86,8.53l3.07.3c.4-.08.58-.78,1.08-1.02s1.26-.26,1.82-.35l.47-2.38,2.7.22,3.17-4.69c.18-.11,2.77-.06,2.49.6l-2.21,7.51c.16.57,4.73,1.51,4.77,2.86-.19.79-5.23,1.65-6.14,1.81l-.61,4.11c-.81-.03-2.72.2-3.36-.27-.48-.35-1.41-3.53-1.67-3.61l-10.75-.76c-4.27,1.98-8.6,3.84-13.05,5.4l-4.31-.62-.25-.42c3.33-1.34,6.54-3.13,9.44-5.25l-11.3-1.21c-.15.03-.3,1.66-1.78,1.33-.99-.22-.8-1.1-1.04-1.44-.1-.14-.97-.22-1.25-.32-1-.38-1.64-1.1-2.16-2.01,1.27-1.31,2.92-3.22,4.85-3.4,3.43-.31,7.46,2.05,10.95,2.19.72-.35.91-1.88,1.79-1.74.8.12-.15,1.4-.07,1.96l6.06.6c3.71-2.35,7.16-5.08,10.49-7.93.76.28,1.97.1,2.69.31.14.04.29.18.24.33l-6.13,7.88Z"/>
  </g>
</svg>