<?xml version="1.0" encoding="UTF-8"?>
<svg id="Layer_2" data-name="Layer 2" xmlns="http://www.w3.org/2000/svg" viewBox="0 0 17.52 29.26">
  <defs>
    <style>
      .cls-1 {
        fill: #303c50;
      }
    </style>
  </defs>
  <g id="Layer_1-2" data-name="Layer 1">
    <g>
      <path class="cls-1" d="M16.64,6.08c-1.05,2.33-2.89,4.62-4.45,6.65-.65.85-1.32,1.69-1.99,2.53l-3.59-2.72c-.05-.08,0-.07.03-.11.09-.14.68-.93.76-.98.21-.15.54.07.86-.35s-.16-.73.26-1.08c.11-.09.58.04.85-.35s-.21-.74.26-1.08c.1-.07.42.1.76-.23.37-.36-.01-.74.21-1.02.24-.3.55-.05.88-.39.26-.27.12-.48.14-.72.02-.2,2.01-1.92,2.31-2.22,1.19-1.15,2.33-2.35,2.77-4,1.37,1.8.79,4.2-.06,6.08Z"/>
      <path class="cls-1" d="M10.44,16.13l-4.77-3.69c-.74-.37-1.47.51-.91,1.17.08.09.45.32.45.39-1.69,2.25-3.35,4.68-4.39,7.32-.84,2.15-1.43,5.28.29,7.17.28.31,1.45,1.14,1.77.56.1-.18-.18-1.02-.23-1.31-.19-1.19.2-2.93,1.09-3.77.46-.43.98-.66,1.46-1.03.88-.67.58-.87.65-1.81.13-1.8,1.16-3.58,2.94-4.21.32-.11.56.35.85.47.76.3,1.43-.67.8-1.26Z"/>
    </g>
  </g>
</svg>