<?xml version="1.0" encoding="UTF-8"?>
<svg id="Layer_2" data-name="Layer 2" xmlns="http://www.w3.org/2000/svg" viewBox="0 0 29.56 36.92">
  <defs>
    <style>
      .cls-1 {
        fill: #303c50;
      }
    </style>
  </defs>
  <g id="Layer_1-2" data-name="Layer 1">
    <g>
      <path class="cls-1" d="M24.55,8.2c-.58-.38-1.16-.24-1.82-.26-3.48-.1-7-.13-10.49-.11-2.45.02-3.99.75-3.95,3.44.03,1.84.15,3.67.22,5.5.02.49.02.99.03,1.48h0c0,1.09-.02,1.43,0,2.51-1.81,2.85-4.54,8.04-7.65,13.03-.22.35-.73,1.03-.82,1.38-.45,1.8,1.22,2.38,2.44.98l8.32-11.47c.72-.73,1.69-.81,2.5-.18l3.78,4.24c.76,2.18,1.52,4.53,2.22,6.71.63,1.96,2.37,1.61,2.55-.39l-1.62-7.69c-1.33-1.88-3.1-5.7-4.53-7.5l-.04-1.39h0v-6.63l-2.51.04v-.73l10.61-.11c1.46-.13,1.98-2.04.76-2.83Z"/>
      <path class="cls-1" d="M17.72,5.36C19.12,2.91,17.22-.17,14.4,0c-2.52.16-4.11,2.78-3.04,5.09,1.21,2.62,4.92,2.77,6.35.26Z"/>
      <path class="cls-1" d="M17.74,12.59l-1-.74-.18-.02c.03.05.04.1.04.16.03,1.11-.02,2.23,0,3.34.53.43,1.06.7,1.72.34l5.14-3.62.17-.29c-1.49.06-3,.03-4.49.04l-1.39.79Z"/>
      <path class="cls-1" d="M29.56,6c-.29.04-.2-.06-.3-.2-.08-.12-.24-.1-.36-.09v-.18c-.22.03-.52-.11-.58.17h-4.96c-.21-.19-.61-.21-.89-.19-.14,0-.18.07-.17.2-.26.01-.42-.08-.54.21-.14.36-.16.87-.3,1.25,1.11.08,2.53-.25,3.49.42.22.15.48.39.59.63l.25-.44h.76c-.08.26-.09.56-.16.81-.08.31-.2.29-.5.28l.04.51c1.09.09.95-1.08,1.17-1.82h2.01c.26-.07.15-.43.17-.62h.26s0-.95,0-.95Z"/>
    </g>
  </g>
</svg>