<?xml version="1.0" encoding="UTF-8"?>
<svg id="Layer_2" data-name="Layer 2" xmlns="http://www.w3.org/2000/svg" viewBox="0 0 36.06 35.3">
  <defs>
    <style>
      .cls-1 {
        fill: #303c50;
      }
    </style>
  </defs>
  <g id="Layer_1-2" data-name="Layer 1">
    <g>
      <path class="cls-1" d="M22.66,13.4c.33.73,1.05,2.57,1.58,3.03.21.18.48.29.76.34,1.85-.1,3.77,0,5.61-.14.5-.04,2.29-.31,2.45-.84.33-1.12-.55-1.44-1.44-1.58-1.38-.22-2.82-.17-4.21-.32-.73-.08-.75-.09-1.07-.73-.8-1.58-1.36-3.55-2.21-5.06-.55-.98-2.9-2.07-3.85-2.79-2.03-.31-4.39-1.23-6.4-1.42-.21-.02-.48-.03-.69,0-.52.08-2.24,1.51-2.77,1.92-.91.69-3.14,2.25-3.72,3.08-.48.69-.57,1.82.53,1.79,2.18-.07,5.26-3.3,7.43-3.11.84.07,1.81.61,2.71.62l-4.86,7.37c-.77,1.48-1,3.13.45,4.27l6.89,4.65c-.88,2.46-2.09,4.82-2.93,7.29-.28.84-.96,2.76-.02,3.34,1.13.7,2.23-.85,2.77-1.68,1.46-2.26,3.11-5.59,4.31-8.04.56-1.15,1-2.09-.04-3.17l-5.56-3.84,3.84-6.13c.11.39.29.78.46,1.15Z"/>
      <path class="cls-1" d="M11.37,18.82l-1.81,2.49c-.44.41-1.52.28-2.1.32-1.53.12-3.09.16-4.61.31-1.01.1-2.95.25-2.85,1.67.07.93.7,1.11,1.47,1.28,2.09.45,4.62.45,6.78.57,1.08.06,2.38.42,3.36-.16.66-.38,2.22-2.68,2.6-3.42.03-.06.13-.19.09-.25-1.12-.77-2.26-1.61-2.93-2.82Z"/>
      <path class="cls-1" d="M24.04,6.71c4.72.37,4.86-6.88.1-6.7-4.04.15-4.25,6.37-.1,6.7Z"/>
      <path class="cls-1" d="M30.91,13.9c.79.06,2.09.08,2.74-.39.21-.15.82-.88.39-1.02-.21-.06-1.17,0-1.49,0-.41,0-.44-.52-.59-.66-.48-.47-1.44.38-1.92.43-.46.05-1.07-.75-.96.34.09.93,1,1.24,1.82,1.3Z"/>
      <path class="cls-1" d="M33.25,17.43c-.51-.39-.8-.56-1.45-.54-.29.01-1.4.1-1.61.19-.57.24-1.47,1.69-1.73,2.26-1.87,4.19-.51,8.09,4.68,6.87,4.77-1.12,2.87-6.66.1-8.78Z"/>
    </g>
  </g>
</svg>