<?xml version="1.0" encoding="UTF-8"?>
<svg id="Layer_2" data-name="Layer 2" xmlns="http://www.w3.org/2000/svg" viewBox="0 0 22.46 27.84">
  <defs>
    <style>
      .cls-1 {
        fill: #303c50;
      }
    </style>
  </defs>
  <g id="Layer_1-2" data-name="Layer 1">
    <path class="cls-1" d="M20.42,10.69h-.18v-6.16c0-2.5-1.88-4.52-4.19-4.52H6.41C4.1,0,2.22,2.03,2.22,4.52v6.16h-.18c-1.13,0-2.04.91-2.04,2.04v13.08c0,1.13.91,2.04,2.04,2.04h18.38c1.13,0,2.04-.91,2.04-2.04v-13.08c0-1.13-.91-2.04-2.04-2.04ZM4.67,5.19c0-1.72,1.29-3.11,2.89-3.11h7.35c1.59,0,2.89,1.39,2.89,3.11v5.49H4.67v-5.49ZM12.5,19.54v3.98c0,.7-.57,1.26-1.26,1.26s-1.26-.57-1.26-1.26v-3.98c-.72-.43-1.2-1.21-1.2-2.11,0-1.36,1.1-2.46,2.46-2.46s2.46,1.1,2.46,2.46c0,.9-.48,1.68-1.2,2.11Z"/>
  </g>
</svg>