<?xml version="1.0" encoding="UTF-8"?>
<svg id="Layer_2" data-name="Layer 2" xmlns="http://www.w3.org/2000/svg" viewBox="0 0 32.57 33.02">
  <defs>
    <style>
      .cls-1 {
        fill: #303c50;
      }
    </style>
  </defs>
  <g id="Layer_1-2" data-name="Layer 1">
    <g>
      <path class="cls-1" d="M32.28,22.34c-1.44-2.67-4.38-4.83-5.28-7.82.19-.28.36-.44.56-.72.63-.91,3.24-3.94,3.34-4.78.08-.67-.02-1.18-.57-1.61-.79-.62-5.68-1.92-6.69-1.83-1.36.12-1.87,1.12-3.04,1.51-1.19.4-2.45.33-3.67.59-.92.19-1.89.67-2.83.84-1.27-.74-3.46-3.48-4.85-3.67-1.59-.21-2.21.41-1.33,1.82.45.71,3.52,4.69,4.17,5.22,1.37,1.14,4-.33,5.61-.44l3.01,7.33-5.34,11.13c-.58,2.24.77,3.15,2.33,1.56l7.19-10.91c.21-.06.24.06.37.14.28.19,2.77,2.84,2.83,3.04.35,2.32,1.02,5.02,1.57,7.28.67,2.74,2.82,2.61,2.89-.11.07-2.58-.24-5.94-.28-8.57ZM25.74,11.77l-.7-2.07,1.62.26-.93,1.81Z"/>
      <path class="cls-1" d="M5.52,3.9l.16-.72c.53,0,.98.2,1.53.14.36-.04.59-.25.89-.29.49-.07,4.13,1.01,4.15,1.24-.14.39-.8,1.77-.05,1.85.62.06,1.07-1.94.88-2.35-.08-.17-.31-.32-.47-.41-.67-.36-3.96-1.31-4.65-1.2-.36.06-.57.3-1.03.3-.67,0-1.59-.78-1.95-.05-.1.2-.5,1.66-.45,1.84.13.48,1.56.56,1.99.96,1.22-.54-.33-1.28-.98-1.3Z"/>
      <path class="cls-1" d="M4.32,1.06C3.53,0,.33-.16.01,1.1c-.16.66,1.23.57,1.45,1.08.33.77-.3.79-.34,1.21-.09.95,2.69,1.57,2.79.59.1-.93-1.12-.15-1.62-.52.35-1,.14-1.64-.59-2.34.66-.05,1.31-.02,1.84.44.26.23.32.69.73.74.66,0,.26-.96.05-1.23Z"/>
      <path class="cls-1" d="M3.26,5.96c-.44.14-.62,3.23-.52,3.73.09.48.57.73.8.22.2-.43.03-1.3.08-1.83.07-.71.7-2.11-.36-2.13Z"/>
      <path class="cls-1" d="M1.42,8.09c.26-.24.64-1.99.43-2.13-.9-.61-1.74,2.92-.43,2.13Z"/>
      <path class="cls-1" d="M.55,9.2c.1.62-.35,1.93.35,2.19.78,0,.87-2.83-.35-2.19Z"/>
      <path class="cls-1" d="M2.9,11.27c-.31,2.56,1.83,1.66.47-.15l-.47.15Z"/>
      <circle class="cls-1" cx="18.97" cy="3.34" r="3.34"/>
    </g>
  </g>
</svg>