<?xml version="1.0" encoding="UTF-8"?>
<svg id="Layer_2" data-name="Layer 2" xmlns="http://www.w3.org/2000/svg" viewBox="0 0 34.47 32.42">
  <defs>
    <style>
      .cls-1 {
        fill: #303c50;
      }
    </style>
  </defs>
  <g id="Layer_1-2" data-name="Layer 1">
    <g>
      <path class="cls-1" d="M19.76,24.97c-.57.01-1.14.01-1.7.03-2.64.07-5.27.07-7.91,0-1.06-.03-2.15,0-3.2-.12v-.91h11.41c-.38-.34-.75-.69-1.06-1.1H6.95v-1.16h9.62c-.18-.35-.33-.71-.46-1.1H6.95v-.97c1.2-.13,2.42-.06,3.62-.19,1.75,0,3.5,0,5.24,0-.29-1.6-.18-3.14.23-4.68-1.19-.03-2.39-.04-3.58-.02-2.04.04-4.11.21-6.15.25-1.29.02-2.51,0-2.41-1.68.14-2.32.74-4.45,3.38-4.72,1.28-.13,2.8-.18,4.1-.23,2.95-.1,5.87,0,8.81.23.36.03.69.07,1.02.11.05-.28.08-.54.1-.79.04-.59-.01-1.18-.02-1.76H6.56c-1.52.14-2.72,1.09-3.27,2.5l-1.22,7.61c-1.05.06-1.86.91-1.99,1.94-.24,1.97.14,4.31-.02,6.32.06.77.42,1.37,1.06,1.8l.03,4.41v.42c0,.69.56,1.25,1.25,1.25h2c.69,0,1.25-.56,1.25-1.25v-4.41c.26,0,.51-.01.77,0,.87.03,1.75.15,2.61.19,4.45.19,8.96.14,13.4-.19.09,0,.18-.05.27-.06v4.46c0,.69.56,1.25,1.25,1.25h2c.69,0,1.25-.56,1.25-1.25v-4.91c.07-.05.16-.1.22-.16.12-.12.23-.26.33-.42l-6.09.12c-.68-.21-1.33-.49-1.93-.83ZM3.81,21.71c-2.56.14-2.86-3.74-.35-4,2.73-.29,3.01,3.85.35,4Z"/>
      <path class="cls-1" d="M33.03,10.93c-.06-.15-.14-.34-.25-.46-.06.82-.19,1.72-.54,2.47-.2.43-.59,1-1.11,1.04-.06-1.81-.73-3.62-1.68-5.15-.23-.37-.5-.77-.78-1.11-.61-.74-1.41-1.27-1.96-2.06-.95-1.36-1.16-3.04-.88-4.65.06-.34.14-.69.26-1.01-2.28.69-3.83,2.67-4.08,5.03-.03.25-.03.5-.03.75,0,.58.06,1.17.02,1.76-.02.24-.05.51-.1.79-.2,1.17-.66,2.53-1.38,3.31-.03.03-.16.18-.2.15-.51-1.09-1.48-2.28-2.76-2.4.08.17.17.34.22.52.32,1.16-.29,2.2-.67,3.25-.15.41-.27.83-.38,1.24-.41,1.54-.52,3.07-.23,4.68.03.15.05.29.08.44.06.25.14.48.22.72.13.38.28.75.46,1.1.21.41.45.8.73,1.16.31.4.67.76,1.06,1.1.43.38.9.72,1.41,1.01.6.34,1.25.62,1.93.83.08,0,.06,0,0-.04-.09-.05-.16-.12-.25-.17l-.79-.66-.16-.13c-.23-.26-.44-.53-.61-.83-.19-.34-.32-.71-.42-1.1-.1-.37-.16-.76-.18-1.16-.02-.36-.01-.73.03-1.1.04-.3.09-.61.17-.91.02-.06.04-.12.06-.17.15-.49.36-.94.51-1.42.16-.49.2-.95-.04-1.43.63.08,1.07.54,1.41,1.04.09.13.18.27.25.4.6-.64.89-1.55.97-2.41.06-.68-.07-1.35.07-2.03.26-1.23,1.15-2.24,2.36-2.61-.33,1.15-.3,2.46.44,3.45.33.44.8.76,1.15,1.19.83,1.03,1.38,2.41,1.47,3.73.46-.09.72-.7.83-1.11.08-.29.09-.59.14-.88,0-.03.01-.09.05-.08,1.09,2.48,1.69,5.86-.65,7.83-.21.18-.46.31-.67.48,1.1-.34,2.14-.86,3.03-1.56,0,0,.02-.02.03-.02.78-.62,1.45-1.38,1.93-2.28,1.64-3.09.82-7.42-.52-10.49Z"/>
    </g>
  </g>
</svg>