<?xml version="1.0" encoding="UTF-8"?>
<svg id="Layer_2" xmlns="http://www.w3.org/2000/svg" viewBox="0 0 19.77 19.77">
  <g id="Layer_1-2" data-name="Layer_1">
    <g>
      <polygon points="19.77 7.57 19.77 5.01 5.01 19.77 7.57 19.77 19.77 7.57"/>
      <polygon points="0 8.11 0 10.67 10.67 0 8.11 0 0 8.11"/>
      <polygon points="19.77 11.73 19.77 9.17 9.17 19.77 11.73 19.77 19.77 11.73"/>
      <path d="M16.44,0L0,16.44v1.49c0,.31.08.6.21.86L18.79.21c-.26-.14-.55-.21-.86-.21h-1.49Z"/>
      <polygon points="0 6.5 6.5 0 3.94 0 0 3.94 0 6.5"/>
      <path d="M19.77,1.84c0-.29-.07-.56-.19-.81L1.03,19.58c.24.12.52.19.81.19h1.56L19.77,3.4v-1.56Z"/>
      <polygon points="0 12.27 0 14.83 14.83 0 12.27 0 0 12.27"/>
      <path d="M0,1.84v.5L2.34,0h-.5C.82,0,0,.82,0,1.84Z"/>
      <path d="M19.77,17.93v-.42l-2.26,2.26h.42c1.01,0,1.84-.82,1.84-1.84Z"/>
      <polygon points="19.77 13.34 13.34 19.77 15.9 19.77 19.77 15.9 19.77 13.34"/>
    </g>
  </g>
</svg>