<?xml version="1.0" encoding="UTF-8"?>
<svg id="Layer_2" data-name="Layer 2" xmlns="http://www.w3.org/2000/svg" viewBox="0 0 19.59 19.59">
  <defs>
    <style>
      .cls-1 {
        fill: #000;
        stroke-width: 0px;
      }
    </style>
  </defs>
  <g id="Layer_1-2" data-name="Layer 1">
    <g>
      <path class="cls-1" d="M17.68,16.51c0,.65-.52,1.17-1.17,1.17h-5.65v1.91h7.57c.65,0,1.17-.52,1.17-1.17v-7.57h-1.91v5.65Z"/>
      <path class="cls-1" d="M18.42,0h-7.57v1.91h5.65c.65,0,1.17.52,1.17,1.17v5.65h1.91V1.17c0-.65-.52-1.17-1.17-1.17Z"/>
      <path class="cls-1" d="M1.91,3.08c0-.65.52-1.17,1.17-1.17h5.65V0H1.17C.52,0,0,.52,0,1.17v7.57h1.91V3.08Z"/>
      <path class="cls-1" d="M1.91,16.51v-5.65H0v7.57c0,.65.52,1.17,1.17,1.17h7.57v-1.91H3.08c-.65,0-1.17-.52-1.17-1.17Z"/>
      <polygon class="cls-1" points="15.82 8.39 15.82 6.82 6.82 15.82 8.39 15.82 15.82 8.39"/>
      <polygon class="cls-1" points="3.77 8.72 3.77 10.28 10.28 3.77 8.72 3.77 3.77 8.72"/>
      <polygon class="cls-1" points="15.82 10.93 15.82 9.36 9.36 15.82 10.93 15.82 15.82 10.93"/>
      <path class="cls-1" d="M13.8,3.77L3.77,13.8v.91c0,.19.05.37.13.52L15.23,3.9c-.16-.08-.33-.13-.52-.13h-.91Z"/>
      <polygon class="cls-1" points="3.77 7.74 7.74 3.77 6.18 3.77 3.77 6.18 3.77 7.74"/>
      <path class="cls-1" d="M15.82,4.89c0-.18-.04-.34-.12-.49L4.4,15.71c.15.07.32.12.49.12h.95L15.82,5.84v-.95Z"/>
      <polygon class="cls-1" points="3.77 11.26 3.77 12.82 12.82 3.77 11.26 3.77 3.77 11.26"/>
      <path class="cls-1" d="M3.77,4.89v.3l1.42-1.42h-.3c-.62,0-1.12.5-1.12,1.12Z"/>
      <path class="cls-1" d="M15.82,14.7v-.26l-1.38,1.38h.26c.62,0,1.12-.5,1.12-1.12Z"/>
      <polygon class="cls-1" points="15.82 11.91 11.91 15.82 13.47 15.82 15.82 13.47 15.82 11.91"/>
    </g>
  </g>
</svg>