<?xml version="1.0" encoding="UTF-8"?>
<svg id="Layer_2" xmlns="http://www.w3.org/2000/svg" viewBox="0 0 18.5 19.36">
  <g id="Layer_1-2" data-name="Layer_1">
    <g>
      <rect x="12.66" y="12.89" width="3" height="2.97" rx=".36" ry=".36"/>
      <rect x="12.66" y="9.06" width="3" height="2.97" rx=".36" ry=".36"/>
      <rect x="12.66" y="5.23" width="3" height="2.97" rx=".36" ry=".36"/>
      <path d="M5.56,1.4h-2.29c-.2,0-.36.16-.36.36v2.25c0,.2.16.36.36.36h2.64V1.76c0-.2-.16-.36-.36-.36Z"/>
      <path d="M9.49,1.4h-2.29c-.2,0-.36.16-.36.36v2.61h2.64c.2,0,.36-.16.36-.36V1.76c0-.2-.16-.36-.36-.36Z"/>
      <path d="M5.56,5.23h-2.29c-.2,0-.36.16-.36.36v2.25c0,.2.16.36.36.36h2.64v-2.61c0-.2-.16-.36-.36-.36Z"/>
      <path d="M9.49,5.23h-2.29c-.2,0-.36.16-.36.36v2.61h2.64c.2,0,.36-.16.36-.36v-2.25c0-.2-.16-.36-.36-.36Z"/>
      <path d="M5.56,9.06h-2.29c-.2,0-.36.16-.36.36v2.25c0,.2.16.36.36.36h2.64v-2.61c0-.2-.16-.36-.36-.36Z"/>
      <path d="M5.56,12.89h-2.29c-.2,0-.36.16-.36.36v2.25c0,.2.16.36.36.36h2.64v-2.61c0-.2-.16-.36-.36-.36Z"/>
      <path d="M9.49,9.06h-2.29c-.2,0-.36.16-.36.36v2.61h2.64c.2,0,.36-.16.36-.36v-2.25c0-.2-.16-.36-.36-.36Z"/>
      <path d="M18.18,18.72h-.87V4.15c0-.23-.19-.41-.41-.41h-5.38V.44c0-.24-.2-.44-.44-.44H1.6c-.23,0-.41.19-.41.41v18.31H.32c-.18,0-.32.14-.32.32s.14.32.32.32h17.86c.18,0,.32-.14.32-.32s-.14-.32-.32-.32ZM10.87,18.72h-1.02v-5.47c0-.2-.16-.36-.36-.36h-2.64v5.83H1.84V1.06c0-.23.19-.42.42-.42h8.19c.23,0,.42.19.42.42v17.66ZM16.67,18.72h-5.15V4.79c0-.23.19-.41.41-.41h4.32c.23,0,.41.19.41.41v13.94Z"/>
    </g>
  </g>
</svg>