<?xml version="1.0" encoding="UTF-8"?>
<svg id="Layer_2" xmlns="http://www.w3.org/2000/svg" viewBox="0 0 22.32 22.73">
  <g id="Layer_1-2" data-name="Layer_1">
    <path d="M20.34,13.34c.96-.1,1.74-.82,1.93-1.75.03-.14.04-.28.04-.43s-.02-.29-.04-.43c-.19-.94-.97-1.65-1.93-1.75-.82-3.46-3.54-6.18-7-7,0-.07,0-.13-.02-.2-.2-1.01-1.09-1.78-2.16-1.78-1.14,0-2.06.87-2.18,1.97-3.46.82-6.18,3.54-7,7-1.11.12-1.97,1.05-1.97,2.18,0,.77.4,1.45,1,1.84.24.16.52.27.82.32.05,0,.1,0,.15.02.82,3.46,3.54,6.18,7,7,0,.06-.02.12-.02.18,0,.77.4,1.45,1,1.84.24.16.52.27.82.32.13.02.25.04.39.04,1.07,0,1.96-.76,2.16-1.78.03-.14.04-.28.04-.43,0-.06-.01-.12-.02-.18,3.45-.82,6.17-3.54,7-7ZM13.05,19.39c-.39-.64-1.09-1.07-1.89-1.07s-1.5.43-1.88,1.07c-3.09-.71-5.53-3.1-6.3-6.16.71-.26,1.25-.88,1.4-1.64.03-.14.04-.28.04-.43s-.02-.29-.04-.43c-.15-.76-.69-1.37-1.4-1.64.76-3,3.12-5.36,6.13-6.12.17.44.46.82.84,1.08.24.16.52.27.82.32.13.02.25.04.39.04.95,0,1.75-.6,2.07-1.44,3,.76,5.36,3.12,6.12,6.12-.84.31-1.44,1.11-1.44,2.06,0,.77.4,1.45,1,1.84.14.09.29.16.44.22-.77,3.06-3.21,5.46-6.3,6.17Z"/>
  </g>
</svg>