<?xml version="1.0" encoding="UTF-8"?>
<svg id="Layer_2" data-name="Layer 2" xmlns="http://www.w3.org/2000/svg" viewBox="0 0 26.43 23.97">
  <defs>
    <style>
      .cls-1 {
        fill: #000;
        stroke-width: 0px;
      }
    </style>
  </defs>
  <g id="Layer_1-2" data-name="Layer 1">
    <path class="cls-1" d="M17.99,7.09c-1.13,0-2.23.22-3.25.64L10.49.38c-.13-.23-.38-.38-.66-.38s-.53.15-.66.38L.1,16.12c-.13.23-.13.53,0,.76.13.23.38.38.66.38h8.97c.8,3.83,4.2,6.71,8.26,6.71,4.65,0,8.44-3.79,8.44-8.44s-3.79-8.44-8.44-8.44ZM2.08,15.74L9.83,2.29l3.56,6.16c-.5.32-.97.7-1.4,1.13-1.58,1.6-2.47,3.71-2.44,5.95,0,.07,0,.14,0,.2H2.08ZM11.08,15.51c-.03-1.83.69-3.56,1.98-4.86.34-.33.71-.63,1.1-.88l3.45,5.97h-6.53c0-.08,0-.15,0-.23ZM17.99,22.42c-3.21,0-5.91-2.19-6.69-5.16h7.63c.28,0,.53-.15.66-.38.13-.23.13-.53,0-.76l-4.07-7.04c.78-.3,1.62-.46,2.47-.46,3.81,0,6.91,3.1,6.91,6.91s-3.1,6.89-6.91,6.89Z"/>
  </g>
</svg>