<?xml version="1.0" encoding="UTF-8"?>
<svg id="Layer_2" xmlns="http://www.w3.org/2000/svg" viewBox="0 0 23.22 13.66">
  <g id="Layer_1-2" data-name="Layer_1">
    <path d="M23.18,11.03c-.2-1.01-1.09-1.78-2.16-1.78-.29,0-.56.06-.81.16l-2.33-4.95c.67-.28,1.18-.87,1.33-1.61.03-.14.04-.28.04-.43s-.02-.29-.04-.43c-.2-1.01-1.09-1.78-2.16-1.78-.97,0-1.78.62-2.08,1.49h-4.89c-.23-.98-1.1-1.71-2.14-1.71-1.22,0-2.21.99-2.21,2.21,0,.58.22,1.11.59,1.5l-2.94,3.09c-.34-.21-.74-.34-1.17-.34-1.22,0-2.21.99-2.21,2.21,0,.77.4,1.45,1,1.84.24.16.52.27.82.32.13.02.25.04.39.04,1.07,0,1.96-.76,2.16-1.78.03-.14.04-.28.04-.43s-.02-.29-.04-.43c-.05-.26-.15-.51-.29-.73l3.08-3.24c.12.05.25.08.38.11.13.02.25.04.39.04,1.05,0,1.92-.73,2.14-1.71h4.8c.08.65.44,1.22.96,1.56.24.16.52.27.82.32.06.01.13.01.19.02l2.53,5.38c-.35.39-.57.9-.57,1.47,0,.77.4,1.45,1,1.84.24.16.52.27.82.32.13.02.25.04.39.04,1.07,0,1.96-.76,2.16-1.78.03-.14.04-.28.04-.43s-.02-.29-.04-.43Z"/>
  </g>
</svg>