<?xml version="1.0" encoding="UTF-8"?>
<svg id="Layer_2" xmlns="http://www.w3.org/2000/svg" viewBox="0 0 15.42 22.99">
  <g id="Layer_1-2" data-name="Layer_1">
    <path d="M7.71,0C3.46,0,0,3.46,0,7.71c0,.36.03.75.1,1.18.1.65.27,1.26.51,1.82.22.52.51,1.03.84,1.47l3.85,6.66c-1.44.32-2.54.96-2.54,1.93,0,1.45,2.42,2.21,4.82,2.21s4.82-.76,4.82-2.21c0-.92-.97-1.54-2.29-1.88l1.88-3.21,1.96-3.45c.36-.49.65-1,.87-1.52.24-.56.41-1.17.51-1.82.07-.44.1-.81.1-1.18C15.42,3.46,11.96,0,7.71,0ZM14.33,8.74c-.09.57-.24,1.1-.44,1.58-.19.45-.44.89-.78,1.37l-4.06,7.01-.53.91-.56.97c-.08.13-.21.15-.26.15s-.18-.01-.26-.15l-.57-.98-.54-.92-2.04-3.49-2.02-3.54c-.31-.43-.57-.87-.75-1.32-.2-.48-.35-1.01-.44-1.58-.06-.38-.09-.72-.09-1.03C1,4.01,4.01,1,7.71,1s6.71,3.01,6.71,6.71c0,.31-.03.64-.09,1.03Z"/>
  </g>
</svg>