<?xml version="1.0" encoding="UTF-8"?>
<svg id="Layer_2" xmlns="http://www.w3.org/2000/svg" viewBox="0 0 23.59 21.36">
  <g id="Layer_1-2" data-name="Layer_1">
    <path d="M21.39,8.47c-.1,0-.2.02-.3.03l-2.67-4.63c.36-.31.62-.74.72-1.23.03-.14.04-.28.04-.43s-.02-.29-.04-.43c-.2-1.01-1.09-1.78-2.16-1.78s-1.92.73-2.15,1.71h-5.41c-.23-.98-1.1-1.71-2.14-1.71-1.22,0-2.21.99-2.21,2.21,0,.58.23,1.11.59,1.5l-2.99,5.18c-.15-.03-.3-.05-.45-.05-1.22,0-2.21.99-2.21,2.21,0,.77.4,1.45,1,1.84.24.16.52.27.82.32.13.02.25.04.39.04.29,0,.56-.06.82-.16l2.63,4.56c-.37.39-.59.92-.59,1.5,0,.77.4,1.45,1,1.84.24.16.52.27.82.32.13.02.25.04.39.04,1.05,0,1.92-.73,2.14-1.71h5.42c.13.56.47,1.04.93,1.34.24.16.52.27.82.32.13.02.25.04.39.04,1.07,0,1.96-.76,2.16-1.78.03-.14.04-.28.04-.43s-.02-.29-.04-.43c-.1-.49-.36-.92-.72-1.23l2.67-4.63c.1.01.2.03.3.03,1.07,0,1.96-.76,2.16-1.78.03-.14.04-.28.04-.43s-.02-.29-.04-.43c-.2-1.01-1.09-1.78-2.16-1.78ZM17.53,17.02c-.18-.05-.36-.08-.56-.08-1.05,0-1.92.73-2.15,1.71h-5.41c-.23-.98-1.1-1.71-2.14-1.71-.28,0-.54.06-.78.15l-2.64-4.57c.26-.29.45-.64.52-1.04.03-.14.04-.28.04-.43s-.02-.29-.04-.43c-.1-.52-.4-.98-.8-1.3l2.92-5.05c.13.05.26.09.39.11.13.02.25.04.39.04,1.05,0,1.92-.73,2.14-1.71h5.42c.13.56.47,1.04.93,1.34.24.16.52.27.82.32.13.02.25.04.39.04.19,0,.38-.03.56-.08l2.61,4.52c-.58.4-.96,1.06-.96,1.82s.39,1.42.96,1.82l-2.61,4.53Z"/>
  </g>
</svg>