<?xml version="1.0" encoding="UTF-8"?>
<svg id="Layer_2" xmlns="http://www.w3.org/2000/svg" viewBox="0 0 19.36 19.4">
  <g id="Layer_1-2" data-name="Layer_1">
    <path d="M17.83,15.08V4.3c.75-.24,1.32-.88,1.48-1.66.03-.14.04-.28.04-.43s-.02-.29-.04-.43c-.2-1.01-1.09-1.78-2.16-1.78-.99,0-1.82.66-2.1,1.56H4.31c-.28-.9-1.11-1.56-2.1-1.56C.99,0,0,.99,0,2.21c0,.77.4,1.45,1,1.84.21.14.45.23.71.29v10.71c-.98.23-1.71,1.1-1.71,2.15,0,.77.4,1.45,1,1.84.24.16.52.27.82.32.13.02.25.04.39.04,1.05,0,1.92-.74,2.15-1.72h10.65c.13.55.47,1.03.93,1.33.24.16.52.27.82.32.13.02.25.04.39.04,1.07,0,1.96-.76,2.16-1.78.03-.14.04-.28.04-.43s-.02-.29-.04-.43c-.16-.79-.73-1.42-1.48-1.66ZM15,16.68H4.35c-.19-.81-.83-1.44-1.64-1.63V4.35c.84-.2,1.5-.86,1.66-1.71,0-.03,0-.05,0-.08h10.61c.1.62.45,1.16.95,1.49.24.16.52.27.82.32.02,0,.05,0,.07,0v10.62c-.91.13-1.63.81-1.83,1.69Z"/>
  </g>
</svg>